M48
; DRILL file {KiCad 9.0.8-9.0.8~ubuntu24.04.1} date 2026-04-12T21:14:33+0200
; FORMAT={-:-/ absolute / metric / decimal}
; #@! TF.CreationDate,2026-04-12T21:14:33+02:00
; #@! TF.GenerationSoftware,Kicad,Pcbnew,9.0.8-9.0.8~ubuntu24.04.1
; #@! TF.FileFunction,Plated,1,2,PTH
FMAT,2
METRIC
; #@! TA.AperFunction,Plated,PTH,ViaDrill
T1C0.300
; #@! TA.AperFunction,Plated,PTH,ComponentDrill
T2C0.500
; #@! TA.AperFunction,Plated,PTH,ComponentDrill
T3C0.889
; #@! TA.AperFunction,Plated,PTH,ComponentDrill
T4C1.000
; #@! TA.AperFunction,Plated,PTH,ComponentDrill
T5C1.100
; #@! TA.AperFunction,Plated,PTH,ComponentDrill
T6C1.300
; #@! TA.AperFunction,Plated,PTH,ComponentDrill
T7C1.600
; #@! TA.AperFunction,Plated,PTH,ComponentDrill
T8C3.200
; #@! TA.AperFunction,Plated,PTH,ComponentDrill
T9C4.500
%
G90
G05
T1
X134.62Y-108.712
X146.812Y-108.712
X175.26Y-121.92
X176.784Y-121.92
T2
X123.6Y-78.0
X123.6Y-128.0
X124.303Y-76.303
X124.303Y-79.697
X124.303Y-126.303
X124.303Y-129.697
X126.0Y-75.6
X126.0Y-80.4
X126.0Y-125.6
X126.0Y-130.4
X127.697Y-76.303
X127.697Y-79.697
X127.697Y-126.303
X127.697Y-129.697
X128.4Y-78.0
X128.4Y-128.0
X173.6Y-78.0
X173.6Y-128.0
X174.303Y-76.303
X174.303Y-79.697
X174.303Y-126.303
X174.303Y-129.697
X176.0Y-75.6
X176.0Y-80.4
X176.0Y-125.6
X176.0Y-130.4
X177.697Y-76.303
X177.697Y-79.697
X177.697Y-126.303
X177.697Y-129.697
X178.4Y-78.0
X178.4Y-128.0
T3
X142.748Y-76.708
X142.748Y-79.248
X142.748Y-81.788
X142.748Y-84.328
X142.748Y-86.868
X142.748Y-89.408
X142.748Y-91.948
X157.988Y-76.708
X157.988Y-79.248
X157.988Y-81.788
X157.988Y-84.328
X157.988Y-86.868
X157.988Y-89.408
X157.988Y-91.948
T4
X125.984Y-83.82
X128.016Y-90.424
X128.016Y-92.964
X128.016Y-95.504
X128.016Y-98.044
X128.524Y-83.82
X131.064Y-83.82
X139.578Y-76.708
X139.578Y-79.248
X139.578Y-81.788
X139.578Y-84.328
X139.578Y-86.868
X139.578Y-89.408
X139.578Y-91.948
X161.168Y-76.708
X161.168Y-79.248
X161.168Y-81.788
X161.168Y-84.328
X161.168Y-86.868
X161.168Y-89.408
X161.168Y-91.948
X161.544Y-112.268
X164.084Y-112.268
X166.624Y-112.268
T5
X134.7Y-113.726
X137.24Y-113.726
X139.78Y-113.726
X146.892Y-113.726
X149.432Y-113.726
X151.972Y-113.726
T6
X125.476Y-106.68
X125.476Y-111.68
X125.476Y-116.68
X135.288Y-129.54
X140.288Y-129.54
X146.892Y-129.54
X151.892Y-129.54
T7
X135.208Y-120.396
X140.288Y-120.396
X146.82Y-120.396
X151.9Y-120.396
T8
X126.0Y-78.0
X126.0Y-128.0
X176.0Y-78.0
X176.0Y-128.0
T9
X160.484Y-127.508
X167.684Y-127.508
M30
