%TF.GenerationSoftware,KiCad,Pcbnew,9.0.8-9.0.8~ubuntu24.04.1*%
%TF.CreationDate,2026-04-12T21:14:40+02:00*%
%TF.ProjectId,iBus-interpreter,69427573-2d69-46e7-9465-727072657465,rev?*%
%TF.SameCoordinates,Original*%
%TF.FileFunction,Copper,L1,Top*%
%TF.FilePolarity,Positive*%
%FSLAX46Y46*%
G04 Gerber Fmt 4.6, Leading zero omitted, Abs format (unit mm)*
G04 Created by KiCad (PCBNEW 9.0.8-9.0.8~ubuntu24.04.1) date 2026-04-12 21:14:40*
%MOMM*%
%LPD*%
G01*
G04 APERTURE LIST*
G04 Aperture macros list*
%AMRoundRect*
0 Rectangle with rounded corners*
0 $1 Rounding radius*
0 $2 $3 $4 $5 $6 $7 $8 $9 X,Y pos of 4 corners*
0 Add a 4 corners polygon primitive as box body*
4,1,4,$2,$3,$4,$5,$6,$7,$8,$9,$2,$3,0*
0 Add four circle primitives for the rounded corners*
1,1,$1+$1,$2,$3*
1,1,$1+$1,$4,$5*
1,1,$1+$1,$6,$7*
1,1,$1+$1,$8,$9*
0 Add four rect primitives between the rounded corners*
20,1,$1+$1,$2,$3,$4,$5,0*
20,1,$1+$1,$4,$5,$6,$7,0*
20,1,$1+$1,$6,$7,$8,$9,0*
20,1,$1+$1,$8,$9,$2,$3,0*%
G04 Aperture macros list end*
%TA.AperFunction,SMDPad,CuDef*%
%ADD10RoundRect,0.250000X0.400000X0.625000X-0.400000X0.625000X-0.400000X-0.625000X0.400000X-0.625000X0*%
%TD*%
%TA.AperFunction,SMDPad,CuDef*%
%ADD11RoundRect,0.250000X-1.250000X-0.550000X1.250000X-0.550000X1.250000X0.550000X-1.250000X0.550000X0*%
%TD*%
%TA.AperFunction,ComponentPad*%
%ADD12C,0.800000*%
%TD*%
%TA.AperFunction,ComponentPad*%
%ADD13C,6.400000*%
%TD*%
%TA.AperFunction,ComponentPad*%
%ADD14R,1.905000X2.000000*%
%TD*%
%TA.AperFunction,ComponentPad*%
%ADD15O,1.905000X2.000000*%
%TD*%
%TA.AperFunction,ComponentPad*%
%ADD16R,1.700000X1.700000*%
%TD*%
%TA.AperFunction,SMDPad,CuDef*%
%ADD17RoundRect,0.250000X-0.625000X0.400000X-0.625000X-0.400000X0.625000X-0.400000X0.625000X0.400000X0*%
%TD*%
%TA.AperFunction,SMDPad,CuDef*%
%ADD18RoundRect,0.250000X0.625000X-0.400000X0.625000X0.400000X-0.625000X0.400000X-0.625000X-0.400000X0*%
%TD*%
%TA.AperFunction,ComponentPad*%
%ADD19RoundRect,0.250000X-1.050000X-1.050000X1.050000X-1.050000X1.050000X1.050000X-1.050000X1.050000X0*%
%TD*%
%TA.AperFunction,ComponentPad*%
%ADD20C,2.600000*%
%TD*%
%TA.AperFunction,ComponentPad*%
%ADD21C,1.700000*%
%TD*%
%TA.AperFunction,ComponentPad*%
%ADD22R,1.500000X2.300000*%
%TD*%
%TA.AperFunction,ComponentPad*%
%ADD23O,1.500000X2.300000*%
%TD*%
%TA.AperFunction,ComponentPad*%
%ADD24RoundRect,0.250000X-1.050000X1.050000X-1.050000X-1.050000X1.050000X-1.050000X1.050000X1.050000X0*%
%TD*%
%TA.AperFunction,SMDPad,CuDef*%
%ADD25RoundRect,0.250000X-0.650000X1.500000X-0.650000X-1.500000X0.650000X-1.500000X0.650000X1.500000X0*%
%TD*%
%TA.AperFunction,SMDPad,CuDef*%
%ADD26RoundRect,0.250000X-0.550000X1.250000X-0.550000X-1.250000X0.550000X-1.250000X0.550000X1.250000X0*%
%TD*%
%TA.AperFunction,SMDPad,CuDef*%
%ADD27RoundRect,0.152400X1.063600X0.609600X-1.063600X0.609600X-1.063600X-0.609600X1.063600X-0.609600X0*%
%TD*%
%TA.AperFunction,ComponentPad*%
%ADD28C,1.524000*%
%TD*%
%TA.AperFunction,SMDPad,CuDef*%
%ADD29RoundRect,0.152400X-1.063600X-0.609600X1.063600X-0.609600X1.063600X0.609600X-1.063600X0.609600X0*%
%TD*%
%TA.AperFunction,ComponentPad*%
%ADD30RoundRect,0.250000X1.350000X1.350000X-1.350000X1.350000X-1.350000X-1.350000X1.350000X-1.350000X0*%
%TD*%
%TA.AperFunction,ComponentPad*%
%ADD31C,3.200000*%
%TD*%
%TA.AperFunction,SMDPad,CuDef*%
%ADD32RoundRect,0.250001X0.624999X-0.462499X0.624999X0.462499X-0.624999X0.462499X-0.624999X-0.462499X0*%
%TD*%
%TA.AperFunction,SMDPad,CuDef*%
%ADD33RoundRect,0.250000X-0.650000X0.412500X-0.650000X-0.412500X0.650000X-0.412500X0.650000X0.412500X0*%
%TD*%
%TA.AperFunction,ComponentPad*%
%ADD34RoundRect,1.500000X1.500000X1.500000X-1.500000X1.500000X-1.500000X-1.500000X1.500000X-1.500000X0*%
%TD*%
%TA.AperFunction,ComponentPad*%
%ADD35C,6.000000*%
%TD*%
%TA.AperFunction,ViaPad*%
%ADD36C,0.600000*%
%TD*%
%TA.AperFunction,Conductor*%
%ADD37C,1.600000*%
%TD*%
%TA.AperFunction,Conductor*%
%ADD38C,1.200000*%
%TD*%
%TA.AperFunction,Conductor*%
%ADD39C,1.000000*%
%TD*%
G04 APERTURE END LIST*
D10*
%TO.P,R7,1*%
%TO.N,GND*%
X137720000Y-107188000D03*
%TO.P,R7,2*%
%TO.N,Net-(Q2-G)*%
X134620000Y-107188000D03*
%TD*%
D11*
%TO.P,C3,1*%
%TO.N,+12V*%
X159852000Y-117856000D03*
%TO.P,C3,2*%
%TO.N,GND*%
X164252000Y-117856000D03*
%TD*%
D12*
%TO.P,H3,1,1*%
%TO.N,GND*%
X123600000Y-78000000D03*
X124302944Y-76302944D03*
X124302944Y-79697056D03*
X126000000Y-75600000D03*
D13*
X126000000Y-78000000D03*
D12*
X126000000Y-80400000D03*
X127697056Y-76302944D03*
X127697056Y-79697056D03*
X128400000Y-78000000D03*
%TD*%
D10*
%TO.P,R6,1*%
%TO.N,IOP_1*%
X137772000Y-104648000D03*
%TO.P,R6,2*%
%TO.N,Net-(Q2-G)*%
X134672000Y-104648000D03*
%TD*%
D14*
%TO.P,Q1,1,G*%
%TO.N,Net-(Q1-G)*%
X146892000Y-113726000D03*
D15*
%TO.P,Q1,2,D*%
%TO.N,Net-(D5-A)*%
X149432000Y-113726000D03*
%TO.P,Q1,3,S*%
%TO.N,GND*%
X151972000Y-113726000D03*
%TD*%
D16*
%TO.P,TP4,1,1*%
%TO.N,iBus*%
X139578000Y-81788000D03*
%TD*%
%TO.P,TP8,1,1*%
%TO.N,Net-(U1-GPIO21_D6_TX)*%
X139578000Y-91948000D03*
%TD*%
D17*
%TO.P,R1,1*%
%TO.N,+12V*%
X175768000Y-112278500D03*
%TO.P,R1,2*%
%TO.N,Net-(D2-A)*%
X175768000Y-115378500D03*
%TD*%
D18*
%TO.P,R3,1*%
%TO.N,+3.3V*%
X124206000Y-93524000D03*
%TO.P,R3,2*%
%TO.N,SDA*%
X124206000Y-90424000D03*
%TD*%
D12*
%TO.P,H1,1,1*%
%TO.N,GND*%
X173600000Y-128000000D03*
X174302944Y-126302944D03*
X174302944Y-129697056D03*
X176000000Y-125600000D03*
D13*
X176000000Y-128000000D03*
D12*
X176000000Y-130400000D03*
X177697056Y-126302944D03*
X177697056Y-129697056D03*
X178400000Y-128000000D03*
%TD*%
D14*
%TO.P,Q2,1,G*%
%TO.N,Net-(Q2-G)*%
X134700000Y-113726000D03*
D15*
%TO.P,Q2,2,D*%
%TO.N,Net-(D3-A)*%
X137240000Y-113726000D03*
%TO.P,Q2,3,S*%
%TO.N,GND*%
X139780000Y-113726000D03*
%TD*%
D16*
%TO.P,TP5,1,1*%
%TO.N,Net-(U1-GPIO5_A3_D3)*%
X139578000Y-84328000D03*
%TD*%
%TO.P,TP1,1,1*%
%TO.N,+3.3V*%
X161168000Y-81788000D03*
%TD*%
D19*
%TO.P,J2,1,Pin_1*%
%TO.N,Net-(D5-A)*%
X146892000Y-129540000D03*
D20*
%TO.P,J2,2,Pin_2*%
%TO.N,+12V*%
X151892000Y-129540000D03*
%TD*%
D12*
%TO.P,H4,1,1*%
%TO.N,GND*%
X173600000Y-78000000D03*
X174302944Y-76302944D03*
X174302944Y-79697056D03*
X176000000Y-75600000D03*
D13*
X176000000Y-78000000D03*
D12*
X176000000Y-80400000D03*
X177697056Y-76302944D03*
X177697056Y-79697056D03*
X178400000Y-78000000D03*
%TD*%
D16*
%TO.P,J5,1,Pin_1*%
%TO.N,GND*%
X125984000Y-83820000D03*
D21*
%TO.P,J5,2,Pin_2*%
%TO.N,unconnected-(J5-Pin_2-Pad2)*%
X128524000Y-83820000D03*
%TO.P,J5,3,Pin_3*%
%TO.N,iBus*%
X131064000Y-83820000D03*
%TD*%
D22*
%TO.P,U2,1,IN*%
%TO.N,+12V*%
X161544000Y-112268000D03*
D23*
%TO.P,U2,2,GND*%
%TO.N,GND*%
X164084000Y-112268000D03*
%TO.P,U2,3,OUT*%
%TO.N,+5V*%
X166624000Y-112268000D03*
%TD*%
D16*
%TO.P,TP7,1,1*%
%TO.N,SCL*%
X139578000Y-89408000D03*
%TD*%
D24*
%TO.P,J10,1,Pin_1*%
%TO.N,DI*%
X125476000Y-106680000D03*
D20*
%TO.P,J10,2,Pin_2*%
%TO.N,+12V*%
X125476000Y-111680000D03*
%TO.P,J10,3,Pin_3*%
%TO.N,GND*%
X125476000Y-116680000D03*
%TD*%
D16*
%TO.P,TP10,1,1*%
%TO.N,IOP_0*%
X161168000Y-89408000D03*
%TD*%
%TO.P,TP9,1,1*%
%TO.N,Net-(U1-GPIO20_D7_RX)*%
X161168000Y-91948000D03*
%TD*%
D25*
%TO.P,D1,1,K*%
%TO.N,Net-(D1-K)*%
X171259830Y-84751864D03*
%TO.P,D1,2,A*%
%TO.N,+5V*%
X171259830Y-89751864D03*
%TD*%
D16*
%TO.P,TP14,1,1*%
%TO.N,Net-(D1-K)*%
X161168000Y-76708000D03*
%TD*%
D26*
%TO.P,C2,1*%
%TO.N,Net-(D1-K)*%
X168548000Y-75852000D03*
%TO.P,C2,2*%
%TO.N,GND*%
X168548000Y-80252000D03*
%TD*%
D27*
%TO.P,U1,1,GPIO2_A0_D0*%
%TO.N,Net-(U1-GPIO2_A0_D0)*%
X141913000Y-76708000D03*
D28*
X142748000Y-76708000D03*
D27*
%TO.P,U1,2,GPIO3_A1_D1*%
%TO.N,Net-(U1-GPIO3_A1_D1)*%
X141913000Y-79248000D03*
D28*
X142748000Y-79248000D03*
D27*
%TO.P,U1,3,GPIO4_A2_D2*%
%TO.N,iBus*%
X141913000Y-81788000D03*
D28*
X142748000Y-81788000D03*
D27*
%TO.P,U1,4,GPIO5_A3_D3*%
%TO.N,Net-(U1-GPIO5_A3_D3)*%
X141913000Y-84328000D03*
D28*
X142748000Y-84328000D03*
D27*
%TO.P,U1,5,GPIO6_D4_SDA*%
%TO.N,SDA*%
X141913000Y-86868000D03*
D28*
X142748000Y-86868000D03*
D27*
%TO.P,U1,6,GPIO7_D5_SCL*%
%TO.N,SCL*%
X141913000Y-89408000D03*
D28*
X142748000Y-89408000D03*
D27*
%TO.P,U1,7,GPIO21_D6_TX*%
%TO.N,Net-(U1-GPIO21_D6_TX)*%
X141913000Y-91948000D03*
D28*
X142748000Y-91948000D03*
%TO.P,U1,8,GPIO20_D7_RX*%
%TO.N,Net-(U1-GPIO20_D7_RX)*%
X157988000Y-91948000D03*
D29*
X158823000Y-91948000D03*
D28*
%TO.P,U1,9,GPIO8_D8_SCK*%
%TO.N,IOP_0*%
X157988000Y-89408000D03*
D29*
X158823000Y-89408000D03*
D28*
%TO.P,U1,10,GPIO9_D9_MISO*%
%TO.N,IOP_1*%
X157988000Y-86868000D03*
D29*
X158823000Y-86868000D03*
D28*
%TO.P,U1,11,GPIO10_D10_MOSI*%
%TO.N,DI*%
X157988000Y-84328000D03*
D29*
X158823000Y-84328000D03*
D28*
%TO.P,U1,12,3V3*%
%TO.N,+3.3V*%
X157988000Y-81788000D03*
D29*
X158823000Y-81788000D03*
D28*
%TO.P,U1,13,GND*%
%TO.N,GND*%
X157988000Y-79248000D03*
D29*
X158823000Y-79248000D03*
D28*
%TO.P,U1,14,VBUS*%
%TO.N,Net-(D1-K)*%
X157988000Y-76708000D03*
D29*
X158823000Y-76708000D03*
%TD*%
D16*
%TO.P,TP2,1,1*%
%TO.N,Net-(U1-GPIO3_A1_D1)*%
X139578000Y-79248000D03*
%TD*%
D30*
%TO.P,D3,1,K*%
%TO.N,+12V*%
X140288000Y-120396000D03*
D31*
%TO.P,D3,2,A*%
%TO.N,Net-(D3-A)*%
X135208000Y-120396000D03*
%TD*%
D30*
%TO.P,D5,1,K*%
%TO.N,+12V*%
X151900000Y-120396000D03*
D31*
%TO.P,D5,2,A*%
%TO.N,Net-(D5-A)*%
X146820000Y-120396000D03*
%TD*%
D16*
%TO.P,TP12,1,1*%
%TO.N,DI*%
X161168000Y-84328000D03*
%TD*%
D32*
%TO.P,D2,1,K*%
%TO.N,GND*%
X175768000Y-120396000D03*
%TO.P,D2,2,A*%
%TO.N,Net-(D2-A)*%
X175768000Y-117421000D03*
%TD*%
D10*
%TO.P,R2,1*%
%TO.N,IOP_0*%
X149992000Y-104648000D03*
%TO.P,R2,2*%
%TO.N,Net-(Q1-G)*%
X146892000Y-104648000D03*
%TD*%
D18*
%TO.P,R4,1*%
%TO.N,+3.3V*%
X131826000Y-96064000D03*
%TO.P,R4,2*%
%TO.N,SCL*%
X131826000Y-92964000D03*
%TD*%
D12*
%TO.P,H2,1,1*%
%TO.N,GND*%
X123600000Y-128000000D03*
X124302944Y-126302944D03*
X124302944Y-129697056D03*
X126000000Y-125600000D03*
D13*
X126000000Y-128000000D03*
D12*
X126000000Y-130400000D03*
X127697056Y-126302944D03*
X127697056Y-129697056D03*
X128400000Y-128000000D03*
%TD*%
D16*
%TO.P,J4,1,Pin_1*%
%TO.N,GND*%
X128016000Y-98044000D03*
D21*
%TO.P,J4,2,Pin_2*%
%TO.N,+3.3V*%
X128016000Y-95504000D03*
%TO.P,J4,3,Pin_3*%
%TO.N,SCL*%
X128016000Y-92964000D03*
%TO.P,J4,4,Pin_4*%
%TO.N,SDA*%
X128016000Y-90424000D03*
%TD*%
D16*
%TO.P,TP3,1,1*%
%TO.N,Net-(U1-GPIO2_A0_D0)*%
X139578000Y-76708000D03*
%TD*%
%TO.P,TP11,1,1*%
%TO.N,IOP_1*%
X161168000Y-86868000D03*
%TD*%
%TO.P,TP6,1,1*%
%TO.N,SDA*%
X139578000Y-86868000D03*
%TD*%
D10*
%TO.P,R5,1*%
%TO.N,GND*%
X149992000Y-107188000D03*
%TO.P,R5,2*%
%TO.N,Net-(Q1-G)*%
X146892000Y-107188000D03*
%TD*%
D33*
%TO.P,C1,1*%
%TO.N,Net-(D1-K)*%
X164484000Y-76489500D03*
%TO.P,C1,2*%
%TO.N,GND*%
X164484000Y-79614500D03*
%TD*%
D19*
%TO.P,J1,1,Pin_1*%
%TO.N,Net-(D3-A)*%
X135288000Y-129540000D03*
D20*
%TO.P,J1,2,Pin_2*%
%TO.N,+12V*%
X140288000Y-129540000D03*
%TD*%
D34*
%TO.P,J7,1,Pin_1*%
%TO.N,GND*%
X167684000Y-127508000D03*
D35*
%TO.P,J7,2,Pin_2*%
%TO.N,+12V*%
X160484000Y-127508000D03*
%TD*%
D16*
%TO.P,TP13,1,1*%
%TO.N,GND*%
X161168000Y-79248000D03*
%TD*%
D36*
%TO.N,GND*%
X175260000Y-121920000D03*
X176784000Y-121920000D03*
%TO.N,Net-(Q1-G)*%
X146812000Y-108712000D03*
%TO.N,Net-(Q2-G)*%
X134620000Y-108712000D03*
%TD*%
D37*
%TO.N,+5V*%
X171272474Y-99728916D02*
X171259830Y-89751864D01*
X166624000Y-104648000D02*
X171272474Y-99728916D01*
X166624000Y-112268000D02*
X166624000Y-104648000D01*
D38*
%TO.N,Net-(D1-K)*%
X161168000Y-76708000D02*
X157988000Y-76708000D01*
X161386500Y-76489500D02*
X161168000Y-76708000D01*
X164484000Y-76489500D02*
X161386500Y-76489500D01*
D37*
X158823000Y-76708000D02*
X161168000Y-76708000D01*
D38*
X171259830Y-77025830D02*
X171259830Y-84751864D01*
X164484000Y-76489500D02*
X167910500Y-76489500D01*
X167910500Y-76489500D02*
X168548000Y-75852000D01*
X170086000Y-75852000D02*
X171259830Y-77025830D01*
X168548000Y-75852000D02*
X170086000Y-75852000D01*
D39*
%TO.N,Net-(D2-A)*%
X175768000Y-115378500D02*
X175768000Y-117421000D01*
%TO.N,+3.3V*%
X131266000Y-95504000D02*
X131826000Y-96064000D01*
D37*
X161168000Y-81788000D02*
X158823000Y-81788000D01*
D38*
X157988000Y-81788000D02*
X157226000Y-81788000D01*
X142950000Y-96064000D02*
X131826000Y-96064000D01*
D37*
X161168000Y-81788000D02*
X157988000Y-81788000D01*
D39*
X124968000Y-95504000D02*
X124206000Y-94742000D01*
X128016000Y-95504000D02*
X131266000Y-95504000D01*
D38*
X157226000Y-81788000D02*
X142950000Y-96064000D01*
D39*
X128016000Y-95504000D02*
X124968000Y-95504000D01*
X124206000Y-94742000D02*
X124206000Y-93524000D01*
%TO.N,SCL*%
X131826000Y-92964000D02*
X133096000Y-92964000D01*
X131826000Y-92964000D02*
X128016000Y-92964000D01*
X133096000Y-92964000D02*
X136652000Y-89408000D01*
D37*
X142748000Y-89408000D02*
X139578000Y-89408000D01*
D39*
X136652000Y-89408000D02*
X139578000Y-89408000D01*
D37*
%TO.N,SDA*%
X142748000Y-86868000D02*
X139578000Y-86868000D01*
D39*
X128016000Y-90424000D02*
X133350000Y-90424000D01*
X136906000Y-86868000D02*
X139578000Y-86868000D01*
X133350000Y-90424000D02*
X136906000Y-86868000D01*
X128016000Y-90424000D02*
X124206000Y-90424000D01*
D38*
%TO.N,iBus*%
X136652000Y-81788000D02*
X134620000Y-83820000D01*
X134620000Y-83820000D02*
X131064000Y-83820000D01*
D37*
X142748000Y-81788000D02*
X139578000Y-81788000D01*
D38*
X139578000Y-81788000D02*
X136652000Y-81788000D01*
D37*
%TO.N,GND*%
X164084000Y-112268000D02*
X164084000Y-117688000D01*
D39*
X175768000Y-120904000D02*
X176784000Y-121920000D01*
D37*
X158823000Y-79248000D02*
X161168000Y-79248000D01*
X161168000Y-79248000D02*
X157988000Y-79248000D01*
D39*
X175768000Y-120396000D02*
X175768000Y-121412000D01*
X175768000Y-121412000D02*
X175260000Y-121920000D01*
D37*
X164084000Y-117688000D02*
X164252000Y-117856000D01*
D39*
X175768000Y-120396000D02*
X175768000Y-120904000D01*
D38*
%TO.N,DI*%
X125476000Y-106680000D02*
X130556000Y-101600000D01*
D37*
X161168000Y-84328000D02*
X157988000Y-84328000D01*
D38*
X130556000Y-101600000D02*
X139700000Y-101600000D01*
X139700000Y-101600000D02*
X156972000Y-84328000D01*
X156972000Y-84328000D02*
X157988000Y-84328000D01*
%TO.N,Net-(Q1-G)*%
X146892000Y-108632000D02*
X146812000Y-108712000D01*
X146892000Y-104648000D02*
X146892000Y-107188000D01*
X146892000Y-107188000D02*
X146892000Y-108632000D01*
%TO.N,IOP_0*%
X156972000Y-89408000D02*
X158823000Y-89408000D01*
D37*
X161168000Y-89408000D02*
X157988000Y-89408000D01*
D38*
X149992000Y-96388000D02*
X156972000Y-89408000D01*
X149992000Y-104648000D02*
X149992000Y-96388000D01*
D37*
%TO.N,Net-(U1-GPIO3_A1_D1)*%
X142748000Y-79248000D02*
X139578000Y-79248000D01*
%TO.N,Net-(U1-GPIO2_A0_D0)*%
X139578000Y-76708000D02*
X142748000Y-76708000D01*
%TO.N,Net-(U1-GPIO21_D6_TX)*%
X142748000Y-91948000D02*
X139578000Y-91948000D01*
%TO.N,Net-(U1-GPIO20_D7_RX)*%
X161168000Y-91948000D02*
X157988000Y-91948000D01*
%TO.N,Net-(U1-GPIO5_A3_D3)*%
X142748000Y-84328000D02*
X139578000Y-84328000D01*
D38*
%TO.N,Net-(Q2-G)*%
X134700000Y-107268000D02*
X134620000Y-107188000D01*
X134672000Y-107136000D02*
X134620000Y-107188000D01*
X134672000Y-104648000D02*
X134672000Y-107136000D01*
X134620000Y-107188000D02*
X134620000Y-108712000D01*
%TO.N,IOP_1*%
X137772000Y-104648000D02*
X139192000Y-104648000D01*
X139192000Y-104648000D02*
X156972000Y-86868000D01*
D37*
X161168000Y-86868000D02*
X157988000Y-86868000D01*
D38*
X156972000Y-86868000D02*
X157988000Y-86868000D01*
%TD*%
%TA.AperFunction,Conductor*%
%TO.N,+12V*%
G36*
X133634770Y-109239685D02*
G01*
X133675719Y-109284944D01*
X133676223Y-109284636D01*
X133677864Y-109287314D01*
X133678213Y-109287700D01*
X133678765Y-109288785D01*
X133718659Y-109343693D01*
X133780586Y-109428928D01*
X133903072Y-109551414D01*
X134043212Y-109653232D01*
X134197555Y-109731873D01*
X134362299Y-109785402D01*
X134533389Y-109812500D01*
X134533390Y-109812500D01*
X134706610Y-109812500D01*
X134706611Y-109812500D01*
X134877701Y-109785402D01*
X135042445Y-109731873D01*
X135196788Y-109653232D01*
X135336928Y-109551414D01*
X135459414Y-109428928D01*
X135561232Y-109288788D01*
X135561234Y-109288785D01*
X135561787Y-109287700D01*
X135562107Y-109287361D01*
X135563777Y-109284636D01*
X135564349Y-109284986D01*
X135609764Y-109236906D01*
X135672269Y-109220000D01*
X145759731Y-109220000D01*
X145826770Y-109239685D01*
X145867719Y-109284944D01*
X145868223Y-109284636D01*
X145869864Y-109287314D01*
X145870213Y-109287700D01*
X145870765Y-109288785D01*
X145910659Y-109343693D01*
X145972586Y-109428928D01*
X146095072Y-109551414D01*
X146235212Y-109653232D01*
X146389555Y-109731873D01*
X146554299Y-109785402D01*
X146725389Y-109812500D01*
X146725390Y-109812500D01*
X146898610Y-109812500D01*
X146898611Y-109812500D01*
X147069701Y-109785402D01*
X147234445Y-109731873D01*
X147388788Y-109653232D01*
X147528928Y-109551414D01*
X147731414Y-109348928D01*
X147787949Y-109271113D01*
X147843279Y-109228449D01*
X147888267Y-109220000D01*
X165199500Y-109220000D01*
X165266539Y-109239685D01*
X165312294Y-109292489D01*
X165323500Y-109344000D01*
X165323500Y-111064914D01*
X165303815Y-111131953D01*
X165251011Y-111177708D01*
X165181853Y-111187652D01*
X165118297Y-111158627D01*
X165099182Y-111137800D01*
X165071842Y-111100170D01*
X165037828Y-111053354D01*
X164898646Y-110914172D01*
X164739405Y-110798476D01*
X164717612Y-110787372D01*
X164564029Y-110709117D01*
X164376826Y-110648290D01*
X164182422Y-110617500D01*
X164182417Y-110617500D01*
X163985583Y-110617500D01*
X163985578Y-110617500D01*
X163791173Y-110648290D01*
X163603970Y-110709117D01*
X163428594Y-110798476D01*
X163337741Y-110864485D01*
X163269354Y-110914172D01*
X163269352Y-110914174D01*
X163269351Y-110914174D01*
X163130174Y-111053351D01*
X163130174Y-111053352D01*
X163130172Y-111053354D01*
X163075575Y-111128500D01*
X163014474Y-111212597D01*
X162961212Y-111317129D01*
X162913238Y-111367924D01*
X162845417Y-111384719D01*
X162803275Y-111375394D01*
X162793999Y-111371551D01*
X162026962Y-112138589D01*
X162009925Y-112075007D01*
X161944099Y-111960993D01*
X161851007Y-111867901D01*
X161736993Y-111802075D01*
X161673410Y-111785037D01*
X162671073Y-110787373D01*
X162671073Y-110787372D01*
X162651191Y-110760813D01*
X162651185Y-110760808D01*
X162536093Y-110674649D01*
X162536086Y-110674645D01*
X162401379Y-110624403D01*
X162401372Y-110624401D01*
X162341844Y-110618000D01*
X160746155Y-110618000D01*
X160686627Y-110624401D01*
X160686620Y-110624403D01*
X160551913Y-110674645D01*
X160551906Y-110674649D01*
X160436815Y-110760807D01*
X160436809Y-110760812D01*
X160416924Y-110787373D01*
X161414589Y-111785037D01*
X161351007Y-111802075D01*
X161236993Y-111867901D01*
X161143901Y-111960993D01*
X161078075Y-112075007D01*
X161061037Y-112138588D01*
X160294000Y-111371551D01*
X160294000Y-113164448D01*
X161061037Y-112397410D01*
X161078075Y-112460993D01*
X161143901Y-112575007D01*
X161236993Y-112668099D01*
X161351007Y-112733925D01*
X161414589Y-112750962D01*
X160416925Y-113748625D01*
X160416925Y-113748626D01*
X160436807Y-113775184D01*
X160436814Y-113775191D01*
X160551906Y-113861350D01*
X160551913Y-113861354D01*
X160686620Y-113911596D01*
X160686627Y-113911598D01*
X160746155Y-113917999D01*
X160746172Y-113918000D01*
X162341828Y-113918000D01*
X162341844Y-113917999D01*
X162401372Y-113911598D01*
X162401379Y-113911596D01*
X162536086Y-113861354D01*
X162536089Y-113861352D01*
X162585188Y-113824597D01*
X162650652Y-113800179D01*
X162718925Y-113815030D01*
X162768331Y-113864435D01*
X162783500Y-113923863D01*
X162783500Y-116498231D01*
X162763815Y-116565270D01*
X162711011Y-116611025D01*
X162698508Y-116615935D01*
X162682672Y-116621183D01*
X162682669Y-116621184D01*
X162533342Y-116713289D01*
X162409289Y-116837342D01*
X162317187Y-116986663D01*
X162317185Y-116986668D01*
X162317115Y-116986880D01*
X162262001Y-117153203D01*
X162262001Y-117153204D01*
X162262000Y-117153204D01*
X162251500Y-117255983D01*
X162251500Y-118456001D01*
X162251501Y-118456018D01*
X162262000Y-118558796D01*
X162262001Y-118558799D01*
X162317185Y-118725331D01*
X162317187Y-118725336D01*
X162352069Y-118781888D01*
X162409288Y-118874656D01*
X162533344Y-118998712D01*
X162682666Y-119090814D01*
X162849203Y-119145999D01*
X162951991Y-119156500D01*
X164149646Y-119156499D01*
X164149649Y-119156500D01*
X164354352Y-119156500D01*
X164354355Y-119156499D01*
X165552008Y-119156499D01*
X165654797Y-119145999D01*
X165821334Y-119090814D01*
X165970656Y-118998712D01*
X166094712Y-118874656D01*
X166186814Y-118725334D01*
X166241999Y-118558797D01*
X166252500Y-118456009D01*
X166252499Y-117255992D01*
X166241999Y-117153203D01*
X166186814Y-116986666D01*
X166094712Y-116837344D01*
X165970656Y-116713288D01*
X165877888Y-116656069D01*
X165821336Y-116621187D01*
X165821331Y-116621185D01*
X165819862Y-116620698D01*
X165654797Y-116566001D01*
X165654795Y-116566000D01*
X165552016Y-116555500D01*
X165552009Y-116555500D01*
X165508500Y-116555500D01*
X165441461Y-116535815D01*
X165395706Y-116483011D01*
X165384500Y-116431500D01*
X165384500Y-114928483D01*
X174392500Y-114928483D01*
X174392500Y-115828501D01*
X174392501Y-115828519D01*
X174403000Y-115931296D01*
X174403001Y-115931299D01*
X174458185Y-116097831D01*
X174458187Y-116097836D01*
X174550289Y-116247157D01*
X174583952Y-116280820D01*
X174617437Y-116342143D01*
X174612453Y-116411835D01*
X174583952Y-116456182D01*
X174550289Y-116489844D01*
X174550286Y-116489848D01*
X174458187Y-116639162D01*
X174458186Y-116639164D01*
X174403001Y-116805703D01*
X174403000Y-116805704D01*
X174392500Y-116908484D01*
X174392500Y-117933515D01*
X174403000Y-118036295D01*
X174403001Y-118036296D01*
X174458186Y-118202835D01*
X174458187Y-118202837D01*
X174550286Y-118352151D01*
X174550289Y-118352155D01*
X174674344Y-118476210D01*
X174674348Y-118476213D01*
X174823662Y-118568312D01*
X174823664Y-118568313D01*
X174823666Y-118568314D01*
X174990203Y-118623499D01*
X175092992Y-118634000D01*
X175092997Y-118634000D01*
X176443003Y-118634000D01*
X176443008Y-118634000D01*
X176545797Y-118623499D01*
X176712334Y-118568314D01*
X176861655Y-118476211D01*
X176985711Y-118352155D01*
X177077814Y-118202834D01*
X177132999Y-118036297D01*
X177143500Y-117933508D01*
X177143500Y-116908492D01*
X177132999Y-116805703D01*
X177077814Y-116639166D01*
X177067004Y-116621641D01*
X176985713Y-116489848D01*
X176985710Y-116489844D01*
X176952048Y-116456182D01*
X176918563Y-116394859D01*
X176923547Y-116325167D01*
X176952048Y-116280820D01*
X176985712Y-116247156D01*
X177077814Y-116097834D01*
X177132999Y-115931297D01*
X177143500Y-115828509D01*
X177143499Y-114928492D01*
X177141641Y-114910307D01*
X177132999Y-114825703D01*
X177132998Y-114825700D01*
X177097995Y-114720068D01*
X177077814Y-114659166D01*
X176985712Y-114509844D01*
X176861656Y-114385788D01*
X176712334Y-114293686D01*
X176545797Y-114238501D01*
X176545795Y-114238500D01*
X176443010Y-114228000D01*
X175092998Y-114228000D01*
X175092981Y-114228001D01*
X174990203Y-114238500D01*
X174990200Y-114238501D01*
X174823668Y-114293685D01*
X174823663Y-114293687D01*
X174674342Y-114385789D01*
X174550289Y-114509842D01*
X174458187Y-114659163D01*
X174458186Y-114659166D01*
X174403001Y-114825703D01*
X174403001Y-114825704D01*
X174403000Y-114825704D01*
X174392500Y-114928483D01*
X165384500Y-114928483D01*
X165384500Y-113471085D01*
X165404185Y-113404046D01*
X165456989Y-113358291D01*
X165526147Y-113348347D01*
X165589703Y-113377372D01*
X165608814Y-113398195D01*
X165670172Y-113482646D01*
X165809354Y-113621828D01*
X165968595Y-113737524D01*
X166042507Y-113775184D01*
X166143970Y-113826882D01*
X166143972Y-113826882D01*
X166143975Y-113826884D01*
X166244317Y-113859487D01*
X166331173Y-113887709D01*
X166525578Y-113918500D01*
X166525583Y-113918500D01*
X166722422Y-113918500D01*
X166916826Y-113887709D01*
X167104025Y-113826884D01*
X167279405Y-113737524D01*
X167438646Y-113621828D01*
X167577828Y-113482646D01*
X167693524Y-113323405D01*
X167782884Y-113148025D01*
X167843709Y-112960826D01*
X167850656Y-112916962D01*
X167874500Y-112766422D01*
X167874500Y-112728486D01*
X174393001Y-112728486D01*
X174403494Y-112831197D01*
X174458641Y-112997619D01*
X174458643Y-112997624D01*
X174550684Y-113146845D01*
X174674654Y-113270815D01*
X174823875Y-113362856D01*
X174823880Y-113362858D01*
X174990302Y-113418005D01*
X174990309Y-113418006D01*
X175093019Y-113428499D01*
X175517999Y-113428499D01*
X176018000Y-113428499D01*
X176442972Y-113428499D01*
X176442986Y-113428498D01*
X176545697Y-113418005D01*
X176712119Y-113362858D01*
X176712124Y-113362856D01*
X176861345Y-113270815D01*
X176985315Y-113146845D01*
X177077356Y-112997624D01*
X177077358Y-112997619D01*
X177132505Y-112831197D01*
X177132506Y-112831190D01*
X177142999Y-112728486D01*
X177143000Y-112728473D01*
X177143000Y-112528500D01*
X176018000Y-112528500D01*
X176018000Y-113428499D01*
X175517999Y-113428499D01*
X175518000Y-113428498D01*
X175518000Y-112528500D01*
X174393001Y-112528500D01*
X174393001Y-112728486D01*
X167874500Y-112728486D01*
X167874500Y-112647500D01*
X167876985Y-112622798D01*
X167878388Y-112615893D01*
X167892477Y-112572534D01*
X167924500Y-112370352D01*
X167924500Y-111828513D01*
X174393000Y-111828513D01*
X174393000Y-112028500D01*
X175518000Y-112028500D01*
X176018000Y-112028500D01*
X177142999Y-112028500D01*
X177142999Y-111828528D01*
X177142998Y-111828513D01*
X177132505Y-111725802D01*
X177077358Y-111559380D01*
X177077356Y-111559375D01*
X176985315Y-111410154D01*
X176861345Y-111286184D01*
X176712124Y-111194143D01*
X176712119Y-111194141D01*
X176545697Y-111138994D01*
X176545690Y-111138993D01*
X176442986Y-111128500D01*
X176018000Y-111128500D01*
X176018000Y-112028500D01*
X175518000Y-112028500D01*
X175518000Y-111128500D01*
X175093028Y-111128500D01*
X175093012Y-111128501D01*
X174990302Y-111138994D01*
X174823880Y-111194141D01*
X174823875Y-111194143D01*
X174674654Y-111286184D01*
X174550684Y-111410154D01*
X174458643Y-111559375D01*
X174458641Y-111559380D01*
X174403494Y-111725802D01*
X174403493Y-111725809D01*
X174393000Y-111828513D01*
X167924500Y-111828513D01*
X167924500Y-109344000D01*
X167944185Y-109276961D01*
X167996989Y-109231206D01*
X168048500Y-109220000D01*
X180375500Y-109220000D01*
X180442539Y-109239685D01*
X180488294Y-109292489D01*
X180499500Y-109344000D01*
X180499500Y-128996948D01*
X180499351Y-129003033D01*
X180482947Y-129336928D01*
X180481754Y-129349037D01*
X180433151Y-129676694D01*
X180430777Y-129688630D01*
X180350292Y-130009944D01*
X180346759Y-130021588D01*
X180235170Y-130333459D01*
X180230514Y-130344702D01*
X180088885Y-130644151D01*
X180083148Y-130654883D01*
X179912862Y-130938988D01*
X179906102Y-130949106D01*
X179708775Y-131215170D01*
X179701055Y-131224576D01*
X179478611Y-131470006D01*
X179470006Y-131478611D01*
X179224576Y-131701055D01*
X179215170Y-131708775D01*
X178949106Y-131906102D01*
X178938988Y-131912862D01*
X178654883Y-132083148D01*
X178644151Y-132088885D01*
X178344702Y-132230514D01*
X178333459Y-132235170D01*
X178021588Y-132346759D01*
X178009944Y-132350292D01*
X177688630Y-132430777D01*
X177676694Y-132433151D01*
X177349037Y-132481754D01*
X177336928Y-132482947D01*
X177021989Y-132498419D01*
X177003031Y-132499351D01*
X176996949Y-132499500D01*
X125003051Y-132499500D01*
X124996968Y-132499351D01*
X124976900Y-132498365D01*
X124663071Y-132482947D01*
X124650962Y-132481754D01*
X124323305Y-132433151D01*
X124311369Y-132430777D01*
X123990055Y-132350292D01*
X123978411Y-132346759D01*
X123666540Y-132235170D01*
X123655301Y-132230515D01*
X123355844Y-132088883D01*
X123345121Y-132083150D01*
X123061011Y-131912862D01*
X123050893Y-131906102D01*
X122784829Y-131708775D01*
X122775423Y-131701055D01*
X122657231Y-131593932D01*
X122529986Y-131478604D01*
X122521395Y-131470013D01*
X122298944Y-131224576D01*
X122291224Y-131215170D01*
X122093895Y-130949103D01*
X122087137Y-130938988D01*
X122083170Y-130932369D01*
X121916844Y-130654871D01*
X121911120Y-130644163D01*
X121769479Y-130344688D01*
X121764829Y-130333459D01*
X121760512Y-130321395D01*
X121653240Y-130021588D01*
X121649707Y-130009944D01*
X121635782Y-129954351D01*
X121569219Y-129688617D01*
X121566848Y-129676694D01*
X121561874Y-129643165D01*
X121518245Y-129349037D01*
X121517052Y-129336927D01*
X121512691Y-129248165D01*
X121500649Y-129003032D01*
X121500500Y-128996948D01*
X121500500Y-127818209D01*
X122299500Y-127818209D01*
X122299500Y-128181790D01*
X122335137Y-128543630D01*
X122406064Y-128900212D01*
X122406067Y-128900223D01*
X122511614Y-129248165D01*
X122650754Y-129584078D01*
X122650756Y-129584083D01*
X122822140Y-129904720D01*
X122822151Y-129904738D01*
X123024140Y-130207035D01*
X123024150Y-130207049D01*
X123254807Y-130488106D01*
X123511893Y-130745192D01*
X123511898Y-130745196D01*
X123511899Y-130745197D01*
X123792956Y-130975854D01*
X124095268Y-131177853D01*
X124095277Y-131177858D01*
X124095279Y-131177859D01*
X124415916Y-131349243D01*
X124415918Y-131349243D01*
X124415924Y-131349247D01*
X124751836Y-131488386D01*
X125099767Y-131593930D01*
X125099773Y-131593931D01*
X125099776Y-131593932D01*
X125099787Y-131593935D01*
X125456369Y-131664862D01*
X125818206Y-131700500D01*
X125818209Y-131700500D01*
X126181791Y-131700500D01*
X126181794Y-131700500D01*
X126543631Y-131664862D01*
X126613045Y-131651054D01*
X126900212Y-131593935D01*
X126900223Y-131593932D01*
X126900223Y-131593931D01*
X126900233Y-131593930D01*
X127248164Y-131488386D01*
X127584076Y-131349247D01*
X127904732Y-131177853D01*
X128207044Y-130975854D01*
X128488101Y-130745197D01*
X128745197Y-130488101D01*
X128975854Y-130207044D01*
X129177853Y-129904732D01*
X129349247Y-129584076D01*
X129488386Y-129248164D01*
X129593930Y-128900233D01*
X129593932Y-128900223D01*
X129593935Y-128900212D01*
X129664862Y-128543630D01*
X129675071Y-128439983D01*
X133487500Y-128439983D01*
X133487500Y-130640001D01*
X133487501Y-130640018D01*
X133498000Y-130742796D01*
X133498001Y-130742799D01*
X133553185Y-130909331D01*
X133553186Y-130909334D01*
X133645288Y-131058656D01*
X133769344Y-131182712D01*
X133918666Y-131274814D01*
X134085203Y-131329999D01*
X134187991Y-131340500D01*
X136388008Y-131340499D01*
X136490797Y-131329999D01*
X136657334Y-131274814D01*
X136732715Y-131228319D01*
X139660338Y-131228319D01*
X139660338Y-131228320D01*
X139708152Y-131248125D01*
X139708165Y-131248129D01*
X139936087Y-131309201D01*
X140170014Y-131339999D01*
X140170029Y-131340000D01*
X140405971Y-131340000D01*
X140405985Y-131339999D01*
X140639914Y-131309200D01*
X140867834Y-131248130D01*
X140915660Y-131228319D01*
X140288001Y-130600660D01*
X140288000Y-130600660D01*
X139660338Y-131228319D01*
X136732715Y-131228319D01*
X136806656Y-131182712D01*
X136930712Y-131058656D01*
X137022814Y-130909334D01*
X137077999Y-130742797D01*
X137088500Y-130640009D01*
X137088499Y-129422014D01*
X138488000Y-129422014D01*
X138488000Y-129657985D01*
X138518798Y-129891912D01*
X138579871Y-130119837D01*
X138599678Y-130167660D01*
X138599679Y-130167660D01*
X139227340Y-129540000D01*
X139227340Y-129539999D01*
X139163322Y-129475981D01*
X139638000Y-129475981D01*
X139638000Y-129604019D01*
X139662979Y-129729598D01*
X139711978Y-129847890D01*
X139783112Y-129954351D01*
X139873649Y-130044888D01*
X139980110Y-130116022D01*
X140098402Y-130165021D01*
X140223981Y-130190000D01*
X140352019Y-130190000D01*
X140477598Y-130165021D01*
X140595890Y-130116022D01*
X140702351Y-130044888D01*
X140792888Y-129954351D01*
X140864022Y-129847890D01*
X140913021Y-129729598D01*
X140938000Y-129604019D01*
X140938000Y-129539999D01*
X141348660Y-129539999D01*
X141348660Y-129540000D01*
X141976319Y-130167660D01*
X141996130Y-130119834D01*
X142057200Y-129891914D01*
X142087999Y-129657985D01*
X142088000Y-129657971D01*
X142088000Y-129422028D01*
X142087999Y-129422014D01*
X142057201Y-129188087D01*
X141996129Y-128960165D01*
X141996125Y-128960152D01*
X141976320Y-128912338D01*
X141976319Y-128912338D01*
X141348660Y-129539999D01*
X140938000Y-129539999D01*
X140938000Y-129475981D01*
X140913021Y-129350402D01*
X140864022Y-129232110D01*
X140792888Y-129125649D01*
X140702351Y-129035112D01*
X140595890Y-128963978D01*
X140477598Y-128914979D01*
X140352019Y-128890000D01*
X140223981Y-128890000D01*
X140098402Y-128914979D01*
X139980110Y-128963978D01*
X139873649Y-129035112D01*
X139783112Y-129125649D01*
X139711978Y-129232110D01*
X139662979Y-129350402D01*
X139638000Y-129475981D01*
X139163322Y-129475981D01*
X138599679Y-128912338D01*
X138579872Y-128960159D01*
X138579868Y-128960170D01*
X138518798Y-129188087D01*
X138488000Y-129422014D01*
X137088499Y-129422014D01*
X137088499Y-128439992D01*
X137077999Y-128337203D01*
X137022814Y-128170666D01*
X136930712Y-128021344D01*
X136806656Y-127897288D01*
X136732712Y-127851679D01*
X139660338Y-127851679D01*
X140288000Y-128479340D01*
X140288001Y-128479340D01*
X140327358Y-128439983D01*
X145091500Y-128439983D01*
X145091500Y-130640001D01*
X145091501Y-130640018D01*
X145102000Y-130742796D01*
X145102001Y-130742799D01*
X145157185Y-130909331D01*
X145157186Y-130909334D01*
X145249288Y-131058656D01*
X145373344Y-131182712D01*
X145522666Y-131274814D01*
X145689203Y-131329999D01*
X145791991Y-131340500D01*
X147992008Y-131340499D01*
X148094797Y-131329999D01*
X148261334Y-131274814D01*
X148336715Y-131228319D01*
X151264338Y-131228319D01*
X151264338Y-131228320D01*
X151312152Y-131248125D01*
X151312165Y-131248129D01*
X151540087Y-131309201D01*
X151774014Y-131339999D01*
X151774029Y-131340000D01*
X152009971Y-131340000D01*
X152009985Y-131339999D01*
X152243914Y-131309200D01*
X152471834Y-131248130D01*
X152519660Y-131228319D01*
X151892001Y-130600660D01*
X151892000Y-130600660D01*
X151264338Y-131228319D01*
X148336715Y-131228319D01*
X148410656Y-131182712D01*
X148534712Y-131058656D01*
X148626814Y-130909334D01*
X148681999Y-130742797D01*
X148692500Y-130640009D01*
X148692499Y-129422014D01*
X150092000Y-129422014D01*
X150092000Y-129657985D01*
X150122798Y-129891912D01*
X150183871Y-130119837D01*
X150203678Y-130167660D01*
X150203679Y-130167660D01*
X150831340Y-129540000D01*
X150831340Y-129539999D01*
X150767322Y-129475981D01*
X151242000Y-129475981D01*
X151242000Y-129604019D01*
X151266979Y-129729598D01*
X151315978Y-129847890D01*
X151387112Y-129954351D01*
X151477649Y-130044888D01*
X151584110Y-130116022D01*
X151702402Y-130165021D01*
X151827981Y-130190000D01*
X151956019Y-130190000D01*
X152081598Y-130165021D01*
X152199890Y-130116022D01*
X152306351Y-130044888D01*
X152396888Y-129954351D01*
X152468022Y-129847890D01*
X152517021Y-129729598D01*
X152542000Y-129604019D01*
X152542000Y-129539999D01*
X152952660Y-129539999D01*
X152952660Y-129540001D01*
X153580319Y-130167660D01*
X153600130Y-130119834D01*
X153661200Y-129891914D01*
X153691999Y-129657985D01*
X153692000Y-129657971D01*
X153692000Y-129422028D01*
X153691999Y-129422014D01*
X153661201Y-129188087D01*
X153600129Y-128960165D01*
X153600125Y-128960152D01*
X153580320Y-128912338D01*
X153580319Y-128912338D01*
X152952660Y-129539999D01*
X152542000Y-129539999D01*
X152542000Y-129475981D01*
X152517021Y-129350402D01*
X152468022Y-129232110D01*
X152396888Y-129125649D01*
X152306351Y-129035112D01*
X152199890Y-128963978D01*
X152081598Y-128914979D01*
X151956019Y-128890000D01*
X151827981Y-128890000D01*
X151702402Y-128914979D01*
X151584110Y-128963978D01*
X151477649Y-129035112D01*
X151387112Y-129125649D01*
X151315978Y-129232110D01*
X151266979Y-129350402D01*
X151242000Y-129475981D01*
X150767322Y-129475981D01*
X150203679Y-128912338D01*
X150183872Y-128960159D01*
X150183868Y-128960170D01*
X150122798Y-129188087D01*
X150092000Y-129422014D01*
X148692499Y-129422014D01*
X148692499Y-128439992D01*
X148681999Y-128337203D01*
X148626814Y-128170666D01*
X148534712Y-128021344D01*
X148410656Y-127897288D01*
X148336712Y-127851679D01*
X151264338Y-127851679D01*
X151892000Y-128479340D01*
X151892001Y-128479340D01*
X152519660Y-127851679D01*
X152519660Y-127851678D01*
X152471837Y-127831871D01*
X152243912Y-127770798D01*
X152009985Y-127740000D01*
X151774014Y-127740000D01*
X151540087Y-127770798D01*
X151312170Y-127831868D01*
X151312159Y-127831872D01*
X151264338Y-127851679D01*
X148336712Y-127851679D01*
X148261334Y-127805186D01*
X148094797Y-127750001D01*
X148094795Y-127750000D01*
X147992010Y-127739500D01*
X145791998Y-127739500D01*
X145791981Y-127739501D01*
X145689203Y-127750000D01*
X145689200Y-127750001D01*
X145522668Y-127805185D01*
X145522663Y-127805187D01*
X145373342Y-127897289D01*
X145249289Y-128021342D01*
X145157187Y-128170663D01*
X145157185Y-128170668D01*
X145136600Y-128232791D01*
X145102001Y-128337203D01*
X145102001Y-128337204D01*
X145102000Y-128337204D01*
X145091500Y-128439983D01*
X140327358Y-128439983D01*
X140418188Y-128349153D01*
X140915660Y-127851679D01*
X140915660Y-127851678D01*
X140867837Y-127831871D01*
X140639912Y-127770798D01*
X140405985Y-127740000D01*
X140170014Y-127740000D01*
X139936087Y-127770798D01*
X139708170Y-127831868D01*
X139708159Y-127831872D01*
X139660338Y-127851679D01*
X136732712Y-127851679D01*
X136657334Y-127805186D01*
X136490797Y-127750001D01*
X136490795Y-127750000D01*
X136388010Y-127739500D01*
X134187998Y-127739500D01*
X134187981Y-127739501D01*
X134085203Y-127750000D01*
X134085200Y-127750001D01*
X133918668Y-127805185D01*
X133918663Y-127805187D01*
X133769342Y-127897289D01*
X133645289Y-128021342D01*
X133553187Y-128170663D01*
X133553185Y-128170668D01*
X133532600Y-128232791D01*
X133498001Y-128337203D01*
X133498001Y-128337204D01*
X133498000Y-128337204D01*
X133487500Y-128439983D01*
X129675071Y-128439983D01*
X129676578Y-128424680D01*
X129700500Y-128181790D01*
X129700500Y-127818209D01*
X129699217Y-127805187D01*
X129664862Y-127456369D01*
X129640931Y-127336059D01*
X156984000Y-127336059D01*
X156984000Y-127679940D01*
X157017705Y-128022165D01*
X157017708Y-128022182D01*
X157084791Y-128359437D01*
X157084792Y-128359443D01*
X157184623Y-128688540D01*
X157287449Y-128936783D01*
X158273309Y-127950923D01*
X158348835Y-128232791D01*
X158461706Y-128505285D01*
X158609179Y-128760715D01*
X158788731Y-128994711D01*
X158997289Y-129203269D01*
X159231285Y-129382821D01*
X159486715Y-129530294D01*
X159759209Y-129643165D01*
X160041075Y-129718690D01*
X159055215Y-130704549D01*
X159303456Y-130807374D01*
X159632556Y-130907207D01*
X159632562Y-130907208D01*
X159969817Y-130974291D01*
X159969834Y-130974294D01*
X160312059Y-131008000D01*
X160655941Y-131008000D01*
X160998165Y-130974294D01*
X160998182Y-130974291D01*
X161335437Y-130907208D01*
X161335443Y-130907207D01*
X161664543Y-130807374D01*
X161912783Y-130704549D01*
X160926924Y-129718690D01*
X161208791Y-129643165D01*
X161481285Y-129530294D01*
X161736715Y-129382821D01*
X161970711Y-129203269D01*
X162179269Y-128994711D01*
X162358821Y-128760715D01*
X162506294Y-128505285D01*
X162619165Y-128232791D01*
X162694690Y-127950924D01*
X163680549Y-128936783D01*
X163783374Y-128688543D01*
X163883207Y-128359443D01*
X163883208Y-128359437D01*
X163937883Y-128084567D01*
X163970267Y-128022656D01*
X164030983Y-127988082D01*
X164100753Y-127991821D01*
X164157425Y-128032687D01*
X164183006Y-128097705D01*
X164183500Y-128108758D01*
X164183500Y-129079450D01*
X164198804Y-129293433D01*
X164259628Y-129573037D01*
X164259630Y-129573043D01*
X164259631Y-129573046D01*
X164359633Y-129841161D01*
X164359635Y-129841166D01*
X164496770Y-130092309D01*
X164496775Y-130092317D01*
X164668254Y-130321387D01*
X164668270Y-130321405D01*
X164870594Y-130523729D01*
X164870612Y-130523745D01*
X165099682Y-130695224D01*
X165099690Y-130695229D01*
X165350833Y-130832364D01*
X165350832Y-130832364D01*
X165350836Y-130832365D01*
X165350839Y-130832367D01*
X165618954Y-130932369D01*
X165618960Y-130932370D01*
X165618962Y-130932371D01*
X165898566Y-130993195D01*
X165898568Y-130993195D01*
X165898572Y-130993196D01*
X166112552Y-131008500D01*
X169255448Y-131008500D01*
X169469428Y-130993196D01*
X169556320Y-130974294D01*
X169749037Y-130932371D01*
X169749037Y-130932370D01*
X169749046Y-130932369D01*
X170017161Y-130832367D01*
X170268315Y-130695226D01*
X170497395Y-130523739D01*
X170699739Y-130321395D01*
X170871226Y-130092315D01*
X171008367Y-129841161D01*
X171108369Y-129573046D01*
X171108371Y-129573037D01*
X171169195Y-129293433D01*
X171169195Y-129293432D01*
X171169196Y-129293428D01*
X171184500Y-129079448D01*
X171184500Y-127818209D01*
X172299500Y-127818209D01*
X172299500Y-128181790D01*
X172335137Y-128543630D01*
X172406064Y-128900212D01*
X172406067Y-128900223D01*
X172511614Y-129248165D01*
X172650754Y-129584078D01*
X172650756Y-129584083D01*
X172822140Y-129904720D01*
X172822151Y-129904738D01*
X173024140Y-130207035D01*
X173024150Y-130207049D01*
X173254807Y-130488106D01*
X173511893Y-130745192D01*
X173511898Y-130745196D01*
X173511899Y-130745197D01*
X173792956Y-130975854D01*
X174095268Y-131177853D01*
X174095277Y-131177858D01*
X174095279Y-131177859D01*
X174415916Y-131349243D01*
X174415918Y-131349243D01*
X174415924Y-131349247D01*
X174751836Y-131488386D01*
X175099767Y-131593930D01*
X175099773Y-131593931D01*
X175099776Y-131593932D01*
X175099787Y-131593935D01*
X175456369Y-131664862D01*
X175818206Y-131700500D01*
X175818209Y-131700500D01*
X176181791Y-131700500D01*
X176181794Y-131700500D01*
X176543631Y-131664862D01*
X176613045Y-131651054D01*
X176900212Y-131593935D01*
X176900223Y-131593932D01*
X176900223Y-131593931D01*
X176900233Y-131593930D01*
X177248164Y-131488386D01*
X177584076Y-131349247D01*
X177904732Y-131177853D01*
X178207044Y-130975854D01*
X178488101Y-130745197D01*
X178745197Y-130488101D01*
X178975854Y-130207044D01*
X179177853Y-129904732D01*
X179349247Y-129584076D01*
X179488386Y-129248164D01*
X179593930Y-128900233D01*
X179593932Y-128900223D01*
X179593935Y-128900212D01*
X179664862Y-128543630D01*
X179675069Y-128439998D01*
X179700500Y-128181794D01*
X179700500Y-127818206D01*
X179664862Y-127456369D01*
X179640931Y-127336059D01*
X179593935Y-127099787D01*
X179593932Y-127099776D01*
X179593931Y-127099773D01*
X179593930Y-127099767D01*
X179488386Y-126751836D01*
X179349247Y-126415924D01*
X179301959Y-126327455D01*
X179177859Y-126095279D01*
X179177858Y-126095277D01*
X179177853Y-126095268D01*
X178975854Y-125792956D01*
X178745197Y-125511899D01*
X178745196Y-125511898D01*
X178745192Y-125511893D01*
X178488106Y-125254807D01*
X178207049Y-125024150D01*
X178207048Y-125024149D01*
X178207044Y-125024146D01*
X177904732Y-124822147D01*
X177904727Y-124822144D01*
X177904720Y-124822140D01*
X177584083Y-124650756D01*
X177584078Y-124650754D01*
X177248165Y-124511614D01*
X176900223Y-124406067D01*
X176900212Y-124406064D01*
X176543630Y-124335137D01*
X176271111Y-124308296D01*
X176181794Y-124299500D01*
X175818206Y-124299500D01*
X175735679Y-124307628D01*
X175456369Y-124335137D01*
X175099787Y-124406064D01*
X175099776Y-124406067D01*
X174751834Y-124511614D01*
X174415921Y-124650754D01*
X174415916Y-124650756D01*
X174095279Y-124822140D01*
X174095261Y-124822151D01*
X173792964Y-125024140D01*
X173792950Y-125024150D01*
X173511893Y-125254807D01*
X173254807Y-125511893D01*
X173024150Y-125792950D01*
X173024140Y-125792964D01*
X172822151Y-126095261D01*
X172822140Y-126095279D01*
X172650756Y-126415916D01*
X172650754Y-126415921D01*
X172511614Y-126751834D01*
X172406067Y-127099776D01*
X172406064Y-127099787D01*
X172335137Y-127456369D01*
X172315528Y-127655473D01*
X172300783Y-127805187D01*
X172299500Y-127818209D01*
X171184500Y-127818209D01*
X171184500Y-125936552D01*
X171169196Y-125722572D01*
X171108369Y-125442954D01*
X171008367Y-125174839D01*
X170926084Y-125024150D01*
X170871229Y-124923690D01*
X170871224Y-124923682D01*
X170699745Y-124694612D01*
X170699729Y-124694594D01*
X170497405Y-124492270D01*
X170497387Y-124492254D01*
X170268317Y-124320775D01*
X170268309Y-124320770D01*
X170017166Y-124183635D01*
X170017167Y-124183635D01*
X169816502Y-124108791D01*
X169749046Y-124083631D01*
X169749043Y-124083630D01*
X169749037Y-124083628D01*
X169469433Y-124022804D01*
X169255450Y-124007500D01*
X169255448Y-124007500D01*
X166112552Y-124007500D01*
X166112549Y-124007500D01*
X165898566Y-124022804D01*
X165618962Y-124083628D01*
X165350833Y-124183635D01*
X165099690Y-124320770D01*
X165099682Y-124320775D01*
X164870612Y-124492254D01*
X164870594Y-124492270D01*
X164668270Y-124694594D01*
X164668254Y-124694612D01*
X164496775Y-124923682D01*
X164496770Y-124923690D01*
X164359635Y-125174833D01*
X164259628Y-125442962D01*
X164198804Y-125722566D01*
X164183500Y-125936549D01*
X164183500Y-126907241D01*
X164163815Y-126974280D01*
X164111011Y-127020035D01*
X164041853Y-127029979D01*
X163978297Y-127000954D01*
X163940523Y-126942176D01*
X163937883Y-126931432D01*
X163883208Y-126656562D01*
X163883207Y-126656556D01*
X163783374Y-126327456D01*
X163680549Y-126079215D01*
X162694690Y-127065074D01*
X162619165Y-126783209D01*
X162506294Y-126510715D01*
X162358821Y-126255285D01*
X162179269Y-126021289D01*
X161970711Y-125812731D01*
X161736715Y-125633179D01*
X161481285Y-125485706D01*
X161208791Y-125372835D01*
X160926923Y-125297309D01*
X161912783Y-124311449D01*
X161664540Y-124208623D01*
X161335443Y-124108792D01*
X161335437Y-124108791D01*
X160998182Y-124041708D01*
X160998165Y-124041705D01*
X160655941Y-124008000D01*
X160312059Y-124008000D01*
X159969834Y-124041705D01*
X159969817Y-124041708D01*
X159632562Y-124108791D01*
X159632556Y-124108792D01*
X159303455Y-124208625D01*
X159055215Y-124311449D01*
X160041076Y-125297309D01*
X159759209Y-125372835D01*
X159486715Y-125485706D01*
X159231285Y-125633179D01*
X158997289Y-125812731D01*
X158788731Y-126021289D01*
X158609179Y-126255285D01*
X158461706Y-126510715D01*
X158348835Y-126783209D01*
X158273309Y-127065075D01*
X157287449Y-126079215D01*
X157184625Y-126327455D01*
X157084792Y-126656556D01*
X157084791Y-126656562D01*
X157017708Y-126993817D01*
X157017705Y-126993834D01*
X156984000Y-127336059D01*
X129640931Y-127336059D01*
X129593935Y-127099787D01*
X129593932Y-127099776D01*
X129593931Y-127099773D01*
X129593930Y-127099767D01*
X129488386Y-126751836D01*
X129349247Y-126415924D01*
X129301959Y-126327455D01*
X129177859Y-126095279D01*
X129177858Y-126095277D01*
X129177853Y-126095268D01*
X128975854Y-125792956D01*
X128745197Y-125511899D01*
X128745196Y-125511898D01*
X128745192Y-125511893D01*
X128488106Y-125254807D01*
X128207049Y-125024150D01*
X128207048Y-125024149D01*
X128207044Y-125024146D01*
X127904732Y-124822147D01*
X127904727Y-124822144D01*
X127904720Y-124822140D01*
X127584083Y-124650756D01*
X127584078Y-124650754D01*
X127248165Y-124511614D01*
X127198581Y-124496573D01*
X126900233Y-124406070D01*
X126900232Y-124406069D01*
X126900223Y-124406067D01*
X126900212Y-124406064D01*
X126543630Y-124335137D01*
X126271111Y-124308296D01*
X126181794Y-124299500D01*
X125818206Y-124299500D01*
X125735679Y-124307628D01*
X125456369Y-124335137D01*
X125099787Y-124406064D01*
X125099776Y-124406067D01*
X124751834Y-124511614D01*
X124415921Y-124650754D01*
X124415916Y-124650756D01*
X124095279Y-124822140D01*
X124095261Y-124822151D01*
X123792964Y-125024140D01*
X123792950Y-125024150D01*
X123511893Y-125254807D01*
X123254807Y-125511893D01*
X123024150Y-125792950D01*
X123024140Y-125792964D01*
X122822151Y-126095261D01*
X122822140Y-126095279D01*
X122650756Y-126415916D01*
X122650754Y-126415921D01*
X122511614Y-126751834D01*
X122406067Y-127099776D01*
X122406064Y-127099787D01*
X122335137Y-127456369D01*
X122315528Y-127655473D01*
X122300783Y-127805187D01*
X122299500Y-127818209D01*
X121500500Y-127818209D01*
X121500500Y-120258332D01*
X133107500Y-120258332D01*
X133107500Y-120533667D01*
X133107501Y-120533684D01*
X133143438Y-120806655D01*
X133143439Y-120806660D01*
X133143440Y-120806666D01*
X133152258Y-120839575D01*
X133214704Y-121072630D01*
X133320075Y-121327017D01*
X133320080Y-121327028D01*
X133388812Y-121446074D01*
X133457751Y-121565479D01*
X133457753Y-121565482D01*
X133457754Y-121565483D01*
X133625370Y-121783926D01*
X133625376Y-121783933D01*
X133820066Y-121978623D01*
X133820073Y-121978629D01*
X133872089Y-122018542D01*
X134038521Y-122146249D01*
X134152107Y-122211828D01*
X134276971Y-122283919D01*
X134276976Y-122283921D01*
X134276979Y-122283923D01*
X134531368Y-122389295D01*
X134797334Y-122460560D01*
X135070326Y-122496500D01*
X135070333Y-122496500D01*
X135345667Y-122496500D01*
X135345674Y-122496500D01*
X135618666Y-122460560D01*
X135884632Y-122389295D01*
X136139021Y-122283923D01*
X136377479Y-122146249D01*
X136595928Y-121978628D01*
X136778570Y-121795986D01*
X138188001Y-121795986D01*
X138198494Y-121898697D01*
X138253641Y-122065119D01*
X138253643Y-122065124D01*
X138345684Y-122214345D01*
X138469654Y-122338315D01*
X138618875Y-122430356D01*
X138618880Y-122430358D01*
X138785302Y-122485505D01*
X138785309Y-122485506D01*
X138888019Y-122495999D01*
X139537999Y-122495999D01*
X141038000Y-122495999D01*
X141687972Y-122495999D01*
X141687986Y-122495998D01*
X141790697Y-122485505D01*
X141957119Y-122430358D01*
X141957124Y-122430356D01*
X142106345Y-122338315D01*
X142230315Y-122214345D01*
X142322356Y-122065124D01*
X142322358Y-122065119D01*
X142377505Y-121898697D01*
X142377506Y-121898690D01*
X142387999Y-121795986D01*
X142388000Y-121795973D01*
X142388000Y-121146000D01*
X141038000Y-121146000D01*
X141038000Y-122495999D01*
X139537999Y-122495999D01*
X139538000Y-122495998D01*
X139538000Y-121146000D01*
X138188001Y-121146000D01*
X138188001Y-121795986D01*
X136778570Y-121795986D01*
X136790628Y-121783928D01*
X136958249Y-121565479D01*
X137095923Y-121327021D01*
X137201295Y-121072632D01*
X137272560Y-120806666D01*
X137308500Y-120533674D01*
X137308500Y-120317207D01*
X139488000Y-120317207D01*
X139488000Y-120474793D01*
X139518743Y-120629351D01*
X139579049Y-120774942D01*
X139666599Y-120905970D01*
X139778030Y-121017401D01*
X139909058Y-121104951D01*
X140054649Y-121165257D01*
X140209207Y-121196000D01*
X140366793Y-121196000D01*
X140521351Y-121165257D01*
X140666942Y-121104951D01*
X140797970Y-121017401D01*
X140909401Y-120905970D01*
X140996951Y-120774942D01*
X141057257Y-120629351D01*
X141088000Y-120474793D01*
X141088000Y-120317207D01*
X141076289Y-120258332D01*
X144719500Y-120258332D01*
X144719500Y-120533667D01*
X144719501Y-120533684D01*
X144755438Y-120806655D01*
X144755439Y-120806660D01*
X144755440Y-120806666D01*
X144764258Y-120839575D01*
X144826704Y-121072630D01*
X144932075Y-121327017D01*
X144932080Y-121327028D01*
X145000812Y-121446074D01*
X145069751Y-121565479D01*
X145069753Y-121565482D01*
X145069754Y-121565483D01*
X145237370Y-121783926D01*
X145237376Y-121783933D01*
X145432066Y-121978623D01*
X145432073Y-121978629D01*
X145484089Y-122018542D01*
X145650521Y-122146249D01*
X145764107Y-122211828D01*
X145888971Y-122283919D01*
X145888976Y-122283921D01*
X145888979Y-122283923D01*
X146143368Y-122389295D01*
X146409334Y-122460560D01*
X146682326Y-122496500D01*
X146682333Y-122496500D01*
X146957667Y-122496500D01*
X146957674Y-122496500D01*
X147230666Y-122460560D01*
X147496632Y-122389295D01*
X147751021Y-122283923D01*
X147989479Y-122146249D01*
X148207928Y-121978628D01*
X148390570Y-121795986D01*
X149800001Y-121795986D01*
X149810494Y-121898697D01*
X149865641Y-122065119D01*
X149865643Y-122065124D01*
X149957684Y-122214345D01*
X150081654Y-122338315D01*
X150230875Y-122430356D01*
X150230880Y-122430358D01*
X150397302Y-122485505D01*
X150397309Y-122485506D01*
X150500019Y-122495999D01*
X151149999Y-122495999D01*
X152650000Y-122495999D01*
X153299972Y-122495999D01*
X153299986Y-122495998D01*
X153402697Y-122485505D01*
X153569119Y-122430358D01*
X153569124Y-122430356D01*
X153718345Y-122338315D01*
X153842315Y-122214345D01*
X153934356Y-122065124D01*
X153934358Y-122065119D01*
X153989505Y-121898697D01*
X153989506Y-121898690D01*
X153997397Y-121821455D01*
X174259500Y-121821455D01*
X174259500Y-122018544D01*
X174297947Y-122211828D01*
X174297949Y-122211836D01*
X174373367Y-122393910D01*
X174373372Y-122393920D01*
X174482860Y-122557780D01*
X174482863Y-122557784D01*
X174622215Y-122697136D01*
X174622219Y-122697139D01*
X174786079Y-122806627D01*
X174786083Y-122806629D01*
X174786086Y-122806631D01*
X174968164Y-122882051D01*
X175161455Y-122920499D01*
X175161458Y-122920500D01*
X175161460Y-122920500D01*
X175358542Y-122920500D01*
X175358543Y-122920499D01*
X175551836Y-122882051D01*
X175733914Y-122806631D01*
X175897781Y-122697139D01*
X175934318Y-122660602D01*
X175995640Y-122627116D01*
X176065332Y-122632100D01*
X176109682Y-122660602D01*
X176146215Y-122697136D01*
X176146219Y-122697139D01*
X176310079Y-122806627D01*
X176310083Y-122806629D01*
X176310086Y-122806631D01*
X176492164Y-122882051D01*
X176685455Y-122920499D01*
X176685458Y-122920500D01*
X176685460Y-122920500D01*
X176882542Y-122920500D01*
X176882543Y-122920499D01*
X177075836Y-122882051D01*
X177257914Y-122806631D01*
X177421781Y-122697139D01*
X177561139Y-122557781D01*
X177670631Y-122393914D01*
X177746051Y-122211836D01*
X177784500Y-122018540D01*
X177784500Y-121821460D01*
X177784500Y-121821457D01*
X177784499Y-121821455D01*
X177746052Y-121628171D01*
X177746051Y-121628164D01*
X177670631Y-121446086D01*
X177670629Y-121446083D01*
X177670627Y-121446079D01*
X177561139Y-121282219D01*
X177561136Y-121282215D01*
X177179819Y-120900898D01*
X177146334Y-120839575D01*
X177143500Y-120813217D01*
X177143500Y-119883497D01*
X177143499Y-119883484D01*
X177132999Y-119780704D01*
X177132999Y-119780703D01*
X177077814Y-119614166D01*
X176985711Y-119464845D01*
X176861655Y-119340789D01*
X176861651Y-119340786D01*
X176712337Y-119248687D01*
X176712335Y-119248686D01*
X176629065Y-119221093D01*
X176545797Y-119193501D01*
X176545795Y-119193500D01*
X176443015Y-119183000D01*
X176443008Y-119183000D01*
X175092992Y-119183000D01*
X175092984Y-119183000D01*
X174990204Y-119193500D01*
X174990203Y-119193501D01*
X174823664Y-119248686D01*
X174823662Y-119248687D01*
X174674348Y-119340786D01*
X174674344Y-119340789D01*
X174550289Y-119464844D01*
X174550286Y-119464848D01*
X174458187Y-119614162D01*
X174458186Y-119614164D01*
X174403001Y-119780703D01*
X174403000Y-119780704D01*
X174392500Y-119883484D01*
X174392500Y-120908515D01*
X174403000Y-121011295D01*
X174403001Y-121011297D01*
X174430349Y-121093829D01*
X174458185Y-121177832D01*
X174458188Y-121177838D01*
X174461704Y-121183538D01*
X174480145Y-121250930D01*
X174459268Y-121317526D01*
X174373375Y-121446074D01*
X174373367Y-121446089D01*
X174297949Y-121628163D01*
X174297947Y-121628171D01*
X174259500Y-121821455D01*
X153997397Y-121821455D01*
X153999307Y-121802765D01*
X153999307Y-121802763D01*
X153999998Y-121795993D01*
X154000000Y-121795973D01*
X154000000Y-121146000D01*
X152650000Y-121146000D01*
X152650000Y-122495999D01*
X151149999Y-122495999D01*
X151150000Y-122495998D01*
X151150000Y-121146000D01*
X149800001Y-121146000D01*
X149800001Y-121795986D01*
X148390570Y-121795986D01*
X148402628Y-121783928D01*
X148570249Y-121565479D01*
X148707923Y-121327021D01*
X148813295Y-121072632D01*
X148884560Y-120806666D01*
X148920500Y-120533674D01*
X148920500Y-120317207D01*
X151100000Y-120317207D01*
X151100000Y-120474793D01*
X151130743Y-120629351D01*
X151191049Y-120774942D01*
X151278599Y-120905970D01*
X151390030Y-121017401D01*
X151521058Y-121104951D01*
X151666649Y-121165257D01*
X151821207Y-121196000D01*
X151978793Y-121196000D01*
X152133351Y-121165257D01*
X152278942Y-121104951D01*
X152409970Y-121017401D01*
X152521401Y-120905970D01*
X152608951Y-120774942D01*
X152669257Y-120629351D01*
X152700000Y-120474793D01*
X152700000Y-120317207D01*
X152669257Y-120162649D01*
X152608951Y-120017058D01*
X152521401Y-119886030D01*
X152409970Y-119774599D01*
X152278942Y-119687049D01*
X152179841Y-119646000D01*
X152650000Y-119646000D01*
X153999999Y-119646000D01*
X153999999Y-118996028D01*
X153999998Y-118996013D01*
X153989505Y-118893302D01*
X153934358Y-118726880D01*
X153934356Y-118726875D01*
X153842315Y-118577654D01*
X153720647Y-118455986D01*
X157852001Y-118455986D01*
X157862494Y-118558697D01*
X157917641Y-118725119D01*
X157917643Y-118725124D01*
X158009684Y-118874345D01*
X158133654Y-118998315D01*
X158282875Y-119090356D01*
X158282880Y-119090358D01*
X158449302Y-119145505D01*
X158449309Y-119145506D01*
X158552019Y-119155999D01*
X159601999Y-119155999D01*
X160102000Y-119155999D01*
X161151972Y-119155999D01*
X161151986Y-119155998D01*
X161254697Y-119145505D01*
X161421119Y-119090358D01*
X161421124Y-119090356D01*
X161570345Y-118998315D01*
X161694315Y-118874345D01*
X161786356Y-118725124D01*
X161786358Y-118725119D01*
X161841505Y-118558697D01*
X161841506Y-118558690D01*
X161851999Y-118455986D01*
X161852000Y-118455973D01*
X161852000Y-118106000D01*
X160102000Y-118106000D01*
X160102000Y-119155999D01*
X159601999Y-119155999D01*
X159602000Y-119155998D01*
X159602000Y-118106000D01*
X157852001Y-118106000D01*
X157852001Y-118455986D01*
X153720647Y-118455986D01*
X153718345Y-118453684D01*
X153569124Y-118361643D01*
X153569119Y-118361641D01*
X153402697Y-118306494D01*
X153402690Y-118306493D01*
X153299986Y-118296000D01*
X152650000Y-118296000D01*
X152650000Y-119646000D01*
X152179841Y-119646000D01*
X152133351Y-119626743D01*
X151978793Y-119596000D01*
X151821207Y-119596000D01*
X151666649Y-119626743D01*
X151521058Y-119687049D01*
X151390030Y-119774599D01*
X151278599Y-119886030D01*
X151191049Y-120017058D01*
X151130743Y-120162649D01*
X151100000Y-120317207D01*
X148920500Y-120317207D01*
X148920500Y-120258326D01*
X148884560Y-119985334D01*
X148813295Y-119719368D01*
X148707923Y-119464979D01*
X148707921Y-119464976D01*
X148707919Y-119464971D01*
X148658732Y-119379778D01*
X148570249Y-119226521D01*
X148516520Y-119156500D01*
X148448881Y-119068350D01*
X148402629Y-119008073D01*
X148402623Y-119008066D01*
X148390570Y-118996013D01*
X149800000Y-118996013D01*
X149800000Y-119646000D01*
X151150000Y-119646000D01*
X151150000Y-118296000D01*
X150500028Y-118296000D01*
X150500012Y-118296001D01*
X150397302Y-118306494D01*
X150230880Y-118361641D01*
X150230875Y-118361643D01*
X150081654Y-118453684D01*
X149957684Y-118577654D01*
X149865643Y-118726875D01*
X149865641Y-118726880D01*
X149810494Y-118893302D01*
X149810493Y-118893309D01*
X149800000Y-118996013D01*
X148390570Y-118996013D01*
X148207933Y-118813376D01*
X148207926Y-118813370D01*
X147989483Y-118645754D01*
X147989482Y-118645753D01*
X147989479Y-118645751D01*
X147871532Y-118577654D01*
X147751028Y-118508080D01*
X147751017Y-118508075D01*
X147496630Y-118402704D01*
X147363649Y-118367072D01*
X147230666Y-118331440D01*
X147230660Y-118331439D01*
X147230655Y-118331438D01*
X146957684Y-118295501D01*
X146957679Y-118295500D01*
X146957674Y-118295500D01*
X146682326Y-118295500D01*
X146682320Y-118295500D01*
X146682315Y-118295501D01*
X146409344Y-118331438D01*
X146409337Y-118331439D01*
X146409334Y-118331440D01*
X146353125Y-118346500D01*
X146143369Y-118402704D01*
X145888982Y-118508075D01*
X145888971Y-118508080D01*
X145650516Y-118645754D01*
X145432073Y-118813370D01*
X145432066Y-118813376D01*
X145237376Y-119008066D01*
X145237370Y-119008073D01*
X145069754Y-119226516D01*
X144932080Y-119464971D01*
X144932075Y-119464982D01*
X144826704Y-119719369D01*
X144755441Y-119985331D01*
X144755438Y-119985344D01*
X144719501Y-120258315D01*
X144719500Y-120258332D01*
X141076289Y-120258332D01*
X141057257Y-120162649D01*
X140996951Y-120017058D01*
X140909401Y-119886030D01*
X140797970Y-119774599D01*
X140666942Y-119687049D01*
X140567841Y-119646000D01*
X141038000Y-119646000D01*
X142387999Y-119646000D01*
X142387999Y-118996028D01*
X142387998Y-118996013D01*
X142377505Y-118893302D01*
X142322358Y-118726880D01*
X142322356Y-118726875D01*
X142230315Y-118577654D01*
X142106345Y-118453684D01*
X141957124Y-118361643D01*
X141957119Y-118361641D01*
X141790697Y-118306494D01*
X141790690Y-118306493D01*
X141687986Y-118296000D01*
X141038000Y-118296000D01*
X141038000Y-119646000D01*
X140567841Y-119646000D01*
X140521351Y-119626743D01*
X140366793Y-119596000D01*
X140209207Y-119596000D01*
X140054649Y-119626743D01*
X139909058Y-119687049D01*
X139778030Y-119774599D01*
X139666599Y-119886030D01*
X139579049Y-120017058D01*
X139518743Y-120162649D01*
X139488000Y-120317207D01*
X137308500Y-120317207D01*
X137308500Y-120258326D01*
X137272560Y-119985334D01*
X137201295Y-119719368D01*
X137095923Y-119464979D01*
X137095921Y-119464976D01*
X137095919Y-119464971D01*
X137046732Y-119379778D01*
X136958249Y-119226521D01*
X136904520Y-119156500D01*
X136836881Y-119068350D01*
X136790629Y-119008073D01*
X136790623Y-119008066D01*
X136778570Y-118996013D01*
X138188000Y-118996013D01*
X138188000Y-119646000D01*
X139538000Y-119646000D01*
X139538000Y-118296000D01*
X138888028Y-118296000D01*
X138888012Y-118296001D01*
X138785302Y-118306494D01*
X138618880Y-118361641D01*
X138618875Y-118361643D01*
X138469654Y-118453684D01*
X138345684Y-118577654D01*
X138253643Y-118726875D01*
X138253641Y-118726880D01*
X138198494Y-118893302D01*
X138198493Y-118893309D01*
X138188000Y-118996013D01*
X136778570Y-118996013D01*
X136595933Y-118813376D01*
X136595926Y-118813370D01*
X136377483Y-118645754D01*
X136377482Y-118645753D01*
X136377479Y-118645751D01*
X136259532Y-118577654D01*
X136139028Y-118508080D01*
X136139017Y-118508075D01*
X135884630Y-118402704D01*
X135751649Y-118367072D01*
X135618666Y-118331440D01*
X135618660Y-118331439D01*
X135618655Y-118331438D01*
X135345684Y-118295501D01*
X135345679Y-118295500D01*
X135345674Y-118295500D01*
X135070326Y-118295500D01*
X135070320Y-118295500D01*
X135070315Y-118295501D01*
X134797344Y-118331438D01*
X134797337Y-118331439D01*
X134797334Y-118331440D01*
X134741125Y-118346500D01*
X134531369Y-118402704D01*
X134276982Y-118508075D01*
X134276971Y-118508080D01*
X134038516Y-118645754D01*
X133820073Y-118813370D01*
X133820066Y-118813376D01*
X133625376Y-119008066D01*
X133625370Y-119008073D01*
X133457754Y-119226516D01*
X133320080Y-119464971D01*
X133320075Y-119464982D01*
X133214704Y-119719369D01*
X133143441Y-119985331D01*
X133143438Y-119985344D01*
X133107501Y-120258315D01*
X133107500Y-120258332D01*
X121500500Y-120258332D01*
X121500500Y-116561995D01*
X123675500Y-116561995D01*
X123675500Y-116798004D01*
X123675501Y-116798020D01*
X123706306Y-117032010D01*
X123767394Y-117259993D01*
X123857714Y-117478045D01*
X123857719Y-117478056D01*
X123928677Y-117600957D01*
X123975727Y-117682450D01*
X123975729Y-117682453D01*
X123975730Y-117682454D01*
X124119406Y-117869697D01*
X124119412Y-117869704D01*
X124286295Y-118036587D01*
X124286301Y-118036592D01*
X124473550Y-118180273D01*
X124604918Y-118256118D01*
X124677943Y-118298280D01*
X124677948Y-118298282D01*
X124677951Y-118298284D01*
X124896007Y-118388606D01*
X125123986Y-118449693D01*
X125357989Y-118480500D01*
X125357996Y-118480500D01*
X125594004Y-118480500D01*
X125594011Y-118480500D01*
X125828014Y-118449693D01*
X126055993Y-118388606D01*
X126274049Y-118298284D01*
X126478450Y-118180273D01*
X126665699Y-118036592D01*
X126665996Y-118036295D01*
X126735335Y-117966957D01*
X126832587Y-117869704D01*
X126832592Y-117869699D01*
X126976273Y-117682450D01*
X127094284Y-117478049D01*
X127184606Y-117259993D01*
X127185672Y-117256013D01*
X157852000Y-117256013D01*
X157852000Y-117606000D01*
X159602000Y-117606000D01*
X160102000Y-117606000D01*
X161851999Y-117606000D01*
X161851999Y-117256028D01*
X161851998Y-117256013D01*
X161841505Y-117153302D01*
X161786358Y-116986880D01*
X161786356Y-116986875D01*
X161694315Y-116837654D01*
X161570345Y-116713684D01*
X161421124Y-116621643D01*
X161421119Y-116621641D01*
X161254697Y-116566494D01*
X161254690Y-116566493D01*
X161151986Y-116556000D01*
X160102000Y-116556000D01*
X160102000Y-117606000D01*
X159602000Y-117606000D01*
X159602000Y-116556000D01*
X158552028Y-116556000D01*
X158552012Y-116556001D01*
X158449302Y-116566494D01*
X158282880Y-116621641D01*
X158282875Y-116621643D01*
X158133654Y-116713684D01*
X158009684Y-116837654D01*
X157917643Y-116986875D01*
X157917641Y-116986880D01*
X157862494Y-117153302D01*
X157862493Y-117153309D01*
X157852000Y-117256013D01*
X127185672Y-117256013D01*
X127245693Y-117032014D01*
X127276500Y-116798011D01*
X127276500Y-116561989D01*
X127245693Y-116327986D01*
X127184606Y-116100007D01*
X127094284Y-115881951D01*
X127094282Y-115881948D01*
X127094280Y-115881943D01*
X127052118Y-115808918D01*
X126976273Y-115677550D01*
X126832592Y-115490301D01*
X126832587Y-115490295D01*
X126665704Y-115323412D01*
X126665697Y-115323406D01*
X126478454Y-115179730D01*
X126478453Y-115179729D01*
X126478450Y-115179727D01*
X126375083Y-115120048D01*
X126274056Y-115061719D01*
X126274045Y-115061714D01*
X126055993Y-114971394D01*
X126044551Y-114968328D01*
X125828014Y-114910307D01*
X125828013Y-114910306D01*
X125828010Y-114910306D01*
X125594020Y-114879501D01*
X125594017Y-114879500D01*
X125594011Y-114879500D01*
X125357989Y-114879500D01*
X125357983Y-114879500D01*
X125357979Y-114879501D01*
X125123989Y-114910306D01*
X124896006Y-114971394D01*
X124677954Y-115061714D01*
X124677943Y-115061719D01*
X124473545Y-115179730D01*
X124286302Y-115323406D01*
X124286295Y-115323412D01*
X124119412Y-115490295D01*
X124119406Y-115490302D01*
X123975730Y-115677545D01*
X123857719Y-115881943D01*
X123857714Y-115881954D01*
X123767394Y-116100006D01*
X123706306Y-116327989D01*
X123675501Y-116561979D01*
X123675500Y-116561995D01*
X121500500Y-116561995D01*
X121500500Y-113368319D01*
X124848338Y-113368319D01*
X124848338Y-113368320D01*
X124896152Y-113388125D01*
X124896165Y-113388129D01*
X125124087Y-113449201D01*
X125358014Y-113479999D01*
X125358029Y-113480000D01*
X125593971Y-113480000D01*
X125593985Y-113479999D01*
X125827914Y-113449200D01*
X126055834Y-113388130D01*
X126103660Y-113368319D01*
X125476001Y-112740660D01*
X125476000Y-112740660D01*
X124848338Y-113368319D01*
X121500500Y-113368319D01*
X121500500Y-112678135D01*
X133247000Y-112678135D01*
X133247000Y-114773870D01*
X133247001Y-114773876D01*
X133253408Y-114833483D01*
X133303702Y-114968328D01*
X133303706Y-114968335D01*
X133389952Y-115083544D01*
X133389955Y-115083547D01*
X133505164Y-115169793D01*
X133505171Y-115169797D01*
X133640017Y-115220091D01*
X133640016Y-115220091D01*
X133646944Y-115220835D01*
X133699627Y-115226500D01*
X135700372Y-115226499D01*
X135759983Y-115220091D01*
X135894831Y-115169796D01*
X136010046Y-115083546D01*
X136096296Y-114968331D01*
X136106690Y-114940460D01*
X136148560Y-114884527D01*
X136214023Y-114860108D01*
X136282297Y-114874958D01*
X136295746Y-114883465D01*
X136478462Y-115016217D01*
X136567759Y-115061716D01*
X136682244Y-115120049D01*
X136899751Y-115190721D01*
X136899752Y-115190721D01*
X136899755Y-115190722D01*
X137125646Y-115226500D01*
X137125647Y-115226500D01*
X137354353Y-115226500D01*
X137354354Y-115226500D01*
X137580245Y-115190722D01*
X137580248Y-115190721D01*
X137580249Y-115190721D01*
X137797755Y-115120049D01*
X137797755Y-115120048D01*
X137797758Y-115120048D01*
X138001538Y-115016217D01*
X138186566Y-114881786D01*
X138348286Y-114720066D01*
X138409683Y-114635559D01*
X138465012Y-114592896D01*
X138534625Y-114586917D01*
X138596420Y-114619523D01*
X138610314Y-114635556D01*
X138671714Y-114720066D01*
X138833434Y-114881786D01*
X139018462Y-115016217D01*
X139107759Y-115061716D01*
X139222244Y-115120049D01*
X139439751Y-115190721D01*
X139439752Y-115190721D01*
X139439755Y-115190722D01*
X139665646Y-115226500D01*
X139665647Y-115226500D01*
X139894353Y-115226500D01*
X139894354Y-115226500D01*
X140120245Y-115190722D01*
X140120248Y-115190721D01*
X140120249Y-115190721D01*
X140337755Y-115120049D01*
X140337755Y-115120048D01*
X140337758Y-115120048D01*
X140541538Y-115016217D01*
X140726566Y-114881786D01*
X140888286Y-114720066D01*
X141022717Y-114535038D01*
X141126548Y-114331258D01*
X141138756Y-114293685D01*
X141197221Y-114113749D01*
X141197221Y-114113748D01*
X141197222Y-114113745D01*
X141233000Y-113887854D01*
X141233000Y-113564146D01*
X141197222Y-113338255D01*
X141197221Y-113338251D01*
X141197221Y-113338250D01*
X141126549Y-113120744D01*
X141063816Y-112997624D01*
X141022717Y-112916962D01*
X140888286Y-112731934D01*
X140834487Y-112678135D01*
X145439000Y-112678135D01*
X145439000Y-114773870D01*
X145439001Y-114773876D01*
X145445408Y-114833483D01*
X145495702Y-114968328D01*
X145495706Y-114968335D01*
X145581952Y-115083544D01*
X145581955Y-115083547D01*
X145697164Y-115169793D01*
X145697171Y-115169797D01*
X145832017Y-115220091D01*
X145832016Y-115220091D01*
X145838944Y-115220835D01*
X145891627Y-115226500D01*
X147892372Y-115226499D01*
X147951983Y-115220091D01*
X148086831Y-115169796D01*
X148202046Y-115083546D01*
X148288296Y-114968331D01*
X148298690Y-114940460D01*
X148340560Y-114884527D01*
X148406023Y-114860108D01*
X148474297Y-114874958D01*
X148487746Y-114883465D01*
X148670462Y-115016217D01*
X148759759Y-115061716D01*
X148874244Y-115120049D01*
X149091751Y-115190721D01*
X149091752Y-115190721D01*
X149091755Y-115190722D01*
X149317646Y-115226500D01*
X149317647Y-115226500D01*
X149546353Y-115226500D01*
X149546354Y-115226500D01*
X149772245Y-115190722D01*
X149772248Y-115190721D01*
X149772249Y-115190721D01*
X149989755Y-115120049D01*
X149989755Y-115120048D01*
X149989758Y-115120048D01*
X150193538Y-115016217D01*
X150378566Y-114881786D01*
X150540286Y-114720066D01*
X150601683Y-114635559D01*
X150657012Y-114592896D01*
X150726625Y-114586917D01*
X150788420Y-114619523D01*
X150802314Y-114635556D01*
X150863714Y-114720066D01*
X151025434Y-114881786D01*
X151210462Y-115016217D01*
X151299759Y-115061716D01*
X151414244Y-115120049D01*
X151631751Y-115190721D01*
X151631752Y-115190721D01*
X151631755Y-115190722D01*
X151857646Y-115226500D01*
X151857647Y-115226500D01*
X152086353Y-115226500D01*
X152086354Y-115226500D01*
X152312245Y-115190722D01*
X152312248Y-115190721D01*
X152312249Y-115190721D01*
X152529755Y-115120049D01*
X152529755Y-115120048D01*
X152529758Y-115120048D01*
X152733538Y-115016217D01*
X152918566Y-114881786D01*
X153080286Y-114720066D01*
X153214717Y-114535038D01*
X153318548Y-114331258D01*
X153330756Y-114293685D01*
X153389221Y-114113749D01*
X153389221Y-114113748D01*
X153389222Y-114113745D01*
X153425000Y-113887854D01*
X153425000Y-113564146D01*
X153389222Y-113338255D01*
X153389221Y-113338251D01*
X153389221Y-113338250D01*
X153318549Y-113120744D01*
X153255816Y-112997624D01*
X153214717Y-112916962D01*
X153080286Y-112731934D01*
X152918566Y-112570214D01*
X152733538Y-112435783D01*
X152529755Y-112331950D01*
X152312248Y-112261278D01*
X152126812Y-112231908D01*
X152086354Y-112225500D01*
X151857646Y-112225500D01*
X151817188Y-112231908D01*
X151631753Y-112261278D01*
X151631750Y-112261278D01*
X151414244Y-112331950D01*
X151210461Y-112435783D01*
X151144550Y-112483671D01*
X151025434Y-112570214D01*
X151025432Y-112570216D01*
X151025431Y-112570216D01*
X150863715Y-112731932D01*
X150802318Y-112816438D01*
X150746987Y-112859103D01*
X150677374Y-112865082D01*
X150615579Y-112832476D01*
X150601682Y-112816438D01*
X150590773Y-112801423D01*
X150540286Y-112731934D01*
X150378566Y-112570214D01*
X150193538Y-112435783D01*
X149989755Y-112331950D01*
X149772248Y-112261278D01*
X149586812Y-112231908D01*
X149546354Y-112225500D01*
X149317646Y-112225500D01*
X149277188Y-112231908D01*
X149091753Y-112261278D01*
X149091750Y-112261278D01*
X148874244Y-112331950D01*
X148670461Y-112435783D01*
X148487759Y-112568525D01*
X148421952Y-112592005D01*
X148353898Y-112576180D01*
X148305203Y-112526074D01*
X148298690Y-112511538D01*
X148288296Y-112483669D01*
X148288293Y-112483664D01*
X148202047Y-112368455D01*
X148202044Y-112368452D01*
X148086835Y-112282206D01*
X148086828Y-112282202D01*
X147951982Y-112231908D01*
X147951983Y-112231908D01*
X147892383Y-112225501D01*
X147892381Y-112225500D01*
X147892373Y-112225500D01*
X147892364Y-112225500D01*
X145891629Y-112225500D01*
X145891623Y-112225501D01*
X145832016Y-112231908D01*
X145697171Y-112282202D01*
X145697164Y-112282206D01*
X145581955Y-112368452D01*
X145581952Y-112368455D01*
X145495706Y-112483664D01*
X145495702Y-112483671D01*
X145445408Y-112618517D01*
X145439001Y-112678116D01*
X145439000Y-112678135D01*
X140834487Y-112678135D01*
X140726566Y-112570214D01*
X140541538Y-112435783D01*
X140337755Y-112331950D01*
X140120248Y-112261278D01*
X139934812Y-112231908D01*
X139894354Y-112225500D01*
X139665646Y-112225500D01*
X139625188Y-112231908D01*
X139439753Y-112261278D01*
X139439750Y-112261278D01*
X139222244Y-112331950D01*
X139018461Y-112435783D01*
X138952550Y-112483671D01*
X138833434Y-112570214D01*
X138833432Y-112570216D01*
X138833431Y-112570216D01*
X138671715Y-112731932D01*
X138610318Y-112816438D01*
X138554987Y-112859103D01*
X138485374Y-112865082D01*
X138423579Y-112832476D01*
X138409682Y-112816438D01*
X138398773Y-112801423D01*
X138348286Y-112731934D01*
X138186566Y-112570214D01*
X138001538Y-112435783D01*
X137797755Y-112331950D01*
X137580248Y-112261278D01*
X137394812Y-112231908D01*
X137354354Y-112225500D01*
X137125646Y-112225500D01*
X137085188Y-112231908D01*
X136899753Y-112261278D01*
X136899750Y-112261278D01*
X136682244Y-112331950D01*
X136478461Y-112435783D01*
X136295759Y-112568525D01*
X136229952Y-112592005D01*
X136161898Y-112576180D01*
X136113203Y-112526074D01*
X136106690Y-112511538D01*
X136096296Y-112483669D01*
X136096293Y-112483664D01*
X136010047Y-112368455D01*
X136010044Y-112368452D01*
X135894835Y-112282206D01*
X135894828Y-112282202D01*
X135759982Y-112231908D01*
X135759983Y-112231908D01*
X135700383Y-112225501D01*
X135700381Y-112225500D01*
X135700373Y-112225500D01*
X135700364Y-112225500D01*
X133699629Y-112225500D01*
X133699623Y-112225501D01*
X133640016Y-112231908D01*
X133505171Y-112282202D01*
X133505164Y-112282206D01*
X133389955Y-112368452D01*
X133389952Y-112368455D01*
X133303706Y-112483664D01*
X133303702Y-112483671D01*
X133253408Y-112618517D01*
X133247001Y-112678116D01*
X133247000Y-112678135D01*
X121500500Y-112678135D01*
X121500500Y-111562014D01*
X123676000Y-111562014D01*
X123676000Y-111797985D01*
X123706798Y-112031912D01*
X123767871Y-112259837D01*
X123787678Y-112307660D01*
X123787679Y-112307660D01*
X124415340Y-111680000D01*
X124415340Y-111679999D01*
X124351322Y-111615981D01*
X124826000Y-111615981D01*
X124826000Y-111744019D01*
X124850979Y-111869598D01*
X124899978Y-111987890D01*
X124971112Y-112094351D01*
X125061649Y-112184888D01*
X125168110Y-112256022D01*
X125286402Y-112305021D01*
X125411981Y-112330000D01*
X125540019Y-112330000D01*
X125665598Y-112305021D01*
X125783890Y-112256022D01*
X125890351Y-112184888D01*
X125980888Y-112094351D01*
X126052022Y-111987890D01*
X126101021Y-111869598D01*
X126126000Y-111744019D01*
X126126000Y-111679999D01*
X126536660Y-111679999D01*
X126536660Y-111680000D01*
X127164319Y-112307660D01*
X127184130Y-112259834D01*
X127245200Y-112031914D01*
X127275999Y-111797985D01*
X127276000Y-111797971D01*
X127276000Y-111562028D01*
X127275999Y-111562014D01*
X127245201Y-111328088D01*
X127243247Y-111320796D01*
X127243247Y-111320793D01*
X127243246Y-111320791D01*
X127184130Y-111100168D01*
X127184125Y-111100152D01*
X127164320Y-111052338D01*
X127164319Y-111052338D01*
X126536660Y-111679999D01*
X126126000Y-111679999D01*
X126126000Y-111615981D01*
X126101021Y-111490402D01*
X126052022Y-111372110D01*
X125980888Y-111265649D01*
X125890351Y-111175112D01*
X125783890Y-111103978D01*
X125665598Y-111054979D01*
X125540019Y-111030000D01*
X125411981Y-111030000D01*
X125286402Y-111054979D01*
X125168110Y-111103978D01*
X125061649Y-111175112D01*
X124971112Y-111265649D01*
X124899978Y-111372110D01*
X124850979Y-111490402D01*
X124826000Y-111615981D01*
X124351322Y-111615981D01*
X123787679Y-111052338D01*
X123767872Y-111100159D01*
X123767868Y-111100170D01*
X123706798Y-111328087D01*
X123676000Y-111562014D01*
X121500500Y-111562014D01*
X121500500Y-109991679D01*
X124848338Y-109991679D01*
X125476000Y-110619340D01*
X125476001Y-110619340D01*
X126103660Y-109991679D01*
X126103660Y-109991678D01*
X126055837Y-109971871D01*
X125827912Y-109910798D01*
X125593985Y-109880000D01*
X125358014Y-109880000D01*
X125124087Y-109910798D01*
X124896170Y-109971868D01*
X124896159Y-109971872D01*
X124848338Y-109991679D01*
X121500500Y-109991679D01*
X121500500Y-109344000D01*
X121520185Y-109276961D01*
X121572989Y-109231206D01*
X121624500Y-109220000D01*
X133567731Y-109220000D01*
X133634770Y-109239685D01*
G37*
%TD.AperFunction*%
%TD*%
%TA.AperFunction,Conductor*%
%TO.N,GND*%
G36*
X126163029Y-124805597D02*
G01*
X126173957Y-124806673D01*
X126173960Y-124806674D01*
X126173961Y-124806674D01*
X126317346Y-124820795D01*
X126463322Y-124835173D01*
X126475347Y-124836957D01*
X126771260Y-124895816D01*
X126783060Y-124898771D01*
X127071838Y-124986371D01*
X127083282Y-124990467D01*
X127362066Y-125105942D01*
X127373056Y-125111139D01*
X127373070Y-125111147D01*
X127639156Y-125253373D01*
X127649594Y-125259629D01*
X127900494Y-125427276D01*
X127910267Y-125434524D01*
X128143518Y-125625947D01*
X128152535Y-125634120D01*
X128365877Y-125847462D01*
X128374049Y-125856478D01*
X128565473Y-126089730D01*
X128572722Y-126099504D01*
X128740366Y-126350400D01*
X128746622Y-126360838D01*
X128888855Y-126626938D01*
X128894058Y-126637938D01*
X129009528Y-126916708D01*
X129013628Y-126928166D01*
X129101221Y-127216920D01*
X129104175Y-127228716D01*
X129104177Y-127228723D01*
X129122775Y-127322223D01*
X129130467Y-127360891D01*
X129138657Y-127402066D01*
X129145897Y-127438466D01*
X129145900Y-127438481D01*
X129159540Y-127507050D01*
X129163041Y-127524649D01*
X129164826Y-127536686D01*
X129194403Y-127836981D01*
X129195000Y-127849135D01*
X129195000Y-128150864D01*
X129194403Y-128163017D01*
X129194403Y-128163018D01*
X129172005Y-128390431D01*
X129172005Y-128390433D01*
X129164825Y-128463320D01*
X129163039Y-128475355D01*
X129104180Y-128771265D01*
X129101224Y-128783070D01*
X129013627Y-129071836D01*
X129009527Y-129083293D01*
X128894058Y-129362060D01*
X128888855Y-129373060D01*
X128746622Y-129639160D01*
X128740366Y-129649598D01*
X128572722Y-129900494D01*
X128565474Y-129910268D01*
X128374055Y-130143514D01*
X128365882Y-130152530D01*
X128152530Y-130365882D01*
X128143514Y-130374055D01*
X127910268Y-130565474D01*
X127900494Y-130572722D01*
X127649598Y-130740366D01*
X127639160Y-130746622D01*
X127373060Y-130888855D01*
X127362060Y-130894058D01*
X127083290Y-131009528D01*
X127071832Y-131013628D01*
X126783080Y-131101220D01*
X126771276Y-131104176D01*
X126512951Y-131155560D01*
X126512950Y-131155560D01*
X126497305Y-131158672D01*
X126475344Y-131163041D01*
X126475340Y-131163040D01*
X126463309Y-131164826D01*
X126185686Y-131192170D01*
X126163019Y-131194403D01*
X126150866Y-131195000D01*
X125849136Y-131195000D01*
X125836982Y-131194403D01*
X125536690Y-131164826D01*
X125524654Y-131163041D01*
X125228719Y-131104178D01*
X125216913Y-131101220D01*
X124928171Y-131013630D01*
X124916714Y-131009531D01*
X124637935Y-130894057D01*
X124626935Y-130888854D01*
X124360838Y-130746622D01*
X124350400Y-130740366D01*
X124099504Y-130572722D01*
X124089730Y-130565473D01*
X123856489Y-130374058D01*
X123847473Y-130365886D01*
X123634115Y-130152529D01*
X123625943Y-130143513D01*
X123434527Y-129910271D01*
X123427278Y-129900497D01*
X123259629Y-129649595D01*
X123253373Y-129639157D01*
X123248818Y-129630636D01*
X123111142Y-129373060D01*
X123105944Y-129362070D01*
X122990467Y-129083285D01*
X122986367Y-129071827D01*
X122983203Y-129061398D01*
X122898771Y-128783060D01*
X122895816Y-128771258D01*
X122836958Y-128475352D01*
X122835172Y-128463319D01*
X122805597Y-128163017D01*
X122805000Y-128150864D01*
X122805000Y-127849133D01*
X122805597Y-127836980D01*
X122823473Y-127655473D01*
X122835173Y-127536675D01*
X122836956Y-127524654D01*
X122895820Y-127228723D01*
X122898772Y-127216935D01*
X122898777Y-127216920D01*
X122986369Y-126928162D01*
X122990464Y-126916720D01*
X123105944Y-126637927D01*
X123111143Y-126626938D01*
X123253382Y-126360826D01*
X123259627Y-126350406D01*
X123427281Y-126099495D01*
X123434527Y-126089726D01*
X123545422Y-125954600D01*
X123625957Y-125856467D01*
X123634110Y-125847472D01*
X123847472Y-125634110D01*
X123856467Y-125625957D01*
X124089730Y-125434523D01*
X124099500Y-125427278D01*
X124099503Y-125427276D01*
X124350416Y-125259620D01*
X124360824Y-125253382D01*
X124626935Y-125111142D01*
X124637919Y-125105947D01*
X124916719Y-124990464D01*
X124928162Y-124986369D01*
X125216941Y-124898770D01*
X125228732Y-124895817D01*
X125524653Y-124836956D01*
X125536674Y-124835173D01*
X125826043Y-124806674D01*
X125836979Y-124805597D01*
X125849132Y-124805000D01*
X126150878Y-124805000D01*
X126163029Y-124805597D01*
G37*
%TD.AperFunction*%
%TA.AperFunction,Conductor*%
G36*
X176163029Y-124805597D02*
G01*
X176173957Y-124806673D01*
X176173960Y-124806674D01*
X176173961Y-124806674D01*
X176317346Y-124820795D01*
X176463322Y-124835173D01*
X176475347Y-124836957D01*
X176771260Y-124895816D01*
X176783062Y-124898772D01*
X177071827Y-124986367D01*
X177083285Y-124990467D01*
X177362066Y-125105942D01*
X177373066Y-125111145D01*
X177639156Y-125253373D01*
X177649594Y-125259629D01*
X177900494Y-125427276D01*
X177910267Y-125434524D01*
X178143518Y-125625947D01*
X178152535Y-125634120D01*
X178365877Y-125847462D01*
X178374049Y-125856478D01*
X178565473Y-126089730D01*
X178572722Y-126099504D01*
X178740366Y-126350400D01*
X178746622Y-126360838D01*
X178888855Y-126626938D01*
X178894058Y-126637938D01*
X179009531Y-126916714D01*
X179013625Y-126928155D01*
X179101222Y-127216920D01*
X179104177Y-127228716D01*
X179163041Y-127524654D01*
X179164826Y-127536690D01*
X179194403Y-127836978D01*
X179195000Y-127849133D01*
X179195000Y-128150865D01*
X179194403Y-128163020D01*
X179164825Y-128463317D01*
X179163039Y-128475353D01*
X179104180Y-128771265D01*
X179101224Y-128783070D01*
X179013627Y-129071836D01*
X179009527Y-129083293D01*
X178894058Y-129362060D01*
X178888855Y-129373060D01*
X178746622Y-129639160D01*
X178740366Y-129649598D01*
X178572722Y-129900494D01*
X178565474Y-129910268D01*
X178374055Y-130143514D01*
X178365882Y-130152530D01*
X178152530Y-130365882D01*
X178143514Y-130374055D01*
X177910268Y-130565474D01*
X177900494Y-130572722D01*
X177649598Y-130740366D01*
X177639160Y-130746622D01*
X177373060Y-130888855D01*
X177362060Y-130894058D01*
X177083290Y-131009528D01*
X177071832Y-131013628D01*
X176783080Y-131101220D01*
X176771276Y-131104176D01*
X176512951Y-131155560D01*
X176512950Y-131155560D01*
X176497305Y-131158672D01*
X176475344Y-131163041D01*
X176475340Y-131163040D01*
X176463309Y-131164826D01*
X176185686Y-131192170D01*
X176163019Y-131194403D01*
X176150866Y-131195000D01*
X175849136Y-131195000D01*
X175836982Y-131194403D01*
X175536690Y-131164826D01*
X175524654Y-131163041D01*
X175228719Y-131104178D01*
X175216913Y-131101220D01*
X174928171Y-131013630D01*
X174916714Y-131009531D01*
X174637935Y-130894057D01*
X174626935Y-130888854D01*
X174360838Y-130746622D01*
X174350400Y-130740366D01*
X174099504Y-130572722D01*
X174089730Y-130565473D01*
X173856489Y-130374058D01*
X173847473Y-130365886D01*
X173634115Y-130152529D01*
X173625943Y-130143513D01*
X173434527Y-129910271D01*
X173427278Y-129900497D01*
X173259629Y-129649595D01*
X173253373Y-129639157D01*
X173248818Y-129630636D01*
X173111142Y-129373060D01*
X173105944Y-129362070D01*
X172990467Y-129083285D01*
X172986367Y-129071827D01*
X172983203Y-129061398D01*
X172898771Y-128783060D01*
X172895816Y-128771258D01*
X172836958Y-128475352D01*
X172835172Y-128463319D01*
X172805597Y-128163017D01*
X172805000Y-128150864D01*
X172805000Y-127849133D01*
X172805597Y-127836980D01*
X172823473Y-127655473D01*
X172835173Y-127536675D01*
X172836956Y-127524654D01*
X172895820Y-127228723D01*
X172898772Y-127216935D01*
X172898777Y-127216920D01*
X172986369Y-126928162D01*
X172990464Y-126916720D01*
X173105944Y-126637927D01*
X173111143Y-126626938D01*
X173253382Y-126360826D01*
X173259627Y-126350406D01*
X173427281Y-126099495D01*
X173434527Y-126089726D01*
X173545422Y-125954600D01*
X173625957Y-125856467D01*
X173634110Y-125847472D01*
X173847472Y-125634110D01*
X173856467Y-125625957D01*
X174089730Y-125434523D01*
X174099500Y-125427278D01*
X174099503Y-125427276D01*
X174350416Y-125259620D01*
X174360824Y-125253382D01*
X174626935Y-125111142D01*
X174637919Y-125105947D01*
X174916719Y-124990464D01*
X174928162Y-124986369D01*
X175216941Y-124898770D01*
X175228732Y-124895817D01*
X175524653Y-124836956D01*
X175536674Y-124835173D01*
X175826043Y-124806674D01*
X175836979Y-124805597D01*
X175849132Y-124805000D01*
X176150878Y-124805000D01*
X176163029Y-124805597D01*
G37*
%TD.AperFunction*%
%TA.AperFunction,Conductor*%
G36*
X175961039Y-120415685D02*
G01*
X176006794Y-120468489D01*
X176018000Y-120520000D01*
X176018000Y-121608500D01*
X176442973Y-121608500D01*
X176442985Y-121608499D01*
X176545689Y-121598006D01*
X176545696Y-121598005D01*
X176712118Y-121542858D01*
X176712123Y-121542856D01*
X176862757Y-121449943D01*
X176863108Y-121449476D01*
X176864140Y-121449090D01*
X176867490Y-121447025D01*
X176867899Y-121447688D01*
X176894363Y-121437818D01*
X176925287Y-121425338D01*
X176926968Y-121425657D01*
X176928572Y-121425059D01*
X176961156Y-121432147D01*
X176993930Y-121438369D01*
X176995708Y-121439663D01*
X176996845Y-121439911D01*
X177025099Y-121461062D01*
X177159848Y-121595811D01*
X177175269Y-121614602D01*
X177215874Y-121675372D01*
X177227333Y-121696808D01*
X177255304Y-121764334D01*
X177262360Y-121787596D01*
X177276617Y-121859267D01*
X177279000Y-121883459D01*
X177279000Y-121956539D01*
X177276617Y-121980733D01*
X177262358Y-122052410D01*
X177255302Y-122075668D01*
X177227335Y-122143187D01*
X177215876Y-122164625D01*
X177175275Y-122225389D01*
X177159854Y-122244180D01*
X177108180Y-122295854D01*
X177089390Y-122311275D01*
X177028628Y-122351875D01*
X177007191Y-122363334D01*
X176939667Y-122391304D01*
X176916405Y-122398360D01*
X176867393Y-122408109D01*
X176844731Y-122412617D01*
X176820541Y-122415000D01*
X176747459Y-122415000D01*
X176723269Y-122412617D01*
X176687630Y-122405528D01*
X176651588Y-122398358D01*
X176628329Y-122391302D01*
X176560813Y-122363336D01*
X176539380Y-122351880D01*
X176474919Y-122308809D01*
X176466016Y-122302267D01*
X176382976Y-122235348D01*
X176338631Y-122206849D01*
X176338629Y-122206848D01*
X176338626Y-122206846D01*
X176241983Y-122158471D01*
X176241981Y-122158470D01*
X176241980Y-122158470D01*
X176241973Y-122158467D01*
X176101402Y-122127889D01*
X176101391Y-122127888D01*
X176034973Y-122123138D01*
X176032911Y-122122935D01*
X176031691Y-122122903D01*
X176031690Y-122122903D01*
X175888178Y-122133170D01*
X175753372Y-122183453D01*
X175753369Y-122183454D01*
X175716483Y-122203596D01*
X175692048Y-122216940D01*
X175692046Y-122216941D01*
X175692045Y-122216942D01*
X175574046Y-122305278D01*
X175568638Y-122309105D01*
X175504628Y-122351875D01*
X175504627Y-122351876D01*
X175483191Y-122363334D01*
X175415667Y-122391304D01*
X175392405Y-122398360D01*
X175343393Y-122408109D01*
X175320731Y-122412617D01*
X175296541Y-122415000D01*
X175223459Y-122415000D01*
X175199269Y-122412617D01*
X175163630Y-122405528D01*
X175127588Y-122398358D01*
X175104330Y-122391302D01*
X175036813Y-122363336D01*
X175015374Y-122351877D01*
X174954611Y-122311276D01*
X174935822Y-122295856D01*
X174884144Y-122244179D01*
X174868722Y-122225388D01*
X174828121Y-122164624D01*
X174816664Y-122143190D01*
X174812514Y-122133170D01*
X174788691Y-122075658D01*
X174781640Y-122052410D01*
X174767381Y-121980725D01*
X174765000Y-121956542D01*
X174765000Y-121883455D01*
X174767381Y-121859273D01*
X174781641Y-121787580D01*
X174788694Y-121764334D01*
X174816666Y-121696803D01*
X174828124Y-121675369D01*
X174847382Y-121646548D01*
X174900993Y-121601744D01*
X174970318Y-121593037D01*
X174989495Y-121597737D01*
X174990304Y-121598005D01*
X174990310Y-121598006D01*
X175093014Y-121608499D01*
X175093027Y-121608500D01*
X175518000Y-121608500D01*
X175518000Y-120520000D01*
X175537685Y-120452961D01*
X175590489Y-120407206D01*
X175642000Y-120396000D01*
X175894000Y-120396000D01*
X175961039Y-120415685D01*
G37*
%TD.AperFunction*%
%TA.AperFunction,Conductor*%
G36*
X164334000Y-113893983D02*
G01*
X164376716Y-113887218D01*
X164563837Y-113826418D01*
X164698705Y-113757699D01*
X164767374Y-113744803D01*
X164832115Y-113771079D01*
X164872372Y-113828186D01*
X164879000Y-113868184D01*
X164879000Y-116432000D01*
X164859315Y-116499039D01*
X164806511Y-116544794D01*
X164755000Y-116556000D01*
X164502000Y-116556000D01*
X164502000Y-117732000D01*
X164482315Y-117799039D01*
X164429511Y-117844794D01*
X164378000Y-117856000D01*
X164126000Y-117856000D01*
X164058961Y-117836315D01*
X164013206Y-117783511D01*
X164002000Y-117732000D01*
X164002000Y-116556000D01*
X163413000Y-116556000D01*
X163345961Y-116536315D01*
X163300206Y-116483511D01*
X163289000Y-116432000D01*
X163289000Y-113923865D01*
X163289000Y-113923863D01*
X163283535Y-113880361D01*
X163294710Y-113811394D01*
X163341398Y-113759414D01*
X163408778Y-113740928D01*
X163462862Y-113754423D01*
X163604160Y-113826417D01*
X163791283Y-113887218D01*
X163834000Y-113893984D01*
X163834000Y-112701012D01*
X163891007Y-112733925D01*
X164018174Y-112768000D01*
X164149826Y-112768000D01*
X164276993Y-112733925D01*
X164334000Y-112701012D01*
X164334000Y-113893983D01*
G37*
%TD.AperFunction*%
%TA.AperFunction,Conductor*%
G36*
X177003032Y-73500648D02*
G01*
X177336929Y-73517052D01*
X177349037Y-73518245D01*
X177452146Y-73533539D01*
X177676699Y-73566849D01*
X177688617Y-73569219D01*
X178009951Y-73649709D01*
X178021588Y-73653240D01*
X178092806Y-73678722D01*
X178333467Y-73764832D01*
X178344688Y-73769479D01*
X178644163Y-73911120D01*
X178654871Y-73916844D01*
X178809106Y-74009289D01*
X178938988Y-74087137D01*
X178949106Y-74093897D01*
X179215170Y-74291224D01*
X179224576Y-74298944D01*
X179470013Y-74521395D01*
X179478604Y-74529986D01*
X179661531Y-74731815D01*
X179701055Y-74775423D01*
X179708775Y-74784829D01*
X179906102Y-75050893D01*
X179912862Y-75061011D01*
X180071990Y-75326501D01*
X180083148Y-75345116D01*
X180088883Y-75355844D01*
X180194150Y-75578413D01*
X180230514Y-75655297D01*
X180235170Y-75666540D01*
X180346759Y-75978411D01*
X180350292Y-75990055D01*
X180430777Y-76311369D01*
X180433151Y-76323305D01*
X180481754Y-76650962D01*
X180482947Y-76663071D01*
X180499351Y-76996966D01*
X180499500Y-77003051D01*
X180499500Y-108590500D01*
X180479815Y-108657539D01*
X180427011Y-108703294D01*
X180375500Y-108714500D01*
X168048500Y-108714500D01*
X167981461Y-108694815D01*
X167935706Y-108642011D01*
X167924500Y-108590500D01*
X167924500Y-105214586D01*
X167944185Y-105147547D01*
X167958370Y-105129424D01*
X172205629Y-100634912D01*
X172265513Y-100574877D01*
X172275872Y-100560580D01*
X172287997Y-100547750D01*
X172288001Y-100547743D01*
X172288004Y-100547741D01*
X172322948Y-100496666D01*
X172334944Y-100479132D01*
X172336810Y-100476481D01*
X172385624Y-100409116D01*
X172393620Y-100393373D01*
X172403587Y-100378806D01*
X172439920Y-100302217D01*
X172478326Y-100226607D01*
X172483760Y-100209807D01*
X172491327Y-100193859D01*
X172515236Y-100112515D01*
X172541336Y-100031842D01*
X172542823Y-100022375D01*
X172544076Y-100014396D01*
X172549054Y-99997465D01*
X172559943Y-99913389D01*
X172573103Y-99829620D01*
X172573080Y-99811963D01*
X172575348Y-99794458D01*
X172572951Y-99709703D01*
X172562746Y-91658232D01*
X172581206Y-91592982D01*
X172594644Y-91571198D01*
X172649829Y-91404661D01*
X172660330Y-91301873D01*
X172660329Y-88201856D01*
X172660191Y-88200509D01*
X172649829Y-88099067D01*
X172649828Y-88099064D01*
X172638106Y-88063689D01*
X172594644Y-87932530D01*
X172502542Y-87783208D01*
X172378486Y-87659152D01*
X172229164Y-87567050D01*
X172062627Y-87511865D01*
X172062625Y-87511864D01*
X171959840Y-87501364D01*
X170559828Y-87501364D01*
X170559811Y-87501365D01*
X170457033Y-87511864D01*
X170457030Y-87511865D01*
X170290498Y-87567049D01*
X170290493Y-87567051D01*
X170141172Y-87659153D01*
X170017119Y-87783206D01*
X169925017Y-87932527D01*
X169925015Y-87932532D01*
X169897179Y-88016534D01*
X169869831Y-88099067D01*
X169869831Y-88099068D01*
X169869830Y-88099068D01*
X169859330Y-88201847D01*
X169859330Y-91301865D01*
X169859331Y-91301882D01*
X169869830Y-91404660D01*
X169869831Y-91404663D01*
X169902314Y-91502687D01*
X169925016Y-91571198D01*
X169943293Y-91600830D01*
X169961753Y-91665768D01*
X169971255Y-99162931D01*
X169951655Y-99229995D01*
X169937380Y-99248255D01*
X165692629Y-103740113D01*
X165692629Y-103740114D01*
X165691411Y-103741403D01*
X165632034Y-103800781D01*
X165621172Y-103815729D01*
X165615676Y-103821546D01*
X165615673Y-103821547D01*
X165608481Y-103829160D01*
X165608480Y-103829161D01*
X165562055Y-103897013D01*
X165560036Y-103899876D01*
X165511715Y-103966385D01*
X165511712Y-103966390D01*
X165506951Y-103975735D01*
X165498810Y-103989451D01*
X165492885Y-103998110D01*
X165457638Y-104072403D01*
X165457639Y-104072404D01*
X165456883Y-104073996D01*
X165418780Y-104148781D01*
X165413070Y-104166351D01*
X165409647Y-104173568D01*
X165405146Y-104183056D01*
X165405145Y-104183060D01*
X165381953Y-104261953D01*
X165381954Y-104261954D01*
X165381451Y-104263664D01*
X165355523Y-104343466D01*
X165352632Y-104361709D01*
X165350382Y-104369366D01*
X165350380Y-104369378D01*
X165347421Y-104379448D01*
X165347420Y-104379451D01*
X165336857Y-104460999D01*
X165336632Y-104462734D01*
X165323500Y-104545648D01*
X165323500Y-104564125D01*
X165322473Y-104572055D01*
X165322473Y-104572057D01*
X165321126Y-104582454D01*
X165321125Y-104582463D01*
X165323450Y-104664631D01*
X165323500Y-104668137D01*
X165323500Y-108590500D01*
X165303815Y-108657539D01*
X165251011Y-108703294D01*
X165199500Y-108714500D01*
X150796317Y-108714500D01*
X150729278Y-108694815D01*
X150683523Y-108642011D01*
X150673579Y-108572853D01*
X150702604Y-108509297D01*
X150731220Y-108484961D01*
X150860345Y-108405315D01*
X150984315Y-108281345D01*
X151076356Y-108132124D01*
X151076358Y-108132119D01*
X151131505Y-107965697D01*
X151131506Y-107965690D01*
X151141999Y-107862986D01*
X151142000Y-107862973D01*
X151142000Y-107438000D01*
X148842001Y-107438000D01*
X148842001Y-107862986D01*
X148852494Y-107965697D01*
X148907641Y-108132119D01*
X148907643Y-108132124D01*
X148999684Y-108281345D01*
X149123654Y-108405315D01*
X149252780Y-108484961D01*
X149299504Y-108536909D01*
X149310727Y-108605872D01*
X149282883Y-108669954D01*
X149224814Y-108708810D01*
X149187683Y-108714500D01*
X148116500Y-108714500D01*
X148049461Y-108694815D01*
X148003706Y-108642011D01*
X147992500Y-108590500D01*
X147992500Y-108105005D01*
X147998794Y-108066001D01*
X148031999Y-107965797D01*
X148042500Y-107863009D01*
X148042499Y-106512992D01*
X148031999Y-106410203D01*
X147998794Y-106309996D01*
X147992500Y-106270992D01*
X147992500Y-105565005D01*
X147998794Y-105526001D01*
X148031999Y-105425797D01*
X148042500Y-105323009D01*
X148042499Y-103972992D01*
X148031999Y-103870203D01*
X147976814Y-103703666D01*
X147884712Y-103554344D01*
X147760656Y-103430288D01*
X147611334Y-103338186D01*
X147444797Y-103283001D01*
X147444795Y-103283000D01*
X147342010Y-103272500D01*
X146441998Y-103272500D01*
X146441980Y-103272501D01*
X146339203Y-103283000D01*
X146339200Y-103283001D01*
X146172668Y-103338185D01*
X146172663Y-103338187D01*
X146023342Y-103430289D01*
X145899289Y-103554342D01*
X145807187Y-103703663D01*
X145807185Y-103703668D01*
X145795108Y-103740114D01*
X145752001Y-103870203D01*
X145752001Y-103870204D01*
X145752000Y-103870204D01*
X145741500Y-103972983D01*
X145741500Y-105323001D01*
X145741501Y-105323018D01*
X145752000Y-105425796D01*
X145785206Y-105526001D01*
X145791500Y-105565006D01*
X145791500Y-106270993D01*
X145785206Y-106309997D01*
X145752001Y-106410203D01*
X145752000Y-106410204D01*
X145741500Y-106512983D01*
X145741500Y-107863001D01*
X145741501Y-107863018D01*
X145752000Y-107965796D01*
X145752001Y-107965798D01*
X145779683Y-108049336D01*
X145785206Y-108066001D01*
X145785656Y-108068794D01*
X145786477Y-108070071D01*
X145791500Y-108105006D01*
X145791500Y-108271844D01*
X145785431Y-108310163D01*
X145738597Y-108454298D01*
X145738597Y-108454299D01*
X145713954Y-108609897D01*
X145684025Y-108673032D01*
X145624714Y-108709964D01*
X145591481Y-108714500D01*
X138524317Y-108714500D01*
X138457278Y-108694815D01*
X138411523Y-108642011D01*
X138401579Y-108572853D01*
X138430604Y-108509297D01*
X138459220Y-108484961D01*
X138588345Y-108405315D01*
X138712315Y-108281345D01*
X138804356Y-108132124D01*
X138804358Y-108132119D01*
X138859505Y-107965697D01*
X138859506Y-107965690D01*
X138869999Y-107862986D01*
X138870000Y-107862973D01*
X138870000Y-107438000D01*
X136570001Y-107438000D01*
X136570001Y-107862986D01*
X136580494Y-107965697D01*
X136635641Y-108132119D01*
X136635643Y-108132124D01*
X136727684Y-108281345D01*
X136851654Y-108405315D01*
X136980780Y-108484961D01*
X137027504Y-108536909D01*
X137038727Y-108605872D01*
X137010883Y-108669954D01*
X136952814Y-108708810D01*
X136915683Y-108714500D01*
X135844500Y-108714500D01*
X135777461Y-108694815D01*
X135731706Y-108642011D01*
X135720500Y-108590500D01*
X135720500Y-108105005D01*
X135726794Y-108066001D01*
X135759999Y-107965797D01*
X135770500Y-107863009D01*
X135770499Y-107552469D01*
X135773089Y-107530587D01*
X135772640Y-107530516D01*
X135800500Y-107354611D01*
X135800500Y-107181388D01*
X135774027Y-107014240D01*
X135772500Y-106994843D01*
X135772500Y-105565005D01*
X135778794Y-105526001D01*
X135811999Y-105425797D01*
X135822500Y-105323009D01*
X135822499Y-103972992D01*
X135811999Y-103870203D01*
X135756814Y-103703666D01*
X135664712Y-103554344D01*
X135540656Y-103430288D01*
X135391334Y-103338186D01*
X135224797Y-103283001D01*
X135224795Y-103283000D01*
X135122010Y-103272500D01*
X134221998Y-103272500D01*
X134221980Y-103272501D01*
X134119203Y-103283000D01*
X134119200Y-103283001D01*
X133952668Y-103338185D01*
X133952663Y-103338187D01*
X133803342Y-103430289D01*
X133679289Y-103554342D01*
X133587187Y-103703663D01*
X133587185Y-103703668D01*
X133575108Y-103740114D01*
X133532001Y-103870203D01*
X133532001Y-103870204D01*
X133532000Y-103870204D01*
X133521500Y-103972983D01*
X133521500Y-105323001D01*
X133521501Y-105323018D01*
X133532000Y-105425796D01*
X133565206Y-105526001D01*
X133571500Y-105565006D01*
X133571500Y-106149625D01*
X133553039Y-106214721D01*
X133535189Y-106243659D01*
X133535185Y-106243668D01*
X133519500Y-106291003D01*
X133480001Y-106410203D01*
X133480001Y-106410204D01*
X133480000Y-106410204D01*
X133469500Y-106512983D01*
X133469500Y-107863001D01*
X133469501Y-107863018D01*
X133480000Y-107965796D01*
X133480001Y-107965798D01*
X133507683Y-108049336D01*
X133513206Y-108066001D01*
X133519500Y-108105006D01*
X133519500Y-108590500D01*
X133499815Y-108657539D01*
X133447011Y-108703294D01*
X133395500Y-108714500D01*
X126708267Y-108714500D01*
X126641228Y-108694815D01*
X126595473Y-108642011D01*
X126585529Y-108572853D01*
X126614554Y-108509297D01*
X126672373Y-108472139D01*
X126672370Y-108472129D01*
X126672409Y-108472115D01*
X126673332Y-108471523D01*
X126677019Y-108470588D01*
X126678796Y-108469999D01*
X126678797Y-108469999D01*
X126845334Y-108414814D01*
X126994656Y-108322712D01*
X127118712Y-108198656D01*
X127210814Y-108049334D01*
X127265999Y-107882797D01*
X127276500Y-107780009D01*
X127276499Y-106487202D01*
X127296184Y-106420164D01*
X127312813Y-106399527D01*
X130975523Y-102736819D01*
X131036846Y-102703334D01*
X131063204Y-102700500D01*
X139283796Y-102700500D01*
X139350835Y-102720185D01*
X139396590Y-102772989D01*
X139406534Y-102842147D01*
X139377509Y-102905703D01*
X139371477Y-102912181D01*
X138834694Y-103448964D01*
X138773371Y-103482449D01*
X138703679Y-103477465D01*
X138659332Y-103448964D01*
X138640657Y-103430289D01*
X138640656Y-103430288D01*
X138491334Y-103338186D01*
X138324797Y-103283001D01*
X138324795Y-103283000D01*
X138222010Y-103272500D01*
X137321998Y-103272500D01*
X137321980Y-103272501D01*
X137219203Y-103283000D01*
X137219200Y-103283001D01*
X137052668Y-103338185D01*
X137052663Y-103338187D01*
X136903342Y-103430289D01*
X136779289Y-103554342D01*
X136687187Y-103703663D01*
X136687185Y-103703668D01*
X136675108Y-103740114D01*
X136632001Y-103870203D01*
X136632001Y-103870204D01*
X136632000Y-103870204D01*
X136621500Y-103972983D01*
X136621500Y-105323001D01*
X136621501Y-105323018D01*
X136632000Y-105425796D01*
X136632001Y-105425799D01*
X136665205Y-105526001D01*
X136687186Y-105592334D01*
X136766795Y-105721402D01*
X136779289Y-105741657D01*
X136842304Y-105804672D01*
X136875789Y-105865995D01*
X136870805Y-105935687D01*
X136842305Y-105980034D01*
X136727682Y-106094657D01*
X136635643Y-106243875D01*
X136635641Y-106243880D01*
X136580494Y-106410302D01*
X136580493Y-106410309D01*
X136570000Y-106513013D01*
X136570000Y-106938000D01*
X138869999Y-106938000D01*
X138869999Y-106513028D01*
X138869998Y-106513013D01*
X138859505Y-106410302D01*
X138804358Y-106243880D01*
X138804356Y-106243875D01*
X138712315Y-106094654D01*
X138649695Y-106032034D01*
X138645356Y-106024089D01*
X138638108Y-106018663D01*
X138628872Y-105993900D01*
X138616210Y-105970711D01*
X138616855Y-105961680D01*
X138613692Y-105953198D01*
X138619308Y-105927377D01*
X138621194Y-105901019D01*
X138627012Y-105891965D01*
X138628544Y-105884925D01*
X138649689Y-105856678D01*
X138721551Y-105784816D01*
X138782873Y-105751334D01*
X138809230Y-105748500D01*
X139278610Y-105748500D01*
X139278611Y-105748500D01*
X139449701Y-105721402D01*
X139614445Y-105667873D01*
X139768788Y-105589232D01*
X139908928Y-105487414D01*
X148679819Y-96716523D01*
X148741142Y-96683038D01*
X148810834Y-96688022D01*
X148866767Y-96729894D01*
X148891184Y-96795358D01*
X148891500Y-96804204D01*
X148891500Y-103730993D01*
X148885206Y-103769997D01*
X148852001Y-103870203D01*
X148852000Y-103870204D01*
X148841500Y-103972983D01*
X148841500Y-105323001D01*
X148841501Y-105323018D01*
X148852000Y-105425796D01*
X148852001Y-105425799D01*
X148885205Y-105526001D01*
X148907186Y-105592334D01*
X148986795Y-105721402D01*
X148999289Y-105741657D01*
X149088304Y-105830672D01*
X149121789Y-105891995D01*
X149116805Y-105961687D01*
X149088305Y-106006034D01*
X148999682Y-106094657D01*
X148907643Y-106243875D01*
X148907641Y-106243880D01*
X148852494Y-106410302D01*
X148852493Y-106410309D01*
X148842000Y-106513013D01*
X148842000Y-106938000D01*
X151141999Y-106938000D01*
X151141999Y-106513028D01*
X151141998Y-106513013D01*
X151131505Y-106410302D01*
X151076358Y-106243880D01*
X151076356Y-106243875D01*
X150984315Y-106094654D01*
X150895695Y-106006034D01*
X150862210Y-105944711D01*
X150867194Y-105875019D01*
X150895691Y-105830676D01*
X150984712Y-105741656D01*
X151076814Y-105592334D01*
X151131999Y-105425797D01*
X151142500Y-105323009D01*
X151142499Y-103972992D01*
X151131999Y-103870203D01*
X151115876Y-103821546D01*
X151098794Y-103769996D01*
X151092500Y-103730992D01*
X151092500Y-96895203D01*
X151112185Y-96828164D01*
X151128814Y-96807527D01*
X156559654Y-91376686D01*
X156620975Y-91343203D01*
X156690667Y-91348187D01*
X156746600Y-91390059D01*
X156771017Y-91455523D01*
X156765264Y-91502687D01*
X156719523Y-91643461D01*
X156719523Y-91643464D01*
X156687500Y-91845648D01*
X156687500Y-92050351D01*
X156719522Y-92252534D01*
X156782781Y-92447223D01*
X156875715Y-92629613D01*
X156996028Y-92795213D01*
X157140786Y-92939971D01*
X157306385Y-93060284D01*
X157306387Y-93060285D01*
X157306390Y-93060287D01*
X157453757Y-93135374D01*
X157498041Y-93161564D01*
X157653177Y-93206635D01*
X157683466Y-93216477D01*
X157885648Y-93248500D01*
X160071271Y-93248500D01*
X160114604Y-93256318D01*
X160210517Y-93292091D01*
X160210516Y-93292091D01*
X160217444Y-93292835D01*
X160270127Y-93298500D01*
X162065872Y-93298499D01*
X162125483Y-93292091D01*
X162260331Y-93241796D01*
X162375546Y-93155546D01*
X162461796Y-93040331D01*
X162512091Y-92905483D01*
X162518500Y-92845873D01*
X162518499Y-91050128D01*
X162512091Y-90990517D01*
X162506973Y-90976796D01*
X162461797Y-90855671D01*
X162461795Y-90855668D01*
X162411501Y-90788484D01*
X162384421Y-90752309D01*
X162360004Y-90686848D01*
X162374855Y-90618575D01*
X162384416Y-90603696D01*
X162461796Y-90500331D01*
X162512091Y-90365483D01*
X162518500Y-90305873D01*
X162518499Y-88510128D01*
X162512091Y-88450517D01*
X162499227Y-88416028D01*
X162461797Y-88315671D01*
X162461795Y-88315668D01*
X162384421Y-88212309D01*
X162360004Y-88146848D01*
X162374855Y-88078575D01*
X162384416Y-88063696D01*
X162461796Y-87960331D01*
X162512091Y-87825483D01*
X162518500Y-87765873D01*
X162518499Y-85970128D01*
X162512091Y-85910517D01*
X162510387Y-85905949D01*
X162461797Y-85775671D01*
X162461795Y-85775668D01*
X162384421Y-85672309D01*
X162360004Y-85606848D01*
X162374855Y-85538575D01*
X162384416Y-85523696D01*
X162461796Y-85420331D01*
X162512091Y-85285483D01*
X162518500Y-85225873D01*
X162518499Y-83430128D01*
X162512091Y-83370517D01*
X162499227Y-83336028D01*
X162461797Y-83235671D01*
X162461795Y-83235668D01*
X162436488Y-83201862D01*
X162384421Y-83132309D01*
X162360004Y-83066848D01*
X162374855Y-82998575D01*
X162384416Y-82983696D01*
X162461796Y-82880331D01*
X162512091Y-82745483D01*
X162518500Y-82685873D01*
X162518499Y-81551986D01*
X167248001Y-81551986D01*
X167258494Y-81654697D01*
X167313641Y-81821119D01*
X167313643Y-81821124D01*
X167405684Y-81970345D01*
X167529654Y-82094315D01*
X167678875Y-82186356D01*
X167678880Y-82186358D01*
X167845302Y-82241505D01*
X167845309Y-82241506D01*
X167948019Y-82251999D01*
X168297999Y-82251999D01*
X168798000Y-82251999D01*
X169147972Y-82251999D01*
X169147986Y-82251998D01*
X169250697Y-82241505D01*
X169417119Y-82186358D01*
X169417124Y-82186356D01*
X169566345Y-82094315D01*
X169690315Y-81970345D01*
X169782356Y-81821124D01*
X169782358Y-81821119D01*
X169837505Y-81654697D01*
X169837506Y-81654690D01*
X169847999Y-81551986D01*
X169848000Y-81551973D01*
X169848000Y-80502000D01*
X168798000Y-80502000D01*
X168798000Y-82251999D01*
X168297999Y-82251999D01*
X168298000Y-82251998D01*
X168298000Y-80502000D01*
X167248001Y-80502000D01*
X167248001Y-81551986D01*
X162518499Y-81551986D01*
X162518499Y-80890128D01*
X162512091Y-80830517D01*
X162499227Y-80796028D01*
X162461797Y-80695671D01*
X162461795Y-80695668D01*
X162384109Y-80591893D01*
X162359692Y-80526430D01*
X162374543Y-80458157D01*
X162384110Y-80443271D01*
X162461352Y-80340089D01*
X162461354Y-80340086D01*
X162511596Y-80205379D01*
X162511598Y-80205372D01*
X162517999Y-80145844D01*
X162518000Y-80145827D01*
X162518000Y-80076986D01*
X163084001Y-80076986D01*
X163094494Y-80179697D01*
X163149641Y-80346119D01*
X163149643Y-80346124D01*
X163241684Y-80495345D01*
X163365654Y-80619315D01*
X163514875Y-80711356D01*
X163514880Y-80711358D01*
X163681302Y-80766505D01*
X163681309Y-80766506D01*
X163784019Y-80776999D01*
X164233999Y-80776999D01*
X164734000Y-80776999D01*
X165183972Y-80776999D01*
X165183986Y-80776998D01*
X165286697Y-80766505D01*
X165453119Y-80711358D01*
X165453124Y-80711356D01*
X165602345Y-80619315D01*
X165726316Y-80495344D01*
X165726319Y-80495340D01*
X165794045Y-80385541D01*
X165818354Y-80346128D01*
X165818358Y-80346119D01*
X165873505Y-80179697D01*
X165873506Y-80179690D01*
X165883999Y-80076986D01*
X165884000Y-80076973D01*
X165884000Y-79864500D01*
X164734000Y-79864500D01*
X164734000Y-80776999D01*
X164233999Y-80776999D01*
X164234000Y-80776998D01*
X164234000Y-79864500D01*
X163084001Y-79864500D01*
X163084001Y-80076986D01*
X162518000Y-80076986D01*
X162518000Y-79498000D01*
X161601012Y-79498000D01*
X161633925Y-79440993D01*
X161668000Y-79313826D01*
X161668000Y-79182174D01*
X161659918Y-79152013D01*
X163084000Y-79152013D01*
X163084000Y-79364500D01*
X164234000Y-79364500D01*
X164734000Y-79364500D01*
X165883999Y-79364500D01*
X165883999Y-79152028D01*
X165883998Y-79152013D01*
X165873506Y-79049304D01*
X165853148Y-78987869D01*
X165853147Y-78987867D01*
X165841266Y-78952013D01*
X167248000Y-78952013D01*
X167248000Y-80002000D01*
X168298000Y-80002000D01*
X168798000Y-80002000D01*
X169847999Y-80002000D01*
X169847999Y-78952028D01*
X169847998Y-78952013D01*
X169837505Y-78849302D01*
X169782358Y-78682880D01*
X169782356Y-78682875D01*
X169690315Y-78533654D01*
X169566345Y-78409684D01*
X169417124Y-78317643D01*
X169417119Y-78317641D01*
X169250697Y-78262494D01*
X169250690Y-78262493D01*
X169147986Y-78252000D01*
X168798000Y-78252000D01*
X168798000Y-80002000D01*
X168298000Y-80002000D01*
X168298000Y-78252000D01*
X167948028Y-78252000D01*
X167948012Y-78252001D01*
X167845302Y-78262494D01*
X167678880Y-78317641D01*
X167678875Y-78317643D01*
X167529654Y-78409684D01*
X167405684Y-78533654D01*
X167313643Y-78682875D01*
X167313641Y-78682880D01*
X167258494Y-78849302D01*
X167258493Y-78849309D01*
X167248000Y-78952013D01*
X165841266Y-78952013D01*
X165818358Y-78882880D01*
X165818356Y-78882875D01*
X165726315Y-78733654D01*
X165602345Y-78609684D01*
X165453124Y-78517643D01*
X165453119Y-78517641D01*
X165286697Y-78462494D01*
X165286690Y-78462493D01*
X165183986Y-78452000D01*
X164734000Y-78452000D01*
X164734000Y-79364500D01*
X164234000Y-79364500D01*
X164234000Y-78452000D01*
X163784028Y-78452000D01*
X163784012Y-78452001D01*
X163681302Y-78462494D01*
X163514880Y-78517641D01*
X163514875Y-78517643D01*
X163365654Y-78609684D01*
X163241684Y-78733654D01*
X163149643Y-78882875D01*
X163149641Y-78882880D01*
X163094494Y-79049302D01*
X163094493Y-79049309D01*
X163084000Y-79152013D01*
X161659918Y-79152013D01*
X161633925Y-79055007D01*
X161601012Y-78998000D01*
X162518000Y-78998000D01*
X162518000Y-78350172D01*
X162517999Y-78350155D01*
X162511598Y-78290627D01*
X162511596Y-78290620D01*
X162461354Y-78155913D01*
X162461352Y-78155910D01*
X162384110Y-78052729D01*
X162359692Y-77987265D01*
X162374543Y-77918992D01*
X162384105Y-77904111D01*
X162461796Y-77800331D01*
X162499230Y-77699965D01*
X162510158Y-77670667D01*
X162552029Y-77614733D01*
X162617493Y-77590316D01*
X162626340Y-77590000D01*
X163504271Y-77590000D01*
X163543274Y-77596293D01*
X163681203Y-77641999D01*
X163783991Y-77652500D01*
X165184008Y-77652499D01*
X165286797Y-77641999D01*
X165424725Y-77596293D01*
X165463729Y-77590000D01*
X167373270Y-77590000D01*
X167440309Y-77609685D01*
X167460951Y-77626319D01*
X167529344Y-77694712D01*
X167678666Y-77786814D01*
X167845203Y-77841999D01*
X167947991Y-77852500D01*
X169148008Y-77852499D01*
X169250797Y-77841999D01*
X169417334Y-77786814D01*
X169566656Y-77694712D01*
X169690712Y-77570656D01*
X169782814Y-77421334D01*
X169798274Y-77374678D01*
X169838045Y-77317235D01*
X169902560Y-77290411D01*
X169971336Y-77302726D01*
X170003660Y-77326002D01*
X170123011Y-77445353D01*
X170156496Y-77506676D01*
X170159330Y-77533034D01*
X170159330Y-82589633D01*
X170139645Y-82656672D01*
X170123012Y-82677314D01*
X170017117Y-82783209D01*
X169925017Y-82932527D01*
X169925015Y-82932532D01*
X169903131Y-82998575D01*
X169869831Y-83099067D01*
X169869831Y-83099068D01*
X169869830Y-83099068D01*
X169859330Y-83201847D01*
X169859330Y-86301865D01*
X169859331Y-86301882D01*
X169869830Y-86404660D01*
X169869831Y-86404663D01*
X169922454Y-86563466D01*
X169925016Y-86571198D01*
X170017118Y-86720520D01*
X170141174Y-86844576D01*
X170290496Y-86936678D01*
X170457033Y-86991863D01*
X170559821Y-87002364D01*
X171959838Y-87002363D01*
X172062627Y-86991863D01*
X172229164Y-86936678D01*
X172378486Y-86844576D01*
X172502542Y-86720520D01*
X172594644Y-86571198D01*
X172649829Y-86404661D01*
X172660330Y-86301873D01*
X172660329Y-83201856D01*
X172651704Y-83117427D01*
X172649829Y-83099067D01*
X172649828Y-83099064D01*
X172622796Y-83017488D01*
X172594644Y-82932530D01*
X172502542Y-82783208D01*
X172396648Y-82677314D01*
X172363164Y-82615991D01*
X172360330Y-82589633D01*
X172360330Y-76939219D01*
X172339919Y-76810351D01*
X172333232Y-76768129D01*
X172281410Y-76608639D01*
X172279703Y-76603384D01*
X172201062Y-76449042D01*
X172099244Y-76308902D01*
X170802928Y-75012586D01*
X170662788Y-74910768D01*
X170508445Y-74832127D01*
X170343701Y-74778598D01*
X170343699Y-74778597D01*
X170343698Y-74778597D01*
X170212271Y-74757781D01*
X170172611Y-74751500D01*
X170172610Y-74751500D01*
X169972499Y-74751500D01*
X169905460Y-74731815D01*
X169859705Y-74679011D01*
X169848499Y-74627500D01*
X169848499Y-74551998D01*
X169848498Y-74551981D01*
X169837999Y-74449203D01*
X169837998Y-74449200D01*
X169782814Y-74282666D01*
X169690712Y-74133344D01*
X169566656Y-74009288D01*
X169417334Y-73917186D01*
X169250797Y-73862001D01*
X169250795Y-73862000D01*
X169148010Y-73851500D01*
X167947998Y-73851500D01*
X167947981Y-73851501D01*
X167845203Y-73862000D01*
X167845200Y-73862001D01*
X167678668Y-73917185D01*
X167678663Y-73917187D01*
X167529342Y-74009289D01*
X167405289Y-74133342D01*
X167313187Y-74282663D01*
X167313185Y-74282668D01*
X167307792Y-74298944D01*
X167258001Y-74449203D01*
X167258001Y-74449204D01*
X167258000Y-74449204D01*
X167247500Y-74551983D01*
X167247500Y-75265000D01*
X167227815Y-75332039D01*
X167175011Y-75377794D01*
X167123500Y-75389000D01*
X165463729Y-75389000D01*
X165424725Y-75382706D01*
X165409902Y-75377794D01*
X165286797Y-75337001D01*
X165286795Y-75337000D01*
X165184010Y-75326500D01*
X163783998Y-75326500D01*
X163783981Y-75326501D01*
X163681203Y-75337000D01*
X163681200Y-75337001D01*
X163543275Y-75382706D01*
X163504271Y-75389000D01*
X162215128Y-75389000D01*
X162171795Y-75381182D01*
X162125482Y-75363908D01*
X162125483Y-75363908D01*
X162065883Y-75357501D01*
X162065881Y-75357500D01*
X162065873Y-75357500D01*
X162065864Y-75357500D01*
X160270129Y-75357500D01*
X160270123Y-75357501D01*
X160210516Y-75363908D01*
X160114604Y-75399682D01*
X160071271Y-75407500D01*
X158720648Y-75407500D01*
X158678334Y-75414202D01*
X158518469Y-75439522D01*
X158513731Y-75440660D01*
X158513630Y-75440242D01*
X158480432Y-75445500D01*
X157693458Y-75445500D01*
X157656453Y-75448412D01*
X157656447Y-75448413D01*
X157498045Y-75494434D01*
X157498042Y-75494435D01*
X157356056Y-75578405D01*
X157356046Y-75578413D01*
X157259854Y-75674604D01*
X157245061Y-75687239D01*
X157165536Y-75745018D01*
X157025021Y-75885533D01*
X156908213Y-76046305D01*
X156817994Y-76223367D01*
X156817993Y-76223370D01*
X156756587Y-76412362D01*
X156725500Y-76608639D01*
X156725500Y-76807360D01*
X156756587Y-77003637D01*
X156817993Y-77192629D01*
X156817994Y-77192632D01*
X156908213Y-77369694D01*
X157025019Y-77530464D01*
X157025021Y-77530466D01*
X157165539Y-77670984D01*
X157245060Y-77728758D01*
X157251786Y-77734007D01*
X157255979Y-77737518D01*
X157356053Y-77837592D01*
X157422208Y-77876716D01*
X157429975Y-77883220D01*
X157443962Y-77904197D01*
X157461170Y-77922627D01*
X157463015Y-77932773D01*
X157468736Y-77941353D01*
X157469161Y-77966564D01*
X157473673Y-77991369D01*
X157469740Y-78000900D01*
X157469915Y-78011212D01*
X157456643Y-78032649D01*
X157447028Y-78055958D01*
X157436643Y-78064956D01*
X157433137Y-78070620D01*
X157426391Y-78073838D01*
X157413487Y-78085021D01*
X157356370Y-78118800D01*
X157356357Y-78118810D01*
X157284360Y-78190806D01*
X157284360Y-78190807D01*
X157903905Y-78810352D01*
X157816429Y-78833792D01*
X157715070Y-78892311D01*
X157632311Y-78975070D01*
X157573792Y-79076429D01*
X157550352Y-79163905D01*
X156935730Y-78549282D01*
X156935729Y-78549283D01*
X156908643Y-78586564D01*
X156818457Y-78763562D01*
X156757075Y-78952476D01*
X156757075Y-78952479D01*
X156726000Y-79148678D01*
X156726000Y-79347321D01*
X156757075Y-79543520D01*
X156757075Y-79543523D01*
X156818457Y-79732437D01*
X156908641Y-79909432D01*
X156935730Y-79946715D01*
X156935731Y-79946716D01*
X157550352Y-79332094D01*
X157573792Y-79419571D01*
X157632311Y-79520930D01*
X157715070Y-79603689D01*
X157816429Y-79662208D01*
X157903904Y-79685647D01*
X157284360Y-80305191D01*
X157356360Y-80377192D01*
X157356365Y-80377196D01*
X157410241Y-80409058D01*
X157416175Y-80415413D01*
X157424233Y-80418684D01*
X157439656Y-80440562D01*
X157457924Y-80460127D01*
X157459480Y-80468682D01*
X157464491Y-80475790D01*
X157465638Y-80502536D01*
X157470428Y-80528869D01*
X157467112Y-80536906D01*
X157467485Y-80545596D01*
X157453990Y-80568715D01*
X157443783Y-80593458D01*
X157435723Y-80600010D01*
X157432263Y-80605938D01*
X157403416Y-80626274D01*
X157309783Y-80673984D01*
X157253487Y-80687500D01*
X157139389Y-80687500D01*
X157099728Y-80693781D01*
X156968302Y-80714597D01*
X156803552Y-80768128D01*
X156649211Y-80846768D01*
X156589539Y-80890123D01*
X156509072Y-80948586D01*
X156509070Y-80948588D01*
X156509069Y-80948588D01*
X142530477Y-94927181D01*
X142469154Y-94960666D01*
X142442796Y-94963500D01*
X132743007Y-94963500D01*
X132704003Y-94957206D01*
X132702028Y-94956551D01*
X132603797Y-94924001D01*
X132603795Y-94924000D01*
X132501016Y-94913500D01*
X132501009Y-94913500D01*
X132141782Y-94913500D01*
X132112341Y-94904855D01*
X132082355Y-94898332D01*
X132077339Y-94894577D01*
X132074743Y-94893815D01*
X132054101Y-94877181D01*
X132050209Y-94873289D01*
X132050207Y-94873286D01*
X132050206Y-94873285D01*
X132050206Y-94873286D01*
X132043139Y-94866219D01*
X132043139Y-94866218D01*
X131903782Y-94726861D01*
X131903781Y-94726860D01*
X131903780Y-94726859D01*
X131739920Y-94617371D01*
X131739911Y-94617366D01*
X131618710Y-94567163D01*
X131618708Y-94567162D01*
X131611165Y-94564038D01*
X131557836Y-94541949D01*
X131430961Y-94516712D01*
X131427014Y-94515926D01*
X131427007Y-94515925D01*
X131364543Y-94503500D01*
X131364541Y-94503500D01*
X128976200Y-94503500D01*
X128909161Y-94483815D01*
X128896634Y-94474506D01*
X128723820Y-94348951D01*
X128723115Y-94348591D01*
X128715054Y-94344485D01*
X128664259Y-94296512D01*
X128647463Y-94228692D01*
X128669999Y-94162556D01*
X128715054Y-94123515D01*
X128723816Y-94119051D01*
X128744535Y-94103998D01*
X128899734Y-93991241D01*
X128900364Y-93992108D01*
X128959419Y-93965641D01*
X128976200Y-93964500D01*
X130709804Y-93964500D01*
X130774900Y-93982961D01*
X130881659Y-94048810D01*
X130881660Y-94048810D01*
X130881666Y-94048814D01*
X131048203Y-94103999D01*
X131150991Y-94114500D01*
X132501008Y-94114499D01*
X132603797Y-94103999D01*
X132770334Y-94048814D01*
X132877100Y-93982961D01*
X132942196Y-93964500D01*
X133194542Y-93964500D01*
X133225566Y-93958328D01*
X133291188Y-93945275D01*
X133387836Y-93926051D01*
X133441165Y-93903961D01*
X133569914Y-93850632D01*
X133733782Y-93741139D01*
X133873139Y-93601782D01*
X133873139Y-93601780D01*
X133883347Y-93591573D01*
X133883348Y-93591570D01*
X137030102Y-90444819D01*
X137091425Y-90411334D01*
X137117783Y-90408500D01*
X138163859Y-90408500D01*
X138230898Y-90428185D01*
X138266558Y-90463009D01*
X138274859Y-90475277D01*
X138284204Y-90500331D01*
X138363353Y-90606061D01*
X138365010Y-90608509D01*
X138374777Y-90639078D01*
X138385995Y-90669153D01*
X138385343Y-90672146D01*
X138386276Y-90675064D01*
X138377966Y-90706063D01*
X138371144Y-90737426D01*
X138368424Y-90741657D01*
X138368185Y-90742551D01*
X138367380Y-90743282D01*
X138361578Y-90752311D01*
X138284203Y-90855669D01*
X138284202Y-90855671D01*
X138233908Y-90990517D01*
X138227501Y-91050116D01*
X138227501Y-91050123D01*
X138227500Y-91050135D01*
X138227500Y-92845870D01*
X138227501Y-92845876D01*
X138233908Y-92905483D01*
X138284202Y-93040328D01*
X138284206Y-93040335D01*
X138370452Y-93155544D01*
X138370455Y-93155547D01*
X138485664Y-93241793D01*
X138485671Y-93241797D01*
X138620517Y-93292091D01*
X138620516Y-93292091D01*
X138627444Y-93292835D01*
X138680127Y-93298500D01*
X140475872Y-93298499D01*
X140535483Y-93292091D01*
X140631396Y-93256318D01*
X140674729Y-93248500D01*
X142850351Y-93248500D01*
X142850352Y-93248500D01*
X143052534Y-93216477D01*
X143082822Y-93206635D01*
X143237959Y-93161564D01*
X143282242Y-93135374D01*
X143429610Y-93060287D01*
X143595219Y-92939966D01*
X143739966Y-92795219D01*
X143739968Y-92795215D01*
X143739971Y-92795213D01*
X143841590Y-92655344D01*
X143860287Y-92629610D01*
X143953220Y-92447219D01*
X144016477Y-92252534D01*
X144048500Y-92050352D01*
X144048500Y-91845648D01*
X144042687Y-91808949D01*
X144016477Y-91643465D01*
X143972725Y-91508812D01*
X143953220Y-91448781D01*
X143953218Y-91448778D01*
X143953218Y-91448776D01*
X143916487Y-91376688D01*
X143860287Y-91266390D01*
X143852556Y-91255749D01*
X143739971Y-91100786D01*
X143595213Y-90956028D01*
X143429613Y-90835715D01*
X143429612Y-90835714D01*
X143429610Y-90835713D01*
X143336917Y-90788483D01*
X143286122Y-90740509D01*
X143269327Y-90672688D01*
X143291864Y-90606553D01*
X143336916Y-90567516D01*
X143429610Y-90520287D01*
X143595219Y-90399966D01*
X143739966Y-90255219D01*
X143739968Y-90255215D01*
X143739971Y-90255213D01*
X143792732Y-90182590D01*
X143860287Y-90089610D01*
X143953220Y-89907219D01*
X144016477Y-89712534D01*
X144048500Y-89510352D01*
X144048500Y-89305648D01*
X144016477Y-89103466D01*
X144006740Y-89073500D01*
X143953218Y-88908776D01*
X143919503Y-88842607D01*
X143860287Y-88726390D01*
X143852556Y-88715749D01*
X143739971Y-88560786D01*
X143595213Y-88416028D01*
X143429613Y-88295715D01*
X143429612Y-88295714D01*
X143429610Y-88295713D01*
X143336917Y-88248483D01*
X143286122Y-88200509D01*
X143269327Y-88132688D01*
X143291864Y-88066553D01*
X143336916Y-88027516D01*
X143429610Y-87980287D01*
X143595219Y-87859966D01*
X143739966Y-87715219D01*
X143739968Y-87715215D01*
X143739971Y-87715213D01*
X143847616Y-87567050D01*
X143860287Y-87549610D01*
X143953220Y-87367219D01*
X144016477Y-87172534D01*
X144048500Y-86970352D01*
X144048500Y-86765648D01*
X144016477Y-86563465D01*
X143953218Y-86368776D01*
X143919125Y-86301865D01*
X143860287Y-86186390D01*
X143852556Y-86175749D01*
X143739971Y-86020786D01*
X143595213Y-85876028D01*
X143429613Y-85755715D01*
X143429612Y-85755714D01*
X143429610Y-85755713D01*
X143336917Y-85708483D01*
X143286122Y-85660509D01*
X143269327Y-85592688D01*
X143291864Y-85526553D01*
X143336916Y-85487516D01*
X143429610Y-85440287D01*
X143595219Y-85319966D01*
X143739966Y-85175219D01*
X143739968Y-85175215D01*
X143739971Y-85175213D01*
X143815280Y-85071557D01*
X143860287Y-85009610D01*
X143953220Y-84827219D01*
X144016477Y-84632534D01*
X144048500Y-84430352D01*
X144048500Y-84225648D01*
X144032877Y-84127007D01*
X144016477Y-84023465D01*
X143953218Y-83828776D01*
X143915206Y-83754174D01*
X143860287Y-83646390D01*
X143804787Y-83570000D01*
X143739971Y-83480786D01*
X143595213Y-83336028D01*
X143429613Y-83215715D01*
X143429612Y-83215714D01*
X143429610Y-83215713D01*
X143336917Y-83168483D01*
X143286122Y-83120509D01*
X143269327Y-83052688D01*
X143291864Y-82986553D01*
X143336916Y-82947516D01*
X143429610Y-82900287D01*
X143595219Y-82779966D01*
X143739966Y-82635219D01*
X143739968Y-82635215D01*
X143739971Y-82635213D01*
X143818849Y-82526645D01*
X143860287Y-82469610D01*
X143953220Y-82287219D01*
X144016477Y-82092534D01*
X144048500Y-81890352D01*
X144048500Y-81685648D01*
X144016477Y-81483466D01*
X143953220Y-81288781D01*
X143953218Y-81288778D01*
X143953218Y-81288776D01*
X143919503Y-81222607D01*
X143860287Y-81106390D01*
X143852556Y-81095749D01*
X143739971Y-80940786D01*
X143595213Y-80796028D01*
X143429613Y-80675715D01*
X143429612Y-80675714D01*
X143429610Y-80675713D01*
X143336917Y-80628483D01*
X143286122Y-80580509D01*
X143269327Y-80512688D01*
X143291864Y-80446553D01*
X143336916Y-80407516D01*
X143429610Y-80360287D01*
X143595219Y-80239966D01*
X143739966Y-80095219D01*
X143739968Y-80095215D01*
X143739971Y-80095213D01*
X143807693Y-80002000D01*
X143860287Y-79929610D01*
X143953220Y-79747219D01*
X144016477Y-79552534D01*
X144048500Y-79350352D01*
X144048500Y-79145648D01*
X144026889Y-79009206D01*
X144016477Y-78943465D01*
X143964038Y-78782075D01*
X143953220Y-78748781D01*
X143953218Y-78748778D01*
X143953218Y-78748776D01*
X143882346Y-78609684D01*
X143860287Y-78566390D01*
X143824869Y-78517641D01*
X143739971Y-78400786D01*
X143595213Y-78256028D01*
X143429613Y-78135715D01*
X143429612Y-78135714D01*
X143429610Y-78135713D01*
X143336917Y-78088483D01*
X143286122Y-78040509D01*
X143269327Y-77972688D01*
X143291864Y-77906553D01*
X143336916Y-77867516D01*
X143429610Y-77820287D01*
X143595219Y-77699966D01*
X143739966Y-77555219D01*
X143739968Y-77555215D01*
X143739971Y-77555213D01*
X143793401Y-77481672D01*
X143860287Y-77389610D01*
X143953220Y-77207219D01*
X144016477Y-77012534D01*
X144048500Y-76810352D01*
X144048500Y-76605648D01*
X144023696Y-76449042D01*
X144016477Y-76403465D01*
X143957960Y-76223370D01*
X143953220Y-76208781D01*
X143953218Y-76208778D01*
X143953218Y-76208776D01*
X143919503Y-76142607D01*
X143860287Y-76026390D01*
X143852556Y-76015749D01*
X143739971Y-75860786D01*
X143595213Y-75716028D01*
X143429613Y-75595715D01*
X143429612Y-75595714D01*
X143429610Y-75595713D01*
X143354271Y-75557325D01*
X143292464Y-75525833D01*
X143292461Y-75525832D01*
X143282242Y-75520625D01*
X143237959Y-75494436D01*
X143082822Y-75449364D01*
X143078919Y-75448096D01*
X143078903Y-75448090D01*
X143052535Y-75439523D01*
X142892691Y-75414206D01*
X142850352Y-75407500D01*
X142850351Y-75407500D01*
X140674729Y-75407500D01*
X140631396Y-75399682D01*
X140535482Y-75363908D01*
X140535483Y-75363908D01*
X140475883Y-75357501D01*
X140475881Y-75357500D01*
X140475873Y-75357500D01*
X140475864Y-75357500D01*
X138680129Y-75357500D01*
X138680123Y-75357501D01*
X138620516Y-75363908D01*
X138485671Y-75414202D01*
X138485664Y-75414206D01*
X138370455Y-75500452D01*
X138370452Y-75500455D01*
X138284206Y-75615664D01*
X138284202Y-75615671D01*
X138233908Y-75750517D01*
X138227501Y-75810116D01*
X138227500Y-75810135D01*
X138227500Y-77605870D01*
X138227501Y-77605876D01*
X138233908Y-77665483D01*
X138284202Y-77800328D01*
X138284203Y-77800330D01*
X138361578Y-77903689D01*
X138385995Y-77969153D01*
X138371144Y-78037426D01*
X138361578Y-78052311D01*
X138284203Y-78155669D01*
X138284202Y-78155671D01*
X138233908Y-78290517D01*
X138227501Y-78350116D01*
X138227500Y-78350135D01*
X138227500Y-80145870D01*
X138227501Y-80145876D01*
X138233908Y-80205483D01*
X138284202Y-80340328D01*
X138284204Y-80340331D01*
X138361577Y-80443688D01*
X138370812Y-80468447D01*
X138383477Y-80491640D01*
X138382831Y-80500669D01*
X138385995Y-80509152D01*
X138380377Y-80534974D01*
X138378493Y-80561332D01*
X138372096Y-80573047D01*
X138371144Y-80577425D01*
X138361579Y-80592309D01*
X138327515Y-80637811D01*
X138271585Y-80679681D01*
X138228250Y-80687500D01*
X136738611Y-80687500D01*
X136565389Y-80687500D01*
X136525728Y-80693781D01*
X136394302Y-80714597D01*
X136229552Y-80768128D01*
X136075211Y-80846768D01*
X136015539Y-80890123D01*
X135935072Y-80948586D01*
X135935070Y-80948588D01*
X135935069Y-80948588D01*
X134200477Y-82683181D01*
X134139154Y-82716666D01*
X134112796Y-82719500D01*
X131887190Y-82719500D01*
X131820151Y-82699815D01*
X131814306Y-82695819D01*
X131771816Y-82664949D01*
X131771814Y-82664948D01*
X131582414Y-82568444D01*
X131582413Y-82568443D01*
X131582412Y-82568443D01*
X131380243Y-82502754D01*
X131380241Y-82502753D01*
X131380240Y-82502753D01*
X131218957Y-82477208D01*
X131170287Y-82469500D01*
X130957713Y-82469500D01*
X130909042Y-82477208D01*
X130747760Y-82502753D01*
X130545585Y-82568444D01*
X130356179Y-82664951D01*
X130184213Y-82789890D01*
X130033890Y-82940213D01*
X129908949Y-83112182D01*
X129904484Y-83120946D01*
X129856509Y-83171742D01*
X129788688Y-83188536D01*
X129722553Y-83165998D01*
X129683516Y-83120946D01*
X129679050Y-83112182D01*
X129554109Y-82940213D01*
X129403786Y-82789890D01*
X129231820Y-82664951D01*
X129042414Y-82568444D01*
X129042413Y-82568443D01*
X129042412Y-82568443D01*
X128840243Y-82502754D01*
X128840241Y-82502753D01*
X128840240Y-82502753D01*
X128678957Y-82477208D01*
X128630287Y-82469500D01*
X128417713Y-82469500D01*
X128369042Y-82477208D01*
X128207760Y-82502753D01*
X128005585Y-82568444D01*
X127816179Y-82664951D01*
X127644215Y-82789889D01*
X127530285Y-82903819D01*
X127468962Y-82937303D01*
X127399270Y-82932319D01*
X127343337Y-82890447D01*
X127326422Y-82859470D01*
X127277354Y-82727913D01*
X127277350Y-82727906D01*
X127191190Y-82612812D01*
X127191187Y-82612809D01*
X127076093Y-82526649D01*
X127076086Y-82526645D01*
X126941379Y-82476403D01*
X126941372Y-82476401D01*
X126881844Y-82470000D01*
X126234000Y-82470000D01*
X126234000Y-83386988D01*
X126176993Y-83354075D01*
X126049826Y-83320000D01*
X125918174Y-83320000D01*
X125791007Y-83354075D01*
X125734000Y-83386988D01*
X125734000Y-82470000D01*
X125086155Y-82470000D01*
X125026627Y-82476401D01*
X125026620Y-82476403D01*
X124891913Y-82526645D01*
X124891906Y-82526649D01*
X124776812Y-82612809D01*
X124776809Y-82612812D01*
X124690649Y-82727906D01*
X124690645Y-82727913D01*
X124640403Y-82862620D01*
X124640401Y-82862627D01*
X124634000Y-82922155D01*
X124634000Y-83570000D01*
X125550988Y-83570000D01*
X125518075Y-83627007D01*
X125484000Y-83754174D01*
X125484000Y-83885826D01*
X125518075Y-84012993D01*
X125550988Y-84070000D01*
X124634000Y-84070000D01*
X124634000Y-84717844D01*
X124640401Y-84777372D01*
X124640403Y-84777379D01*
X124690645Y-84912086D01*
X124690649Y-84912093D01*
X124776809Y-85027187D01*
X124776812Y-85027190D01*
X124891906Y-85113350D01*
X124891913Y-85113354D01*
X125026620Y-85163596D01*
X125026627Y-85163598D01*
X125086155Y-85169999D01*
X125086172Y-85170000D01*
X125734000Y-85170000D01*
X125734000Y-84253012D01*
X125791007Y-84285925D01*
X125918174Y-84320000D01*
X126049826Y-84320000D01*
X126176993Y-84285925D01*
X126234000Y-84253012D01*
X126234000Y-85170000D01*
X126881828Y-85170000D01*
X126881844Y-85169999D01*
X126941372Y-85163598D01*
X126941379Y-85163596D01*
X127076086Y-85113354D01*
X127076093Y-85113350D01*
X127191187Y-85027190D01*
X127191190Y-85027187D01*
X127277350Y-84912093D01*
X127277354Y-84912086D01*
X127326422Y-84780529D01*
X127368293Y-84724595D01*
X127433757Y-84700178D01*
X127502030Y-84715030D01*
X127530285Y-84736181D01*
X127644213Y-84850109D01*
X127816179Y-84975048D01*
X127816181Y-84975049D01*
X127816184Y-84975051D01*
X128005588Y-85071557D01*
X128207757Y-85137246D01*
X128417713Y-85170500D01*
X128417714Y-85170500D01*
X128630286Y-85170500D01*
X128630287Y-85170500D01*
X128840243Y-85137246D01*
X129042412Y-85071557D01*
X129231816Y-84975051D01*
X129318471Y-84912093D01*
X129403786Y-84850109D01*
X129403788Y-84850106D01*
X129403792Y-84850104D01*
X129554104Y-84699792D01*
X129554106Y-84699788D01*
X129554109Y-84699786D01*
X129679048Y-84527820D01*
X129679047Y-84527820D01*
X129679051Y-84527816D01*
X129683514Y-84519054D01*
X129731488Y-84468259D01*
X129799308Y-84451463D01*
X129865444Y-84473999D01*
X129904486Y-84519056D01*
X129908951Y-84527820D01*
X130033890Y-84699786D01*
X130184213Y-84850109D01*
X130356179Y-84975048D01*
X130356181Y-84975049D01*
X130356184Y-84975051D01*
X130545588Y-85071557D01*
X130747757Y-85137246D01*
X130957713Y-85170500D01*
X130957714Y-85170500D01*
X131170286Y-85170500D01*
X131170287Y-85170500D01*
X131380243Y-85137246D01*
X131582412Y-85071557D01*
X131771816Y-84975051D01*
X131802493Y-84952762D01*
X131814306Y-84944181D01*
X131880113Y-84920702D01*
X131887190Y-84920500D01*
X134706610Y-84920500D01*
X134706611Y-84920500D01*
X134877701Y-84893402D01*
X135042445Y-84839873D01*
X135196788Y-84761232D01*
X135336928Y-84659414D01*
X137071523Y-82924819D01*
X137132846Y-82891334D01*
X137159204Y-82888500D01*
X138228250Y-82888500D01*
X138232632Y-82889786D01*
X138237096Y-82888816D01*
X138265848Y-82899540D01*
X138295289Y-82908185D01*
X138299475Y-82912082D01*
X138302560Y-82913233D01*
X138327514Y-82938186D01*
X138355353Y-82975374D01*
X138361578Y-82983689D01*
X138385995Y-83049154D01*
X138371143Y-83117427D01*
X138361578Y-83132311D01*
X138284203Y-83235669D01*
X138284202Y-83235671D01*
X138233908Y-83370517D01*
X138228599Y-83419901D01*
X138227501Y-83430123D01*
X138227500Y-83430135D01*
X138227500Y-85225870D01*
X138227501Y-85225876D01*
X138233908Y-85285483D01*
X138284202Y-85420328D01*
X138284203Y-85420330D01*
X138361578Y-85523689D01*
X138369814Y-85545770D01*
X138382082Y-85565892D01*
X138381797Y-85577899D01*
X138385995Y-85589153D01*
X138380985Y-85612180D01*
X138380428Y-85635742D01*
X138372526Y-85651071D01*
X138371144Y-85657426D01*
X138365010Y-85667491D01*
X138363353Y-85669938D01*
X138284204Y-85775669D01*
X138274859Y-85800722D01*
X138266558Y-85812991D01*
X138250584Y-85826182D01*
X138238171Y-85842766D01*
X138224189Y-85847981D01*
X138212685Y-85857482D01*
X138192117Y-85859943D01*
X138172707Y-85867184D01*
X138163859Y-85867500D01*
X136807456Y-85867500D01*
X136614171Y-85905947D01*
X136614163Y-85905949D01*
X136563903Y-85926768D01*
X136563902Y-85926768D01*
X136432088Y-85981366D01*
X136361419Y-86028586D01*
X136268217Y-86090860D01*
X136268214Y-86090863D01*
X132971899Y-89387181D01*
X132910576Y-89420666D01*
X132884218Y-89423500D01*
X128976200Y-89423500D01*
X128909161Y-89403815D01*
X128896634Y-89394506D01*
X128723820Y-89268951D01*
X128534414Y-89172444D01*
X128534413Y-89172443D01*
X128534412Y-89172443D01*
X128332243Y-89106754D01*
X128332241Y-89106753D01*
X128332240Y-89106753D01*
X128170957Y-89081208D01*
X128122287Y-89073500D01*
X127909713Y-89073500D01*
X127861042Y-89081208D01*
X127699760Y-89106753D01*
X127497585Y-89172444D01*
X127308179Y-89268951D01*
X127132266Y-89396759D01*
X127131635Y-89395891D01*
X127072581Y-89422359D01*
X127055800Y-89423500D01*
X125322196Y-89423500D01*
X125257100Y-89405039D01*
X125150340Y-89339189D01*
X125150335Y-89339187D01*
X125150334Y-89339186D01*
X124983797Y-89284001D01*
X124983795Y-89284000D01*
X124881010Y-89273500D01*
X123530998Y-89273500D01*
X123530981Y-89273501D01*
X123428203Y-89284000D01*
X123428200Y-89284001D01*
X123261668Y-89339185D01*
X123261663Y-89339187D01*
X123112342Y-89431289D01*
X122988289Y-89555342D01*
X122896187Y-89704663D01*
X122896185Y-89704668D01*
X122868349Y-89788670D01*
X122841001Y-89871203D01*
X122841001Y-89871204D01*
X122841000Y-89871204D01*
X122830500Y-89973983D01*
X122830500Y-90874001D01*
X122830501Y-90874019D01*
X122841000Y-90976796D01*
X122841001Y-90976799D01*
X122882085Y-91100781D01*
X122896186Y-91143334D01*
X122988288Y-91292656D01*
X123112344Y-91416712D01*
X123261666Y-91508814D01*
X123428203Y-91563999D01*
X123530991Y-91574500D01*
X124881008Y-91574499D01*
X124983797Y-91563999D01*
X125150334Y-91508814D01*
X125239034Y-91454104D01*
X125257100Y-91442961D01*
X125322196Y-91424500D01*
X127055800Y-91424500D01*
X127122839Y-91444185D01*
X127135365Y-91453493D01*
X127308182Y-91579050D01*
X127316946Y-91583516D01*
X127367742Y-91631491D01*
X127384536Y-91699312D01*
X127361998Y-91765447D01*
X127316946Y-91804484D01*
X127308182Y-91808949D01*
X127136213Y-91933890D01*
X126985890Y-92084213D01*
X126860951Y-92256179D01*
X126764444Y-92445585D01*
X126698753Y-92647760D01*
X126667377Y-92845864D01*
X126665500Y-92857713D01*
X126665500Y-93070287D01*
X126666087Y-93073991D01*
X126694964Y-93256318D01*
X126698754Y-93280243D01*
X126704685Y-93298498D01*
X126764444Y-93482414D01*
X126860951Y-93671820D01*
X126985890Y-93843786D01*
X127136213Y-93994109D01*
X127308182Y-94119050D01*
X127316946Y-94123516D01*
X127367742Y-94171491D01*
X127384536Y-94239312D01*
X127361998Y-94305447D01*
X127316946Y-94344484D01*
X127308182Y-94348949D01*
X127132266Y-94476759D01*
X127131635Y-94475891D01*
X127072581Y-94502359D01*
X127055800Y-94503500D01*
X125577517Y-94503500D01*
X125510478Y-94483815D01*
X125464723Y-94431011D01*
X125454779Y-94361853D01*
X125471977Y-94314405D01*
X125515814Y-94243334D01*
X125570999Y-94076797D01*
X125581500Y-93974009D01*
X125581499Y-93073992D01*
X125581120Y-93070286D01*
X125570999Y-92971203D01*
X125570998Y-92971200D01*
X125560648Y-92939965D01*
X125515814Y-92804666D01*
X125423712Y-92655344D01*
X125299656Y-92531288D01*
X125163358Y-92447219D01*
X125150336Y-92439187D01*
X125150331Y-92439185D01*
X125148862Y-92438698D01*
X124983797Y-92384001D01*
X124983795Y-92384000D01*
X124881010Y-92373500D01*
X123530998Y-92373500D01*
X123530981Y-92373501D01*
X123428203Y-92384000D01*
X123428200Y-92384001D01*
X123261668Y-92439185D01*
X123261663Y-92439187D01*
X123112342Y-92531289D01*
X122988289Y-92655342D01*
X122896187Y-92804663D01*
X122896185Y-92804668D01*
X122882531Y-92845873D01*
X122841001Y-92971203D01*
X122841001Y-92971204D01*
X122841000Y-92971204D01*
X122830500Y-93073983D01*
X122830500Y-93974001D01*
X122830501Y-93974019D01*
X122841000Y-94076796D01*
X122841001Y-94076799D01*
X122891334Y-94228692D01*
X122896186Y-94243334D01*
X122961329Y-94348949D01*
X122988289Y-94392657D01*
X123112345Y-94516713D01*
X123146594Y-94537837D01*
X123193320Y-94589784D01*
X123205500Y-94643377D01*
X123205500Y-94840544D01*
X123235348Y-94990599D01*
X123243946Y-95033827D01*
X123243949Y-95033837D01*
X123319364Y-95215907D01*
X123319371Y-95215920D01*
X123428859Y-95379780D01*
X123428860Y-95379781D01*
X123428861Y-95379782D01*
X123568218Y-95519139D01*
X123568219Y-95519139D01*
X123575286Y-95526206D01*
X123575285Y-95526206D01*
X123575288Y-95526208D01*
X124190860Y-96141781D01*
X124190861Y-96141782D01*
X124330218Y-96281139D01*
X124330219Y-96281140D01*
X124494079Y-96390628D01*
X124494092Y-96390635D01*
X124622833Y-96443961D01*
X124665744Y-96461735D01*
X124676164Y-96466051D01*
X124772812Y-96485275D01*
X124821135Y-96494887D01*
X124869458Y-96504500D01*
X124869459Y-96504500D01*
X124869460Y-96504500D01*
X125066540Y-96504500D01*
X126896570Y-96504500D01*
X126963609Y-96524185D01*
X127009364Y-96576989D01*
X127019308Y-96646147D01*
X126990283Y-96709703D01*
X126939903Y-96744682D01*
X126923913Y-96750645D01*
X126923906Y-96750649D01*
X126808812Y-96836809D01*
X126808809Y-96836812D01*
X126722649Y-96951906D01*
X126722645Y-96951913D01*
X126672403Y-97086620D01*
X126672401Y-97086627D01*
X126666000Y-97146155D01*
X126666000Y-97794000D01*
X127582988Y-97794000D01*
X127550075Y-97851007D01*
X127516000Y-97978174D01*
X127516000Y-98109826D01*
X127550075Y-98236993D01*
X127582988Y-98294000D01*
X126666000Y-98294000D01*
X126666000Y-98941844D01*
X126672401Y-99001372D01*
X126672403Y-99001379D01*
X126722645Y-99136086D01*
X126722649Y-99136093D01*
X126808809Y-99251187D01*
X126808812Y-99251190D01*
X126923906Y-99337350D01*
X126923913Y-99337354D01*
X127058620Y-99387596D01*
X127058627Y-99387598D01*
X127118155Y-99393999D01*
X127118172Y-99394000D01*
X127766000Y-99394000D01*
X127766000Y-98477012D01*
X127823007Y-98509925D01*
X127950174Y-98544000D01*
X128081826Y-98544000D01*
X128208993Y-98509925D01*
X128266000Y-98477012D01*
X128266000Y-99394000D01*
X128913828Y-99394000D01*
X128913844Y-99393999D01*
X128973372Y-99387598D01*
X128973379Y-99387596D01*
X129108086Y-99337354D01*
X129108093Y-99337350D01*
X129223187Y-99251190D01*
X129223190Y-99251187D01*
X129309350Y-99136093D01*
X129309354Y-99136086D01*
X129359596Y-99001379D01*
X129359598Y-99001372D01*
X129365999Y-98941844D01*
X129366000Y-98941827D01*
X129366000Y-98294000D01*
X128449012Y-98294000D01*
X128481925Y-98236993D01*
X128516000Y-98109826D01*
X128516000Y-97978174D01*
X128481925Y-97851007D01*
X128449012Y-97794000D01*
X129366000Y-97794000D01*
X129366000Y-97146172D01*
X129365999Y-97146155D01*
X129359598Y-97086627D01*
X129359596Y-97086620D01*
X129309354Y-96951913D01*
X129309350Y-96951906D01*
X129223190Y-96836812D01*
X129223187Y-96836809D01*
X129108093Y-96750649D01*
X129108086Y-96750645D01*
X129092097Y-96744682D01*
X129036163Y-96702811D01*
X129011746Y-96637347D01*
X129026597Y-96569074D01*
X129076002Y-96519668D01*
X129135430Y-96504500D01*
X130337551Y-96504500D01*
X130404590Y-96524185D01*
X130450345Y-96576989D01*
X130459370Y-96610226D01*
X130459585Y-96610181D01*
X130460430Y-96614133D01*
X130460909Y-96615894D01*
X130461001Y-96616799D01*
X130516185Y-96783331D01*
X130516187Y-96783336D01*
X130531105Y-96807522D01*
X130608288Y-96932656D01*
X130732344Y-97056712D01*
X130881666Y-97148814D01*
X131048203Y-97203999D01*
X131150991Y-97214500D01*
X132501008Y-97214499D01*
X132603797Y-97203999D01*
X132704003Y-97170794D01*
X132743007Y-97164500D01*
X142279796Y-97164500D01*
X142346835Y-97184185D01*
X142392590Y-97236989D01*
X142402534Y-97306147D01*
X142373509Y-97369703D01*
X142367477Y-97376181D01*
X139280477Y-100463181D01*
X139219154Y-100496666D01*
X139192796Y-100499500D01*
X130642611Y-100499500D01*
X130469389Y-100499500D01*
X130429728Y-100505781D01*
X130298302Y-100526597D01*
X130133552Y-100580128D01*
X129979211Y-100658768D01*
X129899256Y-100716859D01*
X129839072Y-100760586D01*
X129839070Y-100760588D01*
X129839069Y-100760588D01*
X125756475Y-104843181D01*
X125695152Y-104876666D01*
X125668794Y-104879500D01*
X124375998Y-104879500D01*
X124375981Y-104879501D01*
X124273203Y-104890000D01*
X124273200Y-104890001D01*
X124106668Y-104945185D01*
X124106663Y-104945187D01*
X123957342Y-105037289D01*
X123833289Y-105161342D01*
X123741187Y-105310663D01*
X123741185Y-105310668D01*
X123737093Y-105323018D01*
X123686001Y-105477203D01*
X123686001Y-105477204D01*
X123686000Y-105477204D01*
X123675500Y-105579983D01*
X123675500Y-107780001D01*
X123675501Y-107780018D01*
X123686000Y-107882796D01*
X123686001Y-107882799D01*
X123741185Y-108049331D01*
X123741187Y-108049336D01*
X123763182Y-108084996D01*
X123833288Y-108198656D01*
X123957344Y-108322712D01*
X124106666Y-108414814D01*
X124273203Y-108469999D01*
X124273204Y-108469999D01*
X124279629Y-108472128D01*
X124278926Y-108474248D01*
X124331127Y-108502530D01*
X124364814Y-108563742D01*
X124360060Y-108633449D01*
X124318374Y-108689521D01*
X124252991Y-108714154D01*
X124243736Y-108714500D01*
X121624500Y-108714500D01*
X121557461Y-108694815D01*
X121511706Y-108642011D01*
X121500500Y-108590500D01*
X121500500Y-77003051D01*
X121500649Y-76996967D01*
X121517052Y-76663072D01*
X121518245Y-76650962D01*
X121524967Y-76605648D01*
X121566849Y-76323296D01*
X121569218Y-76311385D01*
X121649710Y-75990043D01*
X121653240Y-75978411D01*
X121686471Y-75885536D01*
X121764835Y-75666525D01*
X121769476Y-75655318D01*
X121911124Y-75355828D01*
X121916840Y-75345136D01*
X122087145Y-75060998D01*
X122093888Y-75050905D01*
X122291232Y-74784818D01*
X122298935Y-74775433D01*
X122521405Y-74529975D01*
X122529975Y-74521405D01*
X122775433Y-74298935D01*
X122784818Y-74291232D01*
X123050905Y-74093888D01*
X123060998Y-74087145D01*
X123345136Y-73916840D01*
X123355828Y-73911124D01*
X123655318Y-73769476D01*
X123666525Y-73764835D01*
X123978412Y-73653239D01*
X123990043Y-73649710D01*
X124311385Y-73569218D01*
X124323296Y-73566849D01*
X124650962Y-73518244D01*
X124663068Y-73517052D01*
X124996967Y-73500648D01*
X125003051Y-73500500D01*
X125065892Y-73500500D01*
X176934108Y-73500500D01*
X176996949Y-73500500D01*
X177003032Y-73500648D01*
G37*
%TD.AperFunction*%
%TD*%
M02*
