<svg xmlns="http://www.w3.org/2000/svg" viewBox="0 0 64.0 72.0" width="100%" preserveAspectRatio="xMidYMid meet">
  <rect width="64.0" height="72.0" fill="white"/>
  <rect x="0.0" y="0" width="64.0" height="64.0" rx="1" fill="#12325f"/>
  <g transform="translate(-119.000,135.000)">
    <polygon points="137.283,-97.940 137.271,-97.942 137.259,-97.944 137.247,-97.948 137.236,-97.952 137.224,-97.956 137.213,-97.961 137.202,-97.967 137.191,-97.973 137.181,-97.979 137.171,-97.986 137.161,-97.994 137.152,-98.002 137.143,-98.010 137.135,-98.019 137.127,-98.028 137.119,-98.038 137.112,-98.048 137.106,-98.058 137.100,-98.069 137.094,-98.080 137.089,-98.091 137.085,-98.103 137.081,-98.114 137.077,-98.126 137.075,-98.138 137.073,-98.150 137.071,-98.162 137.070,-98.175 137.070,-98.187 137.070,-99.437 137.070,-99.449 137.071,-99.462 137.073,-99.474 137.075,-99.486 137.077,-99.498 137.081,-99.510 137.085,-99.521 137.089,-99.533 137.094,-99.544 137.100,-99.555 137.106,-99.566 137.112,-99.576 137.119,-99.586 137.127,-99.596 137.135,-99.605 137.143,-99.614 137.152,-99.622 137.161,-99.630 137.171,-99.638 137.181,-99.645 137.191,-99.651 137.202,-99.657 137.213,-99.663 137.224,-99.668 137.236,-99.672 137.247,-99.676 137.259,-99.680 137.271,-99.682 137.283,-99.684 137.295,-99.686 137.308,-99.687 137.320,-99.687 138.120,-99.687 138.132,-99.687 138.145,-99.686 138.157,-99.684 138.169,-99.682 138.181,-99.680 138.193,-99.676 138.204,-99.672 138.216,-99.668 138.227,-99.663 138.238,-99.657 138.249,-99.651 138.259,-99.645 138.269,-99.638 138.279,-99.630 138.288,-99.622 138.297,-99.614 138.305,-99.605 138.313,-99.596 138.321,-99.586 138.328,-99.576 138.334,-99.566 138.340,-99.555 138.346,-99.544 138.351,-99.533 138.355,-99.521 138.359,-99.510 138.363,-99.498 138.365,-99.486 138.367,-99.474 138.369,-99.462 138.370,-99.449 138.370,-99.437 138.370,-99.437 138.370,-98.187 138.370,-98.187 138.370,-98.175 138.369,-98.162 138.367,-98.150 138.365,-98.138 138.363,-98.126 138.359,-98.114 138.355,-98.103 138.351,-98.091 138.346,-98.080 138.340,-98.069 138.334,-98.058 138.328,-98.048 138.321,-98.038 138.313,-98.028 138.305,-98.019 138.297,-98.010 138.288,-98.002 138.279,-97.994 138.269,-97.986 138.259,-97.979 138.249,-97.973 138.238,-97.967 138.227,-97.961 138.216,-97.956 138.204,-97.952 138.193,-97.948 138.181,-97.944 138.169,-97.942 138.157,-97.940 138.145,-97.938 138.132,-97.937 138.120,-97.937 137.320,-97.937 137.308,-97.937 137.295,-97.938 137.283,-97.940" fill="#f0f4f8"/>
    <polygon points="134.183,-97.940 134.171,-97.942 134.159,-97.944 134.147,-97.948 134.136,-97.952 134.124,-97.956 134.113,-97.961 134.102,-97.967 134.091,-97.973 134.081,-97.979 134.071,-97.986 134.061,-97.994 134.052,-98.002 134.043,-98.010 134.035,-98.019 134.027,-98.028 134.019,-98.038 134.012,-98.048 134.006,-98.058 134.000,-98.069 133.994,-98.080 133.989,-98.091 133.985,-98.103 133.981,-98.114 133.977,-98.126 133.975,-98.138 133.973,-98.150 133.971,-98.162 133.970,-98.175 133.970,-98.187 133.970,-98.187 133.970,-99.437 133.970,-99.437 133.970,-99.449 133.971,-99.462 133.973,-99.474 133.975,-99.486 133.977,-99.498 133.981,-99.510 133.985,-99.521 133.989,-99.533 133.994,-99.544 134.000,-99.555 134.006,-99.566 134.012,-99.576 134.019,-99.586 134.027,-99.596 134.035,-99.605 134.043,-99.614 134.052,-99.622 134.061,-99.630 134.071,-99.638 134.081,-99.645 134.091,-99.651 134.102,-99.657 134.113,-99.663 134.124,-99.668 134.136,-99.672 134.147,-99.676 134.159,-99.680 134.171,-99.682 134.183,-99.684 134.195,-99.686 134.208,-99.687 134.220,-99.687 135.020,-99.687 135.032,-99.687 135.045,-99.686 135.057,-99.684 135.069,-99.682 135.081,-99.680 135.093,-99.676 135.104,-99.672 135.116,-99.668 135.127,-99.663 135.138,-99.657 135.149,-99.651 135.159,-99.645 135.169,-99.638 135.179,-99.630 135.188,-99.622 135.197,-99.614 135.205,-99.605 135.213,-99.596 135.221,-99.586 135.228,-99.576 135.234,-99.566 135.240,-99.555 135.246,-99.544 135.251,-99.533 135.255,-99.521 135.259,-99.510 135.263,-99.498 135.265,-99.486 135.267,-99.474 135.269,-99.462 135.270,-99.449 135.270,-99.437 135.270,-99.437 135.270,-98.187 135.270,-98.187 135.270,-98.175 135.269,-98.162 135.267,-98.150 135.265,-98.138 135.263,-98.126 135.259,-98.114 135.255,-98.103 135.251,-98.091 135.246,-98.080 135.240,-98.069 135.234,-98.058 135.228,-98.048 135.221,-98.038 135.213,-98.028 135.205,-98.019 135.197,-98.010 135.188,-98.002 135.179,-97.994 135.169,-97.986 135.159,-97.979 135.149,-97.973 135.138,-97.967 135.127,-97.961 135.116,-97.956 135.104,-97.952 135.093,-97.948 135.081,-97.944 135.069,-97.942 135.057,-97.940 135.045,-97.938 135.032,-97.937 135.020,-97.937 134.220,-97.937 134.208,-97.937 134.195,-97.938 134.183,-97.940" fill="#f0f4f8"/>
    <polygon points="158.565,-87.347 158.553,-87.349 158.541,-87.351 158.529,-87.355 158.518,-87.359 158.506,-87.363 158.495,-87.368 158.484,-87.374 158.473,-87.380 158.463,-87.386 158.453,-87.393 158.443,-87.401 158.434,-87.409 158.425,-87.417 158.417,-87.426 158.409,-87.435 158.401,-87.445 158.394,-87.455 158.388,-87.465 158.382,-87.476 158.376,-87.487 158.371,-87.498 158.367,-87.510 158.363,-87.521 158.359,-87.533 158.357,-87.545 158.355,-87.557 158.353,-87.569 158.352,-87.582 158.352,-87.594 158.352,-87.594 158.352,-88.694 158.352,-88.694 158.352,-88.706 158.353,-88.719 158.355,-88.731 158.357,-88.743 158.359,-88.755 158.363,-88.767 158.367,-88.778 158.371,-88.790 158.376,-88.801 158.382,-88.812 158.388,-88.823 158.394,-88.833 158.401,-88.843 158.409,-88.853 158.417,-88.862 158.425,-88.871 158.434,-88.879 158.443,-88.887 158.453,-88.895 158.463,-88.902 158.473,-88.908 158.484,-88.914 158.495,-88.920 158.506,-88.925 158.518,-88.929 158.529,-88.933 158.541,-88.937 158.553,-88.939 158.565,-88.941 158.577,-88.943 158.590,-88.944 158.602,-88.944 161.102,-88.944 161.114,-88.944 161.127,-88.943 161.139,-88.941 161.151,-88.939 161.163,-88.937 161.175,-88.933 161.186,-88.929 161.198,-88.925 161.209,-88.920 161.220,-88.914 161.231,-88.908 161.241,-88.902 161.251,-88.895 161.261,-88.887 161.270,-88.879 161.279,-88.871 161.287,-88.862 161.295,-88.853 161.303,-88.843 161.310,-88.833 161.316,-88.823 161.322,-88.812 161.328,-88.801 161.333,-88.790 161.337,-88.778 161.341,-88.767 161.345,-88.755 161.347,-88.743 161.349,-88.731 161.351,-88.719 161.352,-88.706 161.352,-88.694 161.352,-88.694 161.352,-87.594 161.352,-87.594 161.352,-87.582 161.351,-87.569 161.349,-87.557 161.347,-87.545 161.345,-87.533 161.341,-87.521 161.337,-87.510 161.333,-87.498 161.328,-87.487 161.322,-87.476 161.316,-87.465 161.310,-87.455 161.303,-87.445 161.295,-87.435 161.287,-87.426 161.279,-87.417 161.270,-87.409 161.261,-87.401 161.251,-87.393 161.241,-87.386 161.231,-87.380 161.220,-87.374 161.209,-87.368 161.198,-87.363 161.186,-87.359 161.175,-87.355 161.163,-87.351 161.151,-87.349 161.139,-87.347 161.127,-87.345 161.114,-87.344 161.102,-87.344 158.602,-87.344 158.590,-87.344 158.577,-87.345 158.565,-87.347" fill="#f0f4f8"/>
    <polygon points="162.965,-87.347 162.953,-87.349 162.941,-87.351 162.929,-87.355 162.918,-87.359 162.906,-87.363 162.895,-87.368 162.884,-87.374 162.873,-87.380 162.863,-87.386 162.853,-87.393 162.843,-87.401 162.834,-87.409 162.825,-87.417 162.817,-87.426 162.809,-87.435 162.801,-87.445 162.794,-87.455 162.788,-87.465 162.782,-87.476 162.776,-87.487 162.771,-87.498 162.767,-87.510 162.763,-87.521 162.759,-87.533 162.757,-87.545 162.755,-87.557 162.753,-87.569 162.752,-87.582 162.752,-87.594 162.752,-87.594 162.752,-88.694 162.752,-88.694 162.752,-88.706 162.753,-88.719 162.755,-88.731 162.757,-88.743 162.759,-88.755 162.763,-88.767 162.767,-88.778 162.771,-88.790 162.776,-88.801 162.782,-88.812 162.788,-88.823 162.794,-88.833 162.801,-88.843 162.809,-88.853 162.817,-88.862 162.825,-88.871 162.834,-88.879 162.843,-88.887 162.853,-88.895 162.863,-88.902 162.873,-88.908 162.884,-88.914 162.895,-88.920 162.906,-88.925 162.918,-88.929 162.929,-88.933 162.941,-88.937 162.953,-88.939 162.965,-88.941 162.977,-88.943 162.990,-88.944 163.002,-88.944 165.502,-88.944 165.514,-88.944 165.527,-88.943 165.539,-88.941 165.551,-88.939 165.563,-88.937 165.575,-88.933 165.586,-88.929 165.598,-88.925 165.609,-88.920 165.620,-88.914 165.631,-88.908 165.641,-88.902 165.651,-88.895 165.661,-88.887 165.670,-88.879 165.679,-88.871 165.687,-88.862 165.695,-88.853 165.703,-88.843 165.710,-88.833 165.716,-88.823 165.722,-88.812 165.728,-88.801 165.733,-88.790 165.737,-88.778 165.741,-88.767 165.745,-88.755 165.747,-88.743 165.749,-88.731 165.751,-88.719 165.752,-88.706 165.752,-88.694 165.752,-88.694 165.752,-87.594 165.752,-87.594 165.752,-87.582 165.751,-87.569 165.749,-87.557 165.747,-87.545 165.745,-87.533 165.741,-87.521 165.737,-87.510 165.733,-87.498 165.728,-87.487 165.722,-87.476 165.716,-87.465 165.710,-87.455 165.703,-87.445 165.695,-87.435 165.687,-87.426 165.679,-87.417 165.670,-87.409 165.661,-87.401 165.651,-87.393 165.641,-87.386 165.631,-87.380 165.620,-87.374 165.609,-87.368 165.598,-87.363 165.586,-87.359 165.575,-87.355 165.563,-87.351 165.551,-87.349 165.539,-87.347 165.527,-87.345 165.514,-87.344 165.502,-87.344 163.002,-87.344 162.990,-87.344 162.977,-87.345 162.965,-87.347" fill="#f0f4f8"/>
    <polygon points="137.335,-100.480 137.323,-100.482 137.311,-100.484 137.299,-100.488 137.288,-100.492 137.276,-100.496 137.265,-100.501 137.254,-100.507 137.243,-100.513 137.233,-100.519 137.223,-100.526 137.213,-100.534 137.204,-100.542 137.195,-100.550 137.187,-100.559 137.179,-100.568 137.171,-100.578 137.164,-100.588 137.158,-100.598 137.152,-100.609 137.146,-100.620 137.141,-100.631 137.137,-100.643 137.133,-100.654 137.129,-100.666 137.127,-100.678 137.125,-100.690 137.123,-100.702 137.122,-100.715 137.122,-100.727 137.122,-101.977 137.122,-101.989 137.123,-102.002 137.125,-102.014 137.127,-102.026 137.129,-102.038 137.133,-102.050 137.137,-102.061 137.141,-102.073 137.146,-102.084 137.152,-102.095 137.158,-102.106 137.164,-102.116 137.171,-102.126 137.179,-102.136 137.187,-102.145 137.195,-102.154 137.204,-102.162 137.213,-102.170 137.223,-102.178 137.233,-102.185 137.243,-102.191 137.254,-102.197 137.265,-102.203 137.276,-102.208 137.288,-102.212 137.299,-102.216 137.311,-102.220 137.323,-102.222 137.335,-102.224 137.347,-102.226 137.360,-102.227 137.372,-102.227 138.172,-102.227 138.184,-102.227 138.197,-102.226 138.209,-102.224 138.221,-102.222 138.233,-102.220 138.245,-102.216 138.256,-102.212 138.268,-102.208 138.279,-102.203 138.290,-102.197 138.301,-102.191 138.311,-102.185 138.321,-102.178 138.331,-102.170 138.340,-102.162 138.349,-102.154 138.357,-102.145 138.365,-102.136 138.373,-102.126 138.380,-102.116 138.386,-102.106 138.392,-102.095 138.398,-102.084 138.403,-102.073 138.407,-102.061 138.411,-102.050 138.415,-102.038 138.417,-102.026 138.419,-102.014 138.421,-102.002 138.422,-101.989 138.422,-101.977 138.422,-100.727 138.422,-100.715 138.421,-100.702 138.419,-100.690 138.417,-100.678 138.415,-100.666 138.411,-100.654 138.407,-100.643 138.403,-100.631 138.398,-100.620 138.392,-100.609 138.386,-100.598 138.380,-100.588 138.373,-100.578 138.365,-100.568 138.357,-100.559 138.349,-100.550 138.340,-100.542 138.331,-100.534 138.321,-100.526 138.311,-100.519 138.301,-100.513 138.290,-100.507 138.279,-100.501 138.268,-100.496 138.256,-100.492 138.245,-100.488 138.233,-100.484 138.221,-100.482 138.209,-100.480 138.197,-100.478 138.184,-100.477 138.172,-100.477 137.372,-100.477 137.360,-100.477 137.347,-100.478 137.335,-100.480" fill="#f0f4f8"/>
    <polygon points="134.235,-100.480 134.223,-100.482 134.211,-100.484 134.199,-100.488 134.188,-100.492 134.176,-100.496 134.165,-100.501 134.154,-100.507 134.143,-100.513 134.133,-100.519 134.123,-100.526 134.113,-100.534 134.104,-100.542 134.095,-100.550 134.087,-100.559 134.079,-100.568 134.071,-100.578 134.064,-100.588 134.058,-100.598 134.052,-100.609 134.046,-100.620 134.041,-100.631 134.037,-100.643 134.033,-100.654 134.029,-100.666 134.027,-100.678 134.025,-100.690 134.023,-100.702 134.022,-100.715 134.022,-100.727 134.022,-101.977 134.022,-101.989 134.023,-102.002 134.025,-102.014 134.027,-102.026 134.029,-102.038 134.033,-102.050 134.037,-102.061 134.041,-102.073 134.046,-102.084 134.052,-102.095 134.058,-102.106 134.064,-102.116 134.071,-102.126 134.079,-102.136 134.087,-102.145 134.095,-102.154 134.104,-102.162 134.113,-102.170 134.123,-102.178 134.133,-102.185 134.143,-102.191 134.154,-102.197 134.165,-102.203 134.176,-102.208 134.188,-102.212 134.199,-102.216 134.211,-102.220 134.223,-102.222 134.235,-102.224 134.247,-102.226 134.260,-102.227 134.272,-102.227 135.072,-102.227 135.084,-102.227 135.097,-102.226 135.109,-102.224 135.121,-102.222 135.133,-102.220 135.145,-102.216 135.156,-102.212 135.168,-102.208 135.179,-102.203 135.190,-102.197 135.201,-102.191 135.211,-102.185 135.221,-102.178 135.231,-102.170 135.240,-102.162 135.249,-102.154 135.257,-102.145 135.265,-102.136 135.273,-102.126 135.280,-102.116 135.286,-102.106 135.292,-102.095 135.298,-102.084 135.303,-102.073 135.307,-102.061 135.311,-102.050 135.315,-102.038 135.317,-102.026 135.319,-102.014 135.321,-102.002 135.322,-101.989 135.322,-101.977 135.322,-100.727 135.322,-100.715 135.321,-100.702 135.319,-100.690 135.317,-100.678 135.315,-100.666 135.311,-100.654 135.307,-100.643 135.303,-100.631 135.298,-100.620 135.292,-100.609 135.286,-100.598 135.280,-100.588 135.273,-100.578 135.265,-100.568 135.257,-100.559 135.249,-100.550 135.240,-100.542 135.231,-100.534 135.221,-100.526 135.211,-100.519 135.201,-100.513 135.190,-100.507 135.179,-100.501 135.168,-100.496 135.156,-100.492 135.145,-100.488 135.133,-100.484 135.121,-100.482 135.109,-100.480 135.097,-100.478 135.084,-100.477 135.072,-100.477 134.272,-100.477 134.260,-100.477 134.247,-100.478 134.235,-100.480" fill="#f0f4f8"/>
    <polygon points="175.106,-93.074 175.094,-93.076 175.082,-93.079 175.070,-93.082 175.059,-93.086 175.047,-93.091 175.036,-93.096 175.025,-93.101 175.014,-93.107 175.004,-93.114 174.994,-93.121 174.984,-93.128 174.975,-93.136 174.966,-93.145 174.958,-93.154 174.950,-93.163 174.942,-93.173 174.935,-93.183 174.929,-93.193 174.923,-93.204 174.917,-93.215 174.912,-93.226 174.908,-93.237 174.904,-93.249 174.900,-93.261 174.898,-93.273 174.896,-93.285 174.894,-93.297 174.893,-93.309 174.893,-93.322 174.893,-93.322 174.893,-94.122 174.893,-94.122 174.893,-94.134 174.894,-94.146 174.896,-94.158 174.898,-94.170 174.900,-94.182 174.904,-94.194 174.908,-94.206 174.912,-94.217 174.917,-94.228 174.923,-94.239 174.929,-94.250 174.935,-94.260 174.942,-94.270 174.950,-94.280 174.958,-94.289 174.966,-94.298 174.975,-94.307 174.984,-94.315 174.994,-94.322 175.004,-94.329 175.014,-94.336 175.025,-94.342 175.036,-94.347 175.047,-94.352 175.059,-94.357 175.070,-94.361 175.082,-94.364 175.094,-94.367 175.106,-94.369 175.118,-94.370 175.131,-94.371 175.143,-94.372 176.393,-94.372 176.405,-94.371 176.418,-94.370 176.430,-94.369 176.442,-94.367 176.454,-94.364 176.466,-94.361 176.477,-94.357 176.489,-94.352 176.500,-94.347 176.511,-94.342 176.522,-94.336 176.532,-94.329 176.542,-94.322 176.552,-94.315 176.561,-94.307 176.570,-94.298 176.578,-94.289 176.586,-94.280 176.594,-94.270 176.601,-94.260 176.607,-94.250 176.613,-94.239 176.619,-94.228 176.624,-94.217 176.628,-94.206 176.632,-94.194 176.636,-94.182 176.638,-94.170 176.640,-94.158 176.642,-94.146 176.643,-94.134 176.643,-94.122 176.643,-94.122 176.643,-93.322 176.643,-93.322 176.643,-93.309 176.642,-93.297 176.640,-93.285 176.638,-93.273 176.636,-93.261 176.632,-93.249 176.628,-93.237 176.624,-93.226 176.619,-93.215 176.613,-93.204 176.607,-93.193 176.601,-93.183 176.594,-93.173 176.586,-93.163 176.578,-93.154 176.570,-93.145 176.561,-93.136 176.552,-93.128 176.542,-93.121 176.532,-93.114 176.522,-93.107 176.511,-93.101 176.500,-93.096 176.489,-93.091 176.477,-93.086 176.466,-93.082 176.454,-93.079 176.442,-93.076 176.430,-93.074 176.418,-93.073 176.405,-93.072 176.393,-93.072 175.143,-93.072 175.131,-93.072 175.118,-93.073 175.106,-93.074" fill="#f0f4f8"/>
    <polygon points="175.106,-89.974 175.094,-89.976 175.082,-89.979 175.070,-89.982 175.059,-89.986 175.047,-89.991 175.036,-89.996 175.025,-90.001 175.014,-90.007 175.004,-90.014 174.994,-90.021 174.984,-90.028 174.975,-90.036 174.966,-90.045 174.958,-90.054 174.950,-90.063 174.942,-90.073 174.935,-90.083 174.929,-90.093 174.923,-90.104 174.917,-90.115 174.912,-90.126 174.908,-90.137 174.904,-90.149 174.900,-90.161 174.898,-90.173 174.896,-90.185 174.894,-90.197 174.893,-90.209 174.893,-90.221 174.893,-91.022 174.893,-91.034 174.894,-91.046 174.896,-91.058 174.898,-91.070 174.900,-91.082 174.904,-91.094 174.908,-91.106 174.912,-91.117 174.917,-91.128 174.923,-91.139 174.929,-91.150 174.935,-91.160 174.942,-91.170 174.950,-91.180 174.958,-91.189 174.966,-91.198 174.975,-91.207 174.984,-91.215 174.994,-91.222 175.004,-91.229 175.014,-91.236 175.025,-91.242 175.036,-91.247 175.047,-91.252 175.059,-91.257 175.070,-91.261 175.082,-91.264 175.094,-91.267 175.106,-91.269 175.118,-91.270 175.131,-91.271 175.143,-91.272 176.393,-91.272 176.405,-91.271 176.418,-91.270 176.430,-91.269 176.442,-91.267 176.454,-91.264 176.466,-91.261 176.477,-91.257 176.489,-91.252 176.500,-91.247 176.511,-91.242 176.522,-91.236 176.532,-91.229 176.542,-91.222 176.552,-91.215 176.561,-91.207 176.570,-91.198 176.578,-91.189 176.586,-91.180 176.594,-91.170 176.601,-91.160 176.607,-91.150 176.613,-91.139 176.619,-91.128 176.624,-91.117 176.628,-91.106 176.632,-91.094 176.636,-91.082 176.638,-91.070 176.640,-91.058 176.642,-91.046 176.643,-91.034 176.643,-91.022 176.643,-90.221 176.643,-90.209 176.642,-90.197 176.640,-90.185 176.638,-90.173 176.636,-90.161 176.632,-90.149 176.628,-90.137 176.624,-90.126 176.619,-90.115 176.613,-90.104 176.607,-90.093 176.601,-90.083 176.594,-90.073 176.586,-90.063 176.578,-90.054 176.570,-90.045 176.561,-90.036 176.552,-90.028 176.542,-90.021 176.532,-90.014 176.522,-90.007 176.511,-90.001 176.500,-89.996 176.489,-89.991 176.477,-89.986 176.466,-89.982 176.454,-89.979 176.442,-89.976 176.430,-89.974 176.418,-89.973 176.405,-89.972 176.393,-89.971 175.143,-89.971 175.131,-89.972 175.118,-89.973 175.106,-89.974" fill="#f0f4f8"/>
    <polygon points="123.544,-111.829 123.532,-111.831 123.520,-111.833 123.508,-111.837 123.497,-111.841 123.485,-111.845 123.474,-111.850 123.463,-111.856 123.452,-111.862 123.442,-111.868 123.432,-111.875 123.422,-111.883 123.413,-111.891 123.404,-111.899 123.396,-111.908 123.388,-111.917 123.380,-111.927 123.373,-111.937 123.367,-111.947 123.361,-111.958 123.355,-111.969 123.350,-111.980 123.346,-111.992 123.342,-112.003 123.338,-112.015 123.336,-112.027 123.334,-112.039 123.332,-112.051 123.331,-112.064 123.331,-112.076 123.331,-112.076 123.331,-112.876 123.331,-112.876 123.331,-112.888 123.332,-112.901 123.334,-112.913 123.336,-112.925 123.338,-112.937 123.342,-112.949 123.346,-112.960 123.350,-112.972 123.355,-112.983 123.361,-112.994 123.367,-113.005 123.373,-113.015 123.380,-113.025 123.388,-113.035 123.396,-113.044 123.404,-113.053 123.413,-113.061 123.422,-113.069 123.432,-113.077 123.442,-113.084 123.452,-113.090 123.463,-113.096 123.474,-113.102 123.485,-113.107 123.497,-113.111 123.508,-113.115 123.520,-113.119 123.532,-113.121 123.544,-113.123 123.556,-113.125 123.569,-113.126 123.581,-113.126 124.831,-113.126 124.843,-113.126 124.856,-113.125 124.868,-113.123 124.880,-113.121 124.892,-113.119 124.904,-113.115 124.915,-113.111 124.927,-113.107 124.938,-113.102 124.949,-113.096 124.960,-113.090 124.970,-113.084 124.980,-113.077 124.990,-113.069 124.999,-113.061 125.008,-113.053 125.016,-113.044 125.024,-113.035 125.032,-113.025 125.039,-113.015 125.045,-113.005 125.051,-112.994 125.057,-112.983 125.062,-112.972 125.066,-112.960 125.070,-112.949 125.074,-112.937 125.076,-112.925 125.078,-112.913 125.080,-112.901 125.081,-112.888 125.081,-112.876 125.081,-112.876 125.081,-112.076 125.081,-112.076 125.081,-112.064 125.080,-112.051 125.078,-112.039 125.076,-112.027 125.074,-112.015 125.070,-112.003 125.066,-111.992 125.062,-111.980 125.057,-111.969 125.051,-111.958 125.045,-111.947 125.039,-111.937 125.032,-111.927 125.024,-111.917 125.016,-111.908 125.008,-111.899 124.999,-111.891 124.990,-111.883 124.980,-111.875 124.970,-111.868 124.960,-111.862 124.949,-111.856 124.938,-111.850 124.927,-111.845 124.915,-111.841 124.904,-111.837 124.892,-111.833 124.880,-111.831 124.868,-111.829 124.856,-111.827 124.843,-111.826 124.831,-111.826 123.581,-111.826 123.569,-111.826 123.556,-111.827 123.544,-111.829" fill="#f0f4f8"/>
    <polygon points="123.544,-114.929 123.532,-114.931 123.520,-114.933 123.508,-114.937 123.497,-114.941 123.485,-114.945 123.474,-114.950 123.463,-114.956 123.452,-114.962 123.442,-114.968 123.432,-114.975 123.422,-114.983 123.413,-114.991 123.404,-114.999 123.396,-115.008 123.388,-115.017 123.380,-115.027 123.373,-115.037 123.367,-115.047 123.361,-115.058 123.355,-115.069 123.350,-115.080 123.346,-115.092 123.342,-115.103 123.338,-115.115 123.336,-115.127 123.334,-115.139 123.332,-115.151 123.331,-115.164 123.331,-115.176 123.331,-115.176 123.331,-115.976 123.331,-115.976 123.331,-115.988 123.332,-116.001 123.334,-116.013 123.336,-116.025 123.338,-116.037 123.342,-116.049 123.346,-116.060 123.350,-116.072 123.355,-116.083 123.361,-116.094 123.367,-116.105 123.373,-116.115 123.380,-116.125 123.388,-116.135 123.396,-116.144 123.404,-116.153 123.413,-116.161 123.422,-116.169 123.432,-116.177 123.442,-116.184 123.452,-116.190 123.463,-116.196 123.474,-116.202 123.485,-116.207 123.497,-116.211 123.508,-116.215 123.520,-116.219 123.532,-116.221 123.544,-116.223 123.556,-116.225 123.569,-116.226 123.581,-116.226 124.831,-116.226 124.843,-116.226 124.856,-116.225 124.868,-116.223 124.880,-116.221 124.892,-116.219 124.904,-116.215 124.915,-116.211 124.927,-116.207 124.938,-116.202 124.949,-116.196 124.960,-116.190 124.970,-116.184 124.980,-116.177 124.990,-116.169 124.999,-116.161 125.008,-116.153 125.016,-116.144 125.024,-116.135 125.032,-116.125 125.039,-116.115 125.045,-116.105 125.051,-116.094 125.057,-116.083 125.062,-116.072 125.066,-116.060 125.070,-116.049 125.074,-116.037 125.076,-116.025 125.078,-116.013 125.080,-116.001 125.081,-115.988 125.081,-115.976 125.081,-115.976 125.081,-115.176 125.081,-115.176 125.081,-115.164 125.080,-115.151 125.078,-115.139 125.076,-115.127 125.074,-115.115 125.070,-115.103 125.066,-115.092 125.062,-115.080 125.057,-115.069 125.051,-115.058 125.045,-115.047 125.039,-115.037 125.032,-115.027 125.024,-115.017 125.016,-115.008 125.008,-114.999 124.999,-114.991 124.990,-114.983 124.980,-114.975 124.970,-114.968 124.960,-114.962 124.949,-114.956 124.938,-114.950 124.927,-114.945 124.915,-114.941 124.904,-114.937 124.892,-114.933 124.880,-114.931 124.868,-114.929 124.856,-114.927 124.843,-114.926 124.831,-114.926 123.581,-114.926 123.569,-114.926 123.556,-114.927 123.544,-114.929" fill="#f0f4f8"/>
    <polygon points="170.573,-119.501 170.561,-119.503 170.549,-119.506 170.537,-119.509 170.526,-119.513 170.514,-119.517 170.503,-119.522 170.492,-119.528 170.481,-119.534 170.471,-119.540 170.461,-119.547 170.451,-119.555 170.442,-119.563 170.433,-119.571 170.425,-119.580 170.417,-119.590 170.409,-119.599 170.402,-119.609 170.395,-119.620 170.389,-119.630 170.384,-119.641 170.379,-119.652 170.374,-119.664 170.371,-119.676 170.367,-119.687 170.365,-119.699 170.363,-119.711 170.361,-119.724 170.360,-119.736 170.360,-119.748 170.360,-122.748 170.360,-122.760 170.361,-122.773 170.363,-122.785 170.365,-122.797 170.367,-122.809 170.371,-122.821 170.374,-122.832 170.379,-122.844 170.384,-122.855 170.389,-122.866 170.395,-122.877 170.402,-122.887 170.409,-122.897 170.417,-122.907 170.425,-122.916 170.433,-122.925 170.442,-122.933 170.451,-122.941 170.461,-122.949 170.471,-122.956 170.481,-122.963 170.492,-122.969 170.503,-122.974 170.514,-122.979 170.526,-122.984 170.537,-122.987 170.549,-122.991 170.561,-122.993 170.573,-122.995 170.585,-122.997 170.598,-122.998 170.610,-122.998 171.910,-122.998 171.922,-122.998 171.934,-122.997 171.947,-122.995 171.959,-122.993 171.971,-122.991 171.982,-122.987 171.994,-122.984 172.006,-122.979 172.017,-122.974 172.028,-122.969 172.038,-122.963 172.049,-122.956 172.059,-122.949 172.068,-122.941 172.078,-122.933 172.087,-122.925 172.095,-122.916 172.103,-122.907 172.111,-122.897 172.118,-122.887 172.124,-122.877 172.130,-122.866 172.136,-122.855 172.141,-122.844 172.145,-122.832 172.149,-122.821 172.152,-122.809 172.155,-122.797 172.157,-122.785 172.159,-122.773 172.160,-122.760 172.160,-122.748 172.160,-122.748 172.160,-119.748 172.160,-119.748 172.160,-119.736 172.159,-119.724 172.157,-119.711 172.155,-119.699 172.152,-119.687 172.149,-119.676 172.145,-119.664 172.141,-119.652 172.136,-119.641 172.130,-119.630 172.124,-119.620 172.118,-119.609 172.111,-119.599 172.103,-119.590 172.095,-119.580 172.087,-119.571 172.078,-119.563 172.068,-119.555 172.059,-119.547 172.049,-119.540 172.038,-119.534 172.028,-119.528 172.017,-119.522 172.006,-119.517 171.994,-119.513 171.982,-119.509 171.971,-119.506 171.959,-119.503 171.947,-119.501 171.934,-119.499 171.922,-119.498 171.910,-119.498 170.610,-119.498 170.598,-119.498 170.585,-119.499 170.573,-119.501" fill="#f0f4f8"/>
    <polygon points="170.573,-114.501 170.561,-114.503 170.549,-114.506 170.537,-114.509 170.526,-114.513 170.514,-114.517 170.503,-114.522 170.492,-114.528 170.481,-114.534 170.471,-114.540 170.461,-114.547 170.451,-114.555 170.442,-114.563 170.433,-114.571 170.425,-114.580 170.417,-114.590 170.409,-114.599 170.402,-114.609 170.395,-114.620 170.389,-114.630 170.384,-114.641 170.379,-114.652 170.374,-114.664 170.371,-114.676 170.367,-114.687 170.365,-114.699 170.363,-114.711 170.361,-114.724 170.360,-114.736 170.360,-114.748 170.360,-117.748 170.360,-117.760 170.361,-117.773 170.363,-117.785 170.365,-117.797 170.367,-117.809 170.371,-117.821 170.374,-117.832 170.379,-117.844 170.384,-117.855 170.389,-117.866 170.395,-117.877 170.402,-117.887 170.409,-117.897 170.417,-117.907 170.425,-117.916 170.433,-117.925 170.442,-117.933 170.451,-117.941 170.461,-117.949 170.471,-117.956 170.481,-117.963 170.492,-117.969 170.503,-117.974 170.514,-117.979 170.526,-117.984 170.537,-117.987 170.549,-117.991 170.561,-117.993 170.573,-117.995 170.585,-117.997 170.598,-117.998 170.610,-117.998 171.910,-117.998 171.922,-117.998 171.934,-117.997 171.947,-117.995 171.959,-117.993 171.971,-117.991 171.982,-117.987 171.994,-117.984 172.006,-117.979 172.017,-117.974 172.028,-117.969 172.038,-117.963 172.049,-117.956 172.059,-117.949 172.068,-117.941 172.078,-117.933 172.087,-117.925 172.095,-117.916 172.103,-117.907 172.111,-117.897 172.118,-117.887 172.124,-117.877 172.130,-117.866 172.136,-117.855 172.141,-117.844 172.145,-117.832 172.149,-117.821 172.152,-117.809 172.155,-117.797 172.157,-117.785 172.159,-117.773 172.160,-117.760 172.160,-117.748 172.160,-117.748 172.160,-114.748 172.160,-114.748 172.160,-114.736 172.159,-114.724 172.157,-114.711 172.155,-114.699 172.152,-114.687 172.149,-114.676 172.145,-114.664 172.141,-114.652 172.136,-114.641 172.130,-114.630 172.124,-114.620 172.118,-114.609 172.111,-114.599 172.103,-114.590 172.095,-114.580 172.087,-114.571 172.078,-114.563 172.068,-114.555 172.059,-114.547 172.049,-114.540 172.038,-114.534 172.028,-114.528 172.017,-114.522 172.006,-114.517 171.994,-114.513 171.982,-114.509 171.971,-114.506 171.959,-114.503 171.947,-114.501 171.934,-114.499 171.922,-114.498 171.910,-114.498 170.610,-114.498 170.598,-114.498 170.585,-114.499 170.573,-114.501" fill="#f0f4f8"/>
    <polygon points="167.961,-128.651 167.949,-128.653 167.937,-128.655 167.925,-128.659 167.914,-128.663 167.902,-128.667 167.891,-128.672 167.880,-128.678 167.869,-128.684 167.859,-128.690 167.849,-128.697 167.839,-128.705 167.830,-128.713 167.821,-128.721 167.813,-128.730 167.805,-128.739 167.797,-128.749 167.790,-128.759 167.784,-128.769 167.778,-128.780 167.772,-128.791 167.767,-128.802 167.763,-128.814 167.759,-128.825 167.755,-128.837 167.753,-128.849 167.751,-128.861 167.749,-128.873 167.748,-128.886 167.748,-128.898 167.748,-131.398 167.748,-131.410 167.749,-131.423 167.751,-131.435 167.753,-131.447 167.755,-131.459 167.759,-131.471 167.763,-131.482 167.767,-131.494 167.772,-131.505 167.778,-131.516 167.784,-131.527 167.790,-131.537 167.797,-131.547 167.805,-131.557 167.813,-131.566 167.821,-131.575 167.830,-131.583 167.839,-131.591 167.849,-131.599 167.859,-131.606 167.869,-131.612 167.880,-131.618 167.891,-131.624 167.902,-131.629 167.914,-131.633 167.925,-131.637 167.937,-131.641 167.949,-131.643 167.961,-131.645 167.973,-131.647 167.986,-131.648 167.998,-131.648 169.098,-131.648 169.110,-131.648 169.123,-131.647 169.135,-131.645 169.147,-131.643 169.159,-131.641 169.171,-131.637 169.182,-131.633 169.194,-131.629 169.205,-131.624 169.216,-131.618 169.227,-131.612 169.237,-131.606 169.247,-131.599 169.257,-131.591 169.266,-131.583 169.275,-131.575 169.283,-131.566 169.291,-131.557 169.299,-131.547 169.306,-131.537 169.312,-131.527 169.318,-131.516 169.324,-131.505 169.329,-131.494 169.333,-131.482 169.337,-131.471 169.341,-131.459 169.343,-131.447 169.345,-131.435 169.347,-131.423 169.348,-131.410 169.348,-131.398 169.348,-128.898 169.348,-128.886 169.347,-128.873 169.345,-128.861 169.343,-128.849 169.341,-128.837 169.337,-128.825 169.333,-128.814 169.329,-128.802 169.324,-128.791 169.318,-128.780 169.312,-128.769 169.306,-128.759 169.299,-128.749 169.291,-128.739 169.283,-128.730 169.275,-128.721 169.266,-128.713 169.257,-128.705 169.247,-128.697 169.237,-128.690 169.227,-128.684 169.216,-128.678 169.205,-128.672 169.194,-128.667 169.182,-128.663 169.171,-128.659 169.159,-128.655 169.147,-128.653 169.135,-128.651 169.123,-128.649 169.110,-128.648 169.098,-128.648 167.998,-128.648 167.986,-128.648 167.973,-128.649 167.961,-128.651" fill="#f0f4f8"/>
    <polygon points="167.961,-124.251 167.949,-124.253 167.937,-124.255 167.925,-124.259 167.914,-124.263 167.902,-124.267 167.891,-124.272 167.880,-124.278 167.869,-124.284 167.859,-124.290 167.849,-124.297 167.839,-124.305 167.830,-124.313 167.821,-124.321 167.813,-124.330 167.805,-124.339 167.797,-124.349 167.790,-124.359 167.784,-124.369 167.778,-124.380 167.772,-124.391 167.767,-124.402 167.763,-124.414 167.759,-124.425 167.755,-124.437 167.753,-124.449 167.751,-124.461 167.749,-124.473 167.748,-124.486 167.748,-124.498 167.748,-126.998 167.748,-127.010 167.749,-127.023 167.751,-127.035 167.753,-127.047 167.755,-127.059 167.759,-127.071 167.763,-127.082 167.767,-127.094 167.772,-127.105 167.778,-127.116 167.784,-127.127 167.790,-127.137 167.797,-127.147 167.805,-127.157 167.813,-127.166 167.821,-127.175 167.830,-127.183 167.839,-127.191 167.849,-127.199 167.859,-127.206 167.869,-127.212 167.880,-127.218 167.891,-127.224 167.902,-127.229 167.914,-127.233 167.925,-127.237 167.937,-127.241 167.949,-127.243 167.961,-127.245 167.973,-127.247 167.986,-127.248 167.998,-127.248 169.098,-127.248 169.110,-127.248 169.123,-127.247 169.135,-127.245 169.147,-127.243 169.159,-127.241 169.171,-127.237 169.182,-127.233 169.194,-127.229 169.205,-127.224 169.216,-127.218 169.227,-127.212 169.237,-127.206 169.247,-127.199 169.257,-127.191 169.266,-127.183 169.275,-127.175 169.283,-127.166 169.291,-127.157 169.299,-127.147 169.306,-127.137 169.312,-127.127 169.318,-127.116 169.324,-127.105 169.329,-127.094 169.333,-127.082 169.337,-127.071 169.341,-127.059 169.343,-127.047 169.345,-127.035 169.347,-127.023 169.348,-127.010 169.348,-126.998 169.348,-126.998 169.348,-124.498 169.348,-124.498 169.348,-124.486 169.347,-124.473 169.345,-124.461 169.343,-124.449 169.341,-124.437 169.337,-124.425 169.333,-124.414 169.329,-124.402 169.324,-124.391 169.318,-124.380 169.312,-124.369 169.306,-124.359 169.299,-124.349 169.291,-124.339 169.283,-124.330 169.275,-124.321 169.266,-124.313 169.257,-124.305 169.247,-124.297 169.237,-124.290 169.227,-124.284 169.216,-124.278 169.205,-124.272 169.194,-124.267 169.182,-124.263 169.171,-124.259 169.159,-124.255 169.147,-124.253 169.135,-124.251 169.123,-124.249 169.110,-124.248 169.098,-124.248 167.998,-124.248 167.986,-124.248 167.973,-124.249 167.961,-124.251" fill="#f0f4f8"/>
    <polygon points="175.106,-84.894 175.094,-84.896 175.082,-84.899 175.070,-84.902 175.059,-84.906 175.047,-84.911 175.036,-84.916 175.025,-84.921 175.014,-84.927 175.004,-84.934 174.994,-84.941 174.984,-84.948 174.975,-84.956 174.966,-84.965 174.958,-84.974 174.950,-84.983 174.942,-84.993 174.935,-85.003 174.929,-85.013 174.923,-85.024 174.917,-85.035 174.912,-85.046 174.908,-85.057 174.904,-85.069 174.900,-85.081 174.898,-85.093 174.896,-85.105 174.894,-85.117 174.893,-85.129 174.893,-85.142 174.893,-85.142 174.893,-86.066 174.893,-86.066 174.893,-86.079 174.894,-86.091 174.896,-86.103 174.898,-86.115 174.900,-86.127 174.904,-86.139 174.908,-86.151 174.912,-86.162 174.917,-86.173 174.923,-86.184 174.929,-86.195 174.935,-86.205 174.942,-86.215 174.950,-86.225 174.958,-86.234 174.966,-86.243 174.975,-86.252 174.984,-86.260 174.994,-86.267 175.004,-86.274 175.014,-86.281 175.025,-86.287 175.036,-86.292 175.047,-86.297 175.059,-86.302 175.070,-86.306 175.082,-86.309 175.094,-86.312 175.106,-86.314 175.118,-86.315 175.131,-86.316 175.143,-86.316 176.393,-86.316 176.405,-86.316 176.418,-86.315 176.430,-86.314 176.442,-86.312 176.454,-86.309 176.466,-86.306 176.477,-86.302 176.489,-86.297 176.500,-86.292 176.511,-86.287 176.522,-86.281 176.532,-86.274 176.542,-86.267 176.552,-86.260 176.561,-86.252 176.570,-86.243 176.578,-86.234 176.586,-86.225 176.594,-86.215 176.601,-86.205 176.607,-86.195 176.613,-86.184 176.619,-86.173 176.624,-86.162 176.628,-86.151 176.632,-86.139 176.636,-86.127 176.638,-86.115 176.640,-86.103 176.642,-86.091 176.643,-86.079 176.643,-86.066 176.643,-86.066 176.643,-85.142 176.643,-85.129 176.642,-85.117 176.640,-85.105 176.638,-85.093 176.636,-85.081 176.632,-85.069 176.628,-85.057 176.624,-85.046 176.619,-85.035 176.613,-85.024 176.607,-85.013 176.601,-85.003 176.594,-84.993 176.586,-84.983 176.578,-84.974 176.570,-84.965 176.561,-84.956 176.552,-84.948 176.542,-84.941 176.532,-84.934 176.522,-84.927 176.511,-84.921 176.500,-84.916 176.489,-84.911 176.477,-84.906 176.466,-84.902 176.454,-84.899 176.442,-84.896 176.430,-84.894 176.418,-84.893 176.405,-84.892 176.393,-84.892 175.143,-84.892 175.131,-84.892 175.118,-84.893 175.106,-84.894" fill="#f0f4f8"/>
    <polygon points="175.106,-87.869 175.094,-87.871 175.082,-87.874 175.070,-87.877 175.059,-87.881 175.047,-87.886 175.036,-87.891 175.025,-87.896 175.014,-87.902 175.004,-87.909 174.994,-87.916 174.984,-87.923 174.975,-87.931 174.966,-87.940 174.958,-87.949 174.950,-87.958 174.942,-87.968 174.935,-87.978 174.929,-87.988 174.923,-87.999 174.917,-88.010 174.912,-88.021 174.908,-88.032 174.904,-88.044 174.900,-88.056 174.898,-88.068 174.896,-88.080 174.894,-88.092 174.893,-88.104 174.893,-88.117 174.893,-88.117 174.893,-89.041 174.893,-89.041 174.893,-89.054 174.894,-89.066 174.896,-89.078 174.898,-89.090 174.900,-89.102 174.904,-89.114 174.908,-89.126 174.912,-89.137 174.917,-89.148 174.923,-89.159 174.929,-89.170 174.935,-89.180 174.942,-89.190 174.950,-89.200 174.958,-89.209 174.966,-89.218 174.975,-89.227 174.984,-89.235 174.994,-89.242 175.004,-89.249 175.014,-89.256 175.025,-89.262 175.036,-89.267 175.047,-89.272 175.059,-89.277 175.070,-89.281 175.082,-89.284 175.094,-89.287 175.106,-89.289 175.118,-89.290 175.131,-89.291 175.143,-89.291 176.393,-89.291 176.405,-89.291 176.418,-89.290 176.430,-89.289 176.442,-89.287 176.454,-89.284 176.466,-89.281 176.477,-89.277 176.489,-89.272 176.500,-89.267 176.511,-89.262 176.522,-89.256 176.532,-89.249 176.542,-89.242 176.552,-89.235 176.561,-89.227 176.570,-89.218 176.578,-89.209 176.586,-89.200 176.594,-89.190 176.601,-89.180 176.607,-89.170 176.613,-89.159 176.619,-89.148 176.624,-89.137 176.628,-89.126 176.632,-89.114 176.636,-89.102 176.638,-89.090 176.640,-89.078 176.642,-89.066 176.643,-89.054 176.643,-89.041 176.643,-88.117 176.643,-88.117 176.643,-88.104 176.642,-88.092 176.640,-88.080 176.638,-88.068 176.636,-88.056 176.632,-88.044 176.628,-88.032 176.624,-88.021 176.619,-88.010 176.613,-87.999 176.607,-87.988 176.601,-87.978 176.594,-87.968 176.586,-87.958 176.578,-87.949 176.570,-87.940 176.561,-87.931 176.552,-87.923 176.542,-87.916 176.532,-87.909 176.522,-87.902 176.511,-87.896 176.500,-87.891 176.489,-87.886 176.477,-87.881 176.466,-87.877 176.454,-87.874 176.442,-87.871 176.430,-87.869 176.418,-87.868 176.405,-87.867 176.393,-87.867 175.143,-87.867 175.131,-87.867 175.118,-87.868 175.106,-87.869" fill="#f0f4f8"/>
    <polygon points="149.555,-100.480 149.543,-100.482 149.531,-100.484 149.519,-100.488 149.508,-100.492 149.496,-100.496 149.485,-100.501 149.474,-100.507 149.463,-100.513 149.453,-100.519 149.443,-100.526 149.433,-100.534 149.424,-100.542 149.415,-100.550 149.407,-100.559 149.399,-100.568 149.391,-100.578 149.384,-100.588 149.378,-100.598 149.372,-100.609 149.366,-100.620 149.361,-100.631 149.357,-100.643 149.353,-100.654 149.349,-100.666 149.347,-100.678 149.345,-100.690 149.343,-100.702 149.342,-100.715 149.342,-100.727 149.342,-101.977 149.342,-101.989 149.343,-102.002 149.345,-102.014 149.347,-102.026 149.349,-102.038 149.353,-102.050 149.357,-102.061 149.361,-102.073 149.366,-102.084 149.372,-102.095 149.378,-102.106 149.384,-102.116 149.391,-102.126 149.399,-102.136 149.407,-102.145 149.415,-102.154 149.424,-102.162 149.433,-102.170 149.443,-102.178 149.453,-102.185 149.463,-102.191 149.474,-102.197 149.485,-102.203 149.496,-102.208 149.508,-102.212 149.519,-102.216 149.531,-102.220 149.543,-102.222 149.555,-102.224 149.567,-102.226 149.580,-102.227 149.592,-102.227 150.392,-102.227 150.404,-102.227 150.417,-102.226 150.429,-102.224 150.441,-102.222 150.453,-102.220 150.465,-102.216 150.476,-102.212 150.488,-102.208 150.499,-102.203 150.510,-102.197 150.521,-102.191 150.531,-102.185 150.541,-102.178 150.551,-102.170 150.560,-102.162 150.569,-102.154 150.577,-102.145 150.585,-102.136 150.593,-102.126 150.600,-102.116 150.606,-102.106 150.612,-102.095 150.618,-102.084 150.623,-102.073 150.627,-102.061 150.631,-102.050 150.635,-102.038 150.637,-102.026 150.639,-102.014 150.641,-102.002 150.642,-101.989 150.642,-101.977 150.642,-100.727 150.642,-100.715 150.641,-100.702 150.639,-100.690 150.637,-100.678 150.635,-100.666 150.631,-100.654 150.627,-100.643 150.623,-100.631 150.618,-100.620 150.612,-100.609 150.606,-100.598 150.600,-100.588 150.593,-100.578 150.585,-100.568 150.577,-100.559 150.569,-100.550 150.560,-100.542 150.551,-100.534 150.541,-100.526 150.531,-100.519 150.521,-100.513 150.510,-100.507 150.499,-100.501 150.488,-100.496 150.476,-100.492 150.465,-100.488 150.453,-100.484 150.441,-100.482 150.429,-100.480 150.417,-100.478 150.404,-100.477 150.392,-100.477 149.592,-100.477 149.580,-100.477 149.567,-100.478 149.555,-100.480" fill="#f0f4f8"/>
    <polygon points="146.455,-100.480 146.443,-100.482 146.431,-100.484 146.419,-100.488 146.408,-100.492 146.396,-100.496 146.385,-100.501 146.374,-100.507 146.363,-100.513 146.353,-100.519 146.343,-100.526 146.333,-100.534 146.324,-100.542 146.315,-100.550 146.307,-100.559 146.299,-100.568 146.291,-100.578 146.284,-100.588 146.278,-100.598 146.272,-100.609 146.266,-100.620 146.261,-100.631 146.257,-100.643 146.253,-100.654 146.249,-100.666 146.247,-100.678 146.245,-100.690 146.243,-100.702 146.242,-100.715 146.242,-100.727 146.242,-101.977 146.242,-101.989 146.243,-102.002 146.245,-102.014 146.247,-102.026 146.249,-102.038 146.253,-102.050 146.257,-102.061 146.261,-102.073 146.266,-102.084 146.272,-102.095 146.278,-102.106 146.284,-102.116 146.291,-102.126 146.299,-102.136 146.307,-102.145 146.315,-102.154 146.324,-102.162 146.333,-102.170 146.343,-102.178 146.353,-102.185 146.363,-102.191 146.374,-102.197 146.385,-102.203 146.396,-102.208 146.408,-102.212 146.419,-102.216 146.431,-102.220 146.443,-102.222 146.455,-102.224 146.467,-102.226 146.480,-102.227 146.492,-102.227 147.292,-102.227 147.304,-102.227 147.317,-102.226 147.329,-102.224 147.341,-102.222 147.353,-102.220 147.365,-102.216 147.376,-102.212 147.388,-102.208 147.399,-102.203 147.410,-102.197 147.421,-102.191 147.431,-102.185 147.441,-102.178 147.451,-102.170 147.460,-102.162 147.469,-102.154 147.477,-102.145 147.485,-102.136 147.493,-102.126 147.500,-102.116 147.506,-102.106 147.512,-102.095 147.518,-102.084 147.523,-102.073 147.527,-102.061 147.531,-102.050 147.535,-102.038 147.537,-102.026 147.539,-102.014 147.541,-102.002 147.542,-101.989 147.542,-101.977 147.542,-100.727 147.542,-100.715 147.541,-100.702 147.539,-100.690 147.537,-100.678 147.535,-100.666 147.531,-100.654 147.527,-100.643 147.523,-100.631 147.518,-100.620 147.512,-100.609 147.506,-100.598 147.500,-100.588 147.493,-100.578 147.485,-100.568 147.477,-100.559 147.469,-100.550 147.460,-100.542 147.451,-100.534 147.441,-100.526 147.431,-100.519 147.421,-100.513 147.410,-100.507 147.399,-100.501 147.388,-100.496 147.376,-100.492 147.365,-100.488 147.353,-100.484 147.341,-100.482 147.329,-100.480 147.317,-100.478 147.304,-100.477 147.292,-100.477 146.492,-100.477 146.480,-100.477 146.467,-100.478 146.455,-100.480" fill="#f0f4f8"/>
    <polygon points="131.164,-109.289 131.152,-109.291 131.140,-109.293 131.128,-109.297 131.117,-109.301 131.105,-109.305 131.094,-109.310 131.083,-109.316 131.072,-109.322 131.062,-109.328 131.052,-109.335 131.042,-109.343 131.033,-109.351 131.024,-109.359 131.016,-109.368 131.008,-109.377 131.000,-109.387 130.993,-109.397 130.987,-109.407 130.981,-109.418 130.975,-109.429 130.970,-109.440 130.966,-109.452 130.962,-109.463 130.958,-109.475 130.956,-109.487 130.954,-109.499 130.952,-109.511 130.951,-109.524 130.951,-109.536 130.951,-110.336 130.951,-110.348 130.952,-110.361 130.954,-110.373 130.956,-110.385 130.958,-110.397 130.962,-110.409 130.966,-110.420 130.970,-110.432 130.975,-110.443 130.981,-110.454 130.987,-110.465 130.993,-110.475 131.000,-110.485 131.008,-110.495 131.016,-110.504 131.024,-110.513 131.033,-110.521 131.042,-110.529 131.052,-110.537 131.062,-110.544 131.072,-110.550 131.083,-110.556 131.094,-110.562 131.105,-110.567 131.117,-110.571 131.128,-110.575 131.140,-110.579 131.152,-110.581 131.164,-110.583 131.176,-110.585 131.189,-110.586 131.201,-110.586 132.451,-110.586 132.463,-110.586 132.476,-110.585 132.488,-110.583 132.500,-110.581 132.512,-110.579 132.524,-110.575 132.535,-110.571 132.547,-110.567 132.558,-110.562 132.569,-110.556 132.580,-110.550 132.590,-110.544 132.600,-110.537 132.610,-110.529 132.619,-110.521 132.628,-110.513 132.636,-110.504 132.644,-110.495 132.652,-110.485 132.659,-110.475 132.665,-110.465 132.671,-110.454 132.677,-110.443 132.682,-110.432 132.686,-110.420 132.690,-110.409 132.694,-110.397 132.696,-110.385 132.698,-110.373 132.700,-110.361 132.701,-110.348 132.701,-110.336 132.701,-109.536 132.701,-109.524 132.700,-109.511 132.698,-109.499 132.696,-109.487 132.694,-109.475 132.690,-109.463 132.686,-109.452 132.682,-109.440 132.677,-109.429 132.671,-109.418 132.665,-109.407 132.659,-109.397 132.652,-109.387 132.644,-109.377 132.636,-109.368 132.628,-109.359 132.619,-109.351 132.610,-109.343 132.600,-109.335 132.590,-109.328 132.580,-109.322 132.569,-109.316 132.558,-109.310 132.547,-109.305 132.535,-109.301 132.524,-109.297 132.512,-109.293 132.500,-109.291 132.488,-109.289 132.476,-109.287 132.463,-109.286 132.451,-109.286 131.201,-109.286 131.189,-109.286 131.176,-109.287 131.164,-109.289" fill="#f0f4f8"/>
    <polygon points="131.164,-112.389 131.152,-112.391 131.140,-112.393 131.128,-112.397 131.117,-112.401 131.105,-112.405 131.094,-112.410 131.083,-112.416 131.072,-112.422 131.062,-112.428 131.052,-112.435 131.042,-112.443 131.033,-112.451 131.024,-112.459 131.016,-112.468 131.008,-112.477 131.000,-112.487 130.993,-112.497 130.987,-112.507 130.981,-112.518 130.975,-112.529 130.970,-112.540 130.966,-112.552 130.962,-112.563 130.958,-112.575 130.956,-112.587 130.954,-112.599 130.952,-112.611 130.951,-112.624 130.951,-112.636 130.951,-113.436 130.951,-113.448 130.952,-113.461 130.954,-113.473 130.956,-113.485 130.958,-113.497 130.962,-113.509 130.966,-113.520 130.970,-113.532 130.975,-113.543 130.981,-113.554 130.987,-113.565 130.993,-113.575 131.000,-113.585 131.008,-113.595 131.016,-113.604 131.024,-113.613 131.033,-113.621 131.042,-113.629 131.052,-113.637 131.062,-113.644 131.072,-113.650 131.083,-113.656 131.094,-113.662 131.105,-113.667 131.117,-113.671 131.128,-113.675 131.140,-113.679 131.152,-113.681 131.164,-113.683 131.176,-113.685 131.189,-113.686 131.201,-113.686 132.451,-113.686 132.463,-113.686 132.476,-113.685 132.488,-113.683 132.500,-113.681 132.512,-113.679 132.524,-113.675 132.535,-113.671 132.547,-113.667 132.558,-113.662 132.569,-113.656 132.580,-113.650 132.590,-113.644 132.600,-113.637 132.610,-113.629 132.619,-113.621 132.628,-113.613 132.636,-113.604 132.644,-113.595 132.652,-113.585 132.659,-113.575 132.665,-113.565 132.671,-113.554 132.677,-113.543 132.682,-113.532 132.686,-113.520 132.690,-113.509 132.694,-113.497 132.696,-113.485 132.698,-113.473 132.700,-113.461 132.701,-113.448 132.701,-113.436 132.701,-112.636 132.701,-112.624 132.700,-112.611 132.698,-112.599 132.696,-112.587 132.694,-112.575 132.690,-112.563 132.686,-112.552 132.682,-112.540 132.677,-112.529 132.671,-112.518 132.665,-112.507 132.659,-112.497 132.652,-112.487 132.644,-112.477 132.636,-112.468 132.628,-112.459 132.619,-112.451 132.610,-112.443 132.600,-112.435 132.590,-112.428 132.580,-112.422 132.569,-112.416 132.558,-112.410 132.547,-112.405 132.535,-112.401 132.524,-112.397 132.512,-112.393 132.500,-112.391 132.488,-112.389 132.476,-112.387 132.463,-112.386 132.451,-112.386 131.201,-112.386 131.189,-112.386 131.176,-112.387 131.164,-112.389" fill="#f0f4f8"/>
    <polygon points="149.555,-97.940 149.543,-97.942 149.531,-97.944 149.519,-97.948 149.508,-97.952 149.496,-97.956 149.485,-97.961 149.474,-97.967 149.463,-97.973 149.453,-97.979 149.443,-97.986 149.433,-97.994 149.424,-98.002 149.415,-98.010 149.407,-98.019 149.399,-98.028 149.391,-98.038 149.384,-98.048 149.378,-98.058 149.372,-98.069 149.366,-98.080 149.361,-98.091 149.357,-98.103 149.353,-98.114 149.349,-98.126 149.347,-98.138 149.345,-98.150 149.343,-98.162 149.342,-98.175 149.342,-98.187 149.342,-99.437 149.342,-99.449 149.343,-99.462 149.345,-99.474 149.347,-99.486 149.349,-99.498 149.353,-99.510 149.357,-99.521 149.361,-99.533 149.366,-99.544 149.372,-99.555 149.378,-99.566 149.384,-99.576 149.391,-99.586 149.399,-99.596 149.407,-99.605 149.415,-99.614 149.424,-99.622 149.433,-99.630 149.443,-99.638 149.453,-99.645 149.463,-99.651 149.474,-99.657 149.485,-99.663 149.496,-99.668 149.508,-99.672 149.519,-99.676 149.531,-99.680 149.543,-99.682 149.555,-99.684 149.567,-99.686 149.580,-99.687 149.592,-99.687 150.392,-99.687 150.404,-99.687 150.417,-99.686 150.429,-99.684 150.441,-99.682 150.453,-99.680 150.465,-99.676 150.476,-99.672 150.488,-99.668 150.499,-99.663 150.510,-99.657 150.521,-99.651 150.531,-99.645 150.541,-99.638 150.551,-99.630 150.560,-99.622 150.569,-99.614 150.577,-99.605 150.585,-99.596 150.593,-99.586 150.600,-99.576 150.606,-99.566 150.612,-99.555 150.618,-99.544 150.623,-99.533 150.627,-99.521 150.631,-99.510 150.635,-99.498 150.637,-99.486 150.639,-99.474 150.641,-99.462 150.642,-99.449 150.642,-99.437 150.642,-99.437 150.642,-98.187 150.642,-98.187 150.642,-98.175 150.641,-98.162 150.639,-98.150 150.637,-98.138 150.635,-98.126 150.631,-98.114 150.627,-98.103 150.623,-98.091 150.618,-98.080 150.612,-98.069 150.606,-98.058 150.600,-98.048 150.593,-98.038 150.585,-98.028 150.577,-98.019 150.569,-98.010 150.560,-98.002 150.551,-97.994 150.541,-97.986 150.531,-97.979 150.521,-97.973 150.510,-97.967 150.499,-97.961 150.488,-97.956 150.476,-97.952 150.465,-97.948 150.453,-97.944 150.441,-97.942 150.429,-97.940 150.417,-97.938 150.404,-97.937 150.392,-97.937 149.592,-97.937 149.580,-97.937 149.567,-97.938 149.555,-97.940" fill="#f0f4f8"/>
    <polygon points="146.455,-97.940 146.443,-97.942 146.431,-97.944 146.419,-97.948 146.408,-97.952 146.396,-97.956 146.385,-97.961 146.374,-97.967 146.363,-97.973 146.353,-97.979 146.343,-97.986 146.333,-97.994 146.324,-98.002 146.315,-98.010 146.307,-98.019 146.299,-98.028 146.291,-98.038 146.284,-98.048 146.278,-98.058 146.272,-98.069 146.266,-98.080 146.261,-98.091 146.257,-98.103 146.253,-98.114 146.249,-98.126 146.247,-98.138 146.245,-98.150 146.243,-98.162 146.242,-98.175 146.242,-98.187 146.242,-98.187 146.242,-99.437 146.242,-99.437 146.242,-99.449 146.243,-99.462 146.245,-99.474 146.247,-99.486 146.249,-99.498 146.253,-99.510 146.257,-99.521 146.261,-99.533 146.266,-99.544 146.272,-99.555 146.278,-99.566 146.284,-99.576 146.291,-99.586 146.299,-99.596 146.307,-99.605 146.315,-99.614 146.324,-99.622 146.333,-99.630 146.343,-99.638 146.353,-99.645 146.363,-99.651 146.374,-99.657 146.385,-99.663 146.396,-99.668 146.408,-99.672 146.419,-99.676 146.431,-99.680 146.443,-99.682 146.455,-99.684 146.467,-99.686 146.480,-99.687 146.492,-99.687 147.292,-99.687 147.304,-99.687 147.317,-99.686 147.329,-99.684 147.341,-99.682 147.353,-99.680 147.365,-99.676 147.376,-99.672 147.388,-99.668 147.399,-99.663 147.410,-99.657 147.421,-99.651 147.431,-99.645 147.441,-99.638 147.451,-99.630 147.460,-99.622 147.469,-99.614 147.477,-99.605 147.485,-99.596 147.493,-99.586 147.500,-99.576 147.506,-99.566 147.512,-99.555 147.518,-99.544 147.523,-99.533 147.527,-99.521 147.531,-99.510 147.535,-99.498 147.537,-99.486 147.539,-99.474 147.541,-99.462 147.542,-99.449 147.542,-99.437 147.542,-99.437 147.542,-98.187 147.542,-98.187 147.542,-98.175 147.541,-98.162 147.539,-98.150 147.537,-98.138 147.535,-98.126 147.531,-98.114 147.527,-98.103 147.523,-98.091 147.518,-98.080 147.512,-98.069 147.506,-98.058 147.500,-98.048 147.493,-98.038 147.485,-98.028 147.477,-98.019 147.469,-98.010 147.460,-98.002 147.451,-97.994 147.441,-97.986 147.431,-97.979 147.421,-97.973 147.410,-97.967 147.399,-97.961 147.388,-97.956 147.376,-97.952 147.365,-97.948 147.353,-97.944 147.341,-97.942 147.329,-97.940 147.317,-97.938 147.304,-97.937 147.292,-97.937 146.492,-97.937 146.480,-97.937 146.467,-97.938 146.455,-97.940" fill="#f0f4f8"/>
    <polygon points="163.797,-128.851 163.785,-128.853 163.773,-128.855 163.761,-128.859 163.750,-128.863 163.738,-128.867 163.727,-128.872 163.716,-128.878 163.705,-128.884 163.695,-128.890 163.685,-128.897 163.675,-128.905 163.666,-128.913 163.657,-128.921 163.649,-128.930 163.641,-128.939 163.633,-128.949 163.626,-128.959 163.620,-128.969 163.614,-128.980 163.608,-128.991 163.603,-129.002 163.599,-129.014 163.595,-129.025 163.591,-129.037 163.589,-129.049 163.587,-129.061 163.585,-129.073 163.584,-129.086 163.584,-129.098 163.584,-129.923 163.584,-129.935 163.585,-129.948 163.587,-129.960 163.589,-129.972 163.591,-129.984 163.595,-129.996 163.599,-130.007 163.603,-130.019 163.608,-130.030 163.614,-130.041 163.620,-130.052 163.626,-130.062 163.633,-130.072 163.641,-130.082 163.649,-130.091 163.657,-130.100 163.666,-130.108 163.675,-130.116 163.685,-130.124 163.695,-130.131 163.705,-130.137 163.716,-130.143 163.727,-130.149 163.738,-130.154 163.750,-130.158 163.761,-130.162 163.773,-130.166 163.785,-130.168 163.797,-130.170 163.809,-130.172 163.822,-130.173 163.834,-130.173 165.134,-130.173 165.146,-130.173 165.159,-130.172 165.171,-130.170 165.183,-130.168 165.195,-130.166 165.207,-130.162 165.218,-130.158 165.230,-130.154 165.241,-130.149 165.252,-130.143 165.263,-130.137 165.273,-130.131 165.283,-130.124 165.293,-130.116 165.302,-130.108 165.311,-130.100 165.319,-130.091 165.327,-130.082 165.335,-130.072 165.342,-130.062 165.348,-130.052 165.354,-130.041 165.360,-130.030 165.365,-130.019 165.369,-130.007 165.373,-129.996 165.377,-129.984 165.379,-129.972 165.381,-129.960 165.383,-129.948 165.384,-129.935 165.384,-129.923 165.384,-129.923 165.384,-129.098 165.384,-129.098 165.384,-129.086 165.383,-129.073 165.381,-129.061 165.379,-129.049 165.377,-129.037 165.373,-129.025 165.369,-129.014 165.365,-129.002 165.360,-128.991 165.354,-128.980 165.348,-128.969 165.342,-128.959 165.335,-128.949 165.327,-128.939 165.319,-128.930 165.311,-128.921 165.302,-128.913 165.293,-128.905 165.283,-128.897 165.273,-128.890 165.263,-128.884 165.252,-128.878 165.241,-128.872 165.230,-128.867 165.218,-128.863 165.207,-128.859 165.195,-128.855 165.183,-128.853 165.171,-128.851 165.159,-128.849 165.146,-128.848 165.134,-128.848 163.834,-128.848 163.822,-128.848 163.809,-128.849 163.797,-128.851" fill="#f0f4f8"/>
    <polygon points="163.797,-125.726 163.785,-125.728 163.773,-125.730 163.761,-125.734 163.750,-125.738 163.738,-125.742 163.727,-125.747 163.716,-125.753 163.705,-125.759 163.695,-125.765 163.685,-125.772 163.675,-125.780 163.666,-125.788 163.657,-125.796 163.649,-125.805 163.641,-125.814 163.633,-125.824 163.626,-125.834 163.620,-125.844 163.614,-125.855 163.608,-125.866 163.603,-125.877 163.599,-125.889 163.595,-125.900 163.591,-125.912 163.589,-125.924 163.587,-125.936 163.585,-125.948 163.584,-125.961 163.584,-125.973 163.584,-126.798 163.584,-126.810 163.585,-126.823 163.587,-126.835 163.589,-126.847 163.591,-126.859 163.595,-126.871 163.599,-126.882 163.603,-126.894 163.608,-126.905 163.614,-126.916 163.620,-126.927 163.626,-126.937 163.633,-126.947 163.641,-126.957 163.649,-126.966 163.657,-126.975 163.666,-126.983 163.675,-126.991 163.685,-126.999 163.695,-127.006 163.705,-127.012 163.716,-127.018 163.727,-127.024 163.738,-127.029 163.750,-127.033 163.761,-127.037 163.773,-127.041 163.785,-127.043 163.797,-127.045 163.809,-127.047 163.822,-127.048 163.834,-127.048 165.134,-127.048 165.146,-127.048 165.159,-127.047 165.171,-127.045 165.183,-127.043 165.195,-127.041 165.207,-127.037 165.218,-127.033 165.230,-127.029 165.241,-127.024 165.252,-127.018 165.263,-127.012 165.273,-127.006 165.283,-126.999 165.293,-126.991 165.302,-126.983 165.311,-126.975 165.319,-126.966 165.327,-126.957 165.335,-126.947 165.342,-126.937 165.348,-126.927 165.354,-126.916 165.360,-126.905 165.365,-126.894 165.369,-126.882 165.373,-126.871 165.377,-126.859 165.379,-126.847 165.381,-126.835 165.383,-126.823 165.384,-126.810 165.384,-126.798 165.384,-126.798 165.384,-125.973 165.384,-125.973 165.384,-125.961 165.383,-125.948 165.381,-125.936 165.379,-125.924 165.377,-125.912 165.373,-125.900 165.369,-125.889 165.365,-125.877 165.360,-125.866 165.354,-125.855 165.348,-125.844 165.342,-125.834 165.335,-125.824 165.327,-125.814 165.319,-125.805 165.311,-125.796 165.302,-125.788 165.293,-125.780 165.283,-125.772 165.273,-125.765 165.263,-125.759 165.252,-125.753 165.241,-125.747 165.230,-125.742 165.218,-125.738 165.207,-125.734 165.195,-125.730 165.183,-125.728 165.171,-125.726 165.159,-125.724 165.146,-125.723 165.134,-125.723 163.834,-125.723 163.822,-125.723 163.809,-125.724 163.797,-125.726" fill="#f0f4f8"/>
  </g>
  <text x="32.0" y="70.0" text-anchor="middle" fill="#666" font-family="sans-serif" font-weight="600" font-size="4.0">Front</text>
</svg>